<svg width="20" height="23" viewBox="0 0 20 25" fill="none" xmlns="http://www.w3.org/2000/svg">
<path d="M4.31122 9.11621C4.31122 10.6292 4.91225 12.0802 5.9821 13.1501C7.05195 14.2199 8.50297 14.821 10.016 14.821C11.529 14.821 12.98 14.2199 14.0498 13.1501C15.1197 12.0802 15.7207 10.6292 15.7207 9.11621C15.7207 9.04363 15.7207 8.96815 15.7207 8.89267C15.7064 7.56738 15.2494 6.28491 14.4225 5.24915C13.5956 4.21339 12.4461 3.48378 11.1569 3.17631C8.46857 2.52019 5.84119 3.72791 4.45928 6.25658L4.33444 6.48013L4.79024 6.80819C4.6148 7.22097 4.4872 7.65248 4.40993 8.09429C4.34658 8.4313 4.31354 8.77331 4.31122 9.11621ZM6.25345 6.34948C6.39342 6.13074 6.55486 5.92651 6.73537 5.73982C7.25985 5.221 7.91088 4.84837 8.62387 4.65892C9.33686 4.46947 10.087 4.46978 10.7998 4.65983C11.6972 4.87162 12.5073 5.35533 13.1195 6.04488C13.7316 6.73443 14.1159 7.59617 14.2198 8.51235V8.553V8.61977C14.2198 8.67783 14.2198 8.7359 14.2198 8.79686V8.96815V9.00299C14.2198 9.06105 14.2198 9.11912 14.2198 9.20621C14.1963 9.74643 14.0804 10.2786 13.8772 10.7797C13.5433 11.5358 13.0056 12.184 12.3241 12.6516C11.6426 13.1192 10.8444 13.3879 10.0189 13.4274C9.33958 13.4337 8.66937 13.2712 8.0684 12.9545C7.46743 12.6378 6.95451 12.1768 6.5757 11.6129C6.33634 11.2923 6.14738 10.9369 6.01538 10.5591C5.9582 10.4114 5.91448 10.2589 5.88474 10.1033C5.82344 9.82487 5.79229 9.54066 5.79184 9.25556C5.79238 8.60583 5.94868 7.96569 6.24764 7.38882L6.37248 7.15366L5.92248 6.86335L6.25345 6.34948Z" fill="#666666"/>
<path d="M19.8868 24.1198C19.8868 24.0414 18.6965 16.11 10.3295 16.11C1.66062 16.11 0.168385 24.0124 0.150965 24.0937L0 24.9443H20L19.8868 24.1198ZM1.80578 23.4927C2.38641 21.6637 4.39832 17.5615 10.3295 17.5615C15.9791 17.5615 17.7558 21.6841 18.2639 23.4927H1.80578Z" fill="#666666"/>
<circle cx="14" cy="5" r="5" fill="#173AF1"/>
<path d="M14.3752 5.63657L14 5.40224L13.6262 5.63657L13.77 5.21535L13.4825 4.98246H13.8088L14 4.60868L14.1883 4.9839H14.5147L14.2343 5.21679L14.3781 5.63801L14.3752 5.63657ZM16.5 4.26366H14.6311L13.9986 3L13.3689 4.26366H11.5L12.929 5.454L12.3094 7.30851L13.9986 6.25043L15.6878 7.30851L15.0696 5.454L16.4986 4.26366H16.5Z" fill="#fff"/>
</svg>
