<svg width="35" height="35" viewBox="0 0 20 35" fill="none" xmlns="http://www.w3.org/2000/svg">
<path d="M6.72074 17.0291L19.4564 4.29283C19.8071 3.94298 20 3.47523 20 2.97647C20 2.47744 19.8071 2.00996 19.4564 1.65956L18.3404 0.544146C17.9903 0.193191 17.5223 0 17.0235 0C16.5248 0 16.0573 0.193191 15.7069 0.544146L0.543046 15.7077C0.191261 16.0592 -0.00137648 16.5289 7.41525e-06 17.0282C-0.00137648 17.5297 0.190984 17.9989 0.543046 18.3507L15.6928 33.4996C16.0432 33.8505 16.5107 34.0437 17.0097 34.0437C17.5084 34.0437 17.9759 33.8505 18.3266 33.4996L19.4423 32.3842C20.1683 31.6582 20.1683 30.4763 19.4423 29.7506L6.72074 17.0291Z" fill="#173AF1"/>
</svg>
