<svg width="20" height="20" viewBox="0 0 20 20" fill="none" xmlns="http://www.w3.org/2000/svg">
<path d="M18.4592 12.488C18.1841 12.488 17.9611 12.711 17.9611 12.9861V17.4088C17.9601 18.2337 17.2918 18.9023 16.4668 18.9031H2.49052C1.66553 18.9023 0.99718 18.2337 0.996207 17.4088V4.42869C0.99718 3.6039 1.66553 2.93535 2.49052 2.93438H6.91313C7.18826 2.93438 7.41124 2.7114 7.41124 2.43628C7.41124 2.16135 7.18826 1.93817 6.91313 1.93817H2.49052C1.11567 1.93973 0.00155657 3.05385 0 4.42869V17.409C0.00155657 18.7838 1.11567 19.8979 2.49052 19.8995H16.4668C17.8416 19.8979 18.9558 18.7838 18.9573 17.409V12.9861C18.9573 12.711 18.7343 12.488 18.4592 12.488Z" fill="#000"/>
<path d="M18.76 0.656534C17.8846 -0.218845 16.4654 -0.218845 15.59 0.656534L6.70353 9.54301C6.64263 9.60391 6.59865 9.67941 6.57569 9.7623L5.40709 13.9812C5.35903 14.1542 5.40787 14.3394 5.53473 14.4665C5.66179 14.5933 5.84702 14.6422 6.01999 14.5943L10.2389 13.4255C10.3218 13.4025 10.3973 13.3586 10.4582 13.2977L19.3445 4.41099C20.2185 3.53503 20.2185 2.11699 19.3445 1.24103L18.76 0.656534ZM7.78885 9.86678L15.0618 2.59369L17.4073 4.93925L10.1342 12.2123L7.78885 9.86678ZM7.32032 10.807L9.19424 12.6811L6.60215 13.3992L7.32032 10.807ZM18.6401 3.70664L18.1119 4.2349L15.7661 1.88915L16.2946 1.36088C16.7808 0.874649 17.5692 0.874649 18.0554 1.36088L18.6401 1.94538C19.1256 2.4322 19.1256 3.22002 18.6401 3.70664Z" fill="#000"/>
</svg>
