<svg width="30" height="30" viewBox="0 0 30 30" fill="none" xmlns="http://www.w3.org/2000/svg">
<rect width="30" height="30" rx="5" fill="#173AF1"/>
<path d="M22.2169 6.37332C21.2088 5.36706 19.5764 5.36706 18.5684 6.37332L17.6551 7.29161L7.93323 17.0083L7.91256 17.0291C7.90756 17.0342 7.90756 17.0395 7.90223 17.0395C7.8919 17.055 7.87641 17.0703 7.86624 17.0858C7.86624 17.091 7.86091 17.091 7.86091 17.0961C7.85058 17.1116 7.84558 17.122 7.83508 17.1375C7.83008 17.1426 7.83008 17.1476 7.82492 17.153C7.81975 17.1685 7.81459 17.1788 7.80926 17.1943C7.80926 17.1993 7.80425 17.1993 7.80425 17.2046L5.64726 23.6909C5.58399 23.8756 5.63209 24.0801 5.77107 24.2171C5.86872 24.3135 6.00044 24.3674 6.13748 24.3669C6.19349 24.366 6.24902 24.3572 6.30261 24.3411L12.7839 22.1789C12.7889 22.1789 12.7889 22.1789 12.7942 22.1739C12.8106 22.1691 12.8262 22.1622 12.8406 22.1531C12.8446 22.1526 12.8482 22.1509 12.8511 22.1481C12.8664 22.1378 12.8871 22.1273 12.9026 22.117C12.9179 22.1068 12.9335 22.0913 12.949 22.081C12.9542 22.0756 12.9592 22.0756 12.9592 22.0706C12.9645 22.0655 12.9749 22.0605 12.98 22.05L23.6152 11.4148C24.6215 10.4068 24.6215 8.77437 23.6152 7.76649L22.2169 6.37332ZM12.6188 20.9662L9.0273 17.3749L18.0164 8.38584L21.6078 11.9772L12.6188 20.9662ZM8.52142 18.3295L11.659 21.4669L6.94762 23.0356L8.52142 18.3295ZM22.8877 10.6923L22.3407 11.2445L18.749 7.65286L19.3014 7.10082C19.9056 6.49712 20.8849 6.49712 21.4892 7.10082L22.8927 8.50432C23.4924 9.11125 23.4901 10.0883 22.8877 10.6923Z" fill="white"/>
</svg>
