<svg width="20" height="20" viewBox="0 0 20 20" fill="none" xmlns="http://www.w3.org/2000/svg">
<path d="M15 1.81818C15.2886 1.81818 15.57 1.84727 15.8463 1.89091C14.1618 0.672727 12.1291 0 9.99998 0C7.87044 0 5.83726 0.672727 4.15271 1.89091C4.42953 1.84727 4.71135 1.81818 4.99998 1.81818H15Z" fill="#666666"/>
<path d="M19.98 9.48819C19.1286 11.3936 17.2186 12.7273 15 12.7273H5C2.78136 12.7273 0.871364 11.3936 0.02 9.48819C0.0113636 9.65864 0 9.8291 0 10C0 15.5141 4.48591 20 10 20C15.5141 20 20 15.5141 20 10C20 9.8291 19.9886 9.65864 19.98 9.48819Z" fill="#666666"/>
<path d="M4.99998 11.8182H15C17.5063 11.8182 19.5454 9.77908 19.5454 7.27272C19.5454 4.76636 17.5063 2.72726 15 2.72726H4.99998C2.49362 2.72726 0.454529 4.76636 0.454529 7.27272C0.454529 9.77908 2.49362 11.8182 4.99998 11.8182ZM12.0695 7.77499L15.7059 5.95681C15.9313 5.84545 16.2036 5.93545 16.3159 6.15999C16.4282 6.38454 16.3373 6.65772 16.1127 6.76999L12.4763 8.58817C12.4109 8.6209 12.3413 8.63636 12.2732 8.63636C12.1063 8.63636 11.9459 8.54454 11.8659 8.38499C11.7536 8.16045 11.845 7.88772 12.0695 7.77499ZM3.68407 6.16045C3.79635 5.9359 4.06907 5.8459 4.29407 5.95726L7.93044 7.77545C8.15498 7.88772 8.24589 8.1609 8.13362 8.38545C8.05407 8.54454 7.89362 8.63636 7.7268 8.63636C7.65862 8.63636 7.58907 8.6209 7.52407 8.58863L3.88771 6.77045C3.66317 6.65772 3.5718 6.38499 3.68407 6.16045Z" fill="#666666"/>
</svg>
