<svg width="30" height="30" viewBox="0 0 25 25" fill="none" xmlns="http://www.w3.org/2000/svg">
<path d="M12.5 0C5.60722 0 0 5.60722 0 12.5C0 19.3928 5.60722 25 12.5 25C19.3928 25 25 19.3928 25 12.5C25 5.60722 19.3928 0 12.5 0Z" fill="#173AF1"/>
<path d="M17.9791 13.552H13.552V17.9791C13.552 18.5542 13.0854 19.0207 12.5104 19.0207C11.9353 19.0207 11.4688 18.5542 11.4688 17.9791V13.552H7.0416C6.46654 13.552 6 13.0854 6 12.5104C6 11.9353 6.46654 11.4688 7.0416 11.4688H11.4688V7.0416C11.4688 6.46654 11.9353 6 12.5104 6C13.0854 6 13.552 6.46654 13.552 7.0416V11.4688H17.9791C18.5542 11.4688 19.0207 11.9353 19.0207 12.5104C19.0207 13.0854 18.5542 13.552 17.9791 13.552Z" fill="white"/>
</svg>
