<svg width="20" height="16" viewBox="0 0 20 16" fill="none" xmlns="http://www.w3.org/2000/svg">
<path d="M12.8368 2.89717V1.3526C12.8368 0.605606 12.2312 0 11.4842 0H1.3526C0.605606 0 0 0.605606 0 1.3526V6.54398C0 7.29104 0.605606 7.89658 1.3526 7.89658H2.34808V5.26261C2.34808 3.95835 3.40926 2.89717 4.71352 2.89717H12.8368V2.89717Z" fill="#666666"/>
<path d="M16.1977 6.80724V5.26267C16.1977 4.5156 15.5921 3.91006 14.8451 3.91006H4.7136C3.9666 3.91006 3.36099 4.51567 3.36099 5.26267V10.454C3.36099 11.201 3.9666 11.8066 4.7136 11.8066H6.1504V9.17267C6.1504 7.86835 7.21158 6.80724 8.51584 6.80724H16.1977V6.80724Z" fill="#666666"/>
<path d="M18.6474 7.82007H8.51584C7.76885 7.82007 7.16324 8.42568 7.16324 9.17267V14.3641C7.16324 15.1111 7.76885 15.7167 8.51584 15.7167H18.6474C19.3945 15.7167 20 15.1111 20 14.3641V9.17267C20 8.42561 19.3944 7.82007 18.6474 7.82007Z" fill="#666666"/>
</svg>
