<svg width="20" height="15" viewBox="0 0 20 15" fill="none" xmlns="http://www.w3.org/2000/svg">
<path d="M19.9165 3.50014L17.4166 0.166835C17.338 0.0618358 17.2143 0 17.0833 0H2.91669C2.78568 0 2.66196 0.0618358 2.58345 0.166835L0.0834599 3.50014C-0.0353677 3.65803 -0.0264224 3.87815 0.104632 4.02584L9.68791 14.8587C9.76686 14.9482 9.8808 14.9995 10 14.9995C10.1192 14.9995 10.2332 14.9482 10.3121 14.8587L19.8954 4.02584C20.0264 3.87815 20.0353 3.65803 19.9165 3.50014ZM2.57568 2.67741C2.04544 3.43342 1.80642 4.07146 1.72955 4.60529L0.953808 3.72842L3.12501 0.833316H5.12914C4.11997 1.23023 3.18091 1.81433 2.57568 2.67741ZM9.99998 13.9542L7.99933 11.6926C8.05015 11.693 8.09534 11.6938 8.14901 11.6938C9.26998 11.6938 10.9876 11.6118 12.4306 11.2067L9.99998 13.9542ZM14.1813 9.05718C13.897 10.1027 11.9322 10.6059 9.90924 10.7832C9.7042 10.0164 9.07612 8.33332 7.49999 8.33332C6.528 8.33332 5.97082 8.76457 5.68961 9.08175L4.20293 7.40125C4.57196 7.46645 4.9761 7.49996 5.41219 7.49996C5.41383 7.49996 5.41543 7.49996 5.41707 7.49996C11.8282 7.4902 13.6869 8.16605 14.117 8.72879C14.1975 8.83378 14.2163 8.92898 14.1813 9.05718ZM17.208 5.80626C16.3002 4.1708 13.7114 4.16666 9.99998 4.16666C7.49999 4.16666 7.49999 3.32233 7.49999 2.91667C7.49999 1.97062 7.93417 0.84148 10.0016 0.833355H10.0635C13.389 0.846363 14.1573 2.95983 14.1878 3.04772C14.2443 3.21823 14.4038 3.33338 14.5833 3.33338H17.0833C17.3136 3.33338 17.4999 3.14702 17.4999 2.9167V1.66675L19.0462 3.72846L17.208 5.80626Z" fill="#666666"/>
</svg>
