<svg width="51" height="53" viewBox="0 0 61 63" fill="none" xmlns="http://www.w3.org/2000/svg">
<g clip-path="url(#clip0)">
<path d="M41.01 16.99L30.19 27.78L19.36 16.99L15.83 20.53L26.65 31.31L15.83 42.09L19.36 45.64L30.19 34.84L41.01 45.64L44.54 42.09L33.73 31.31L44.54 20.53L41.01 16.99Z" fill="black"/>
<path d="M60.37 31.28C59.71 -0.799984 17.04 -12.72 0.610002 17.28L3.07 19.03C1.85275 21.5662 0.991295 24.2583 0.510003 27.03C-0.267056 31.1633 -0.171925 35.4134 0.789292 39.5079C1.75051 43.6023 3.5566 47.4507 6.09181 50.8064C8.62702 54.1622 11.8354 56.9512 15.5113 58.9947C19.1872 61.0382 23.2496 62.2911 27.4379 62.6732C31.6263 63.0552 35.8482 62.5579 39.8332 61.2132C43.8181 59.8684 47.4782 57.7059 50.5787 54.8642C53.6792 52.0225 56.1517 48.5644 57.8378 44.7114C59.5239 40.8585 60.3864 36.6957 60.37 32.49C60.37 32.08 60.37 31.7 60.37 31.28ZM55.44 31.85C55.44 32.19 55.44 32.54 55.44 32.85C55.44 32.91 55.44 32.97 55.44 33.03C55.3094 36.2377 54.6331 39.3996 53.44 42.38C51.4436 46.8953 48.2224 50.7612 44.1414 53.5396C40.0604 56.318 35.2828 57.8978 30.35 58.1C21.92 58.38 14.45 53.96 9.81001 47.33C8.36058 45.4465 7.20108 43.3567 6.37 41.13C6.0291 40.2237 5.76484 39.2905 5.58 38.34C5.21007 36.6719 5.02231 34.9686 5.02001 33.26C5.02676 29.3723 5.96277 25.5426 7.75 22.09L5.12 20.4L7.85001 16.18C8.68741 14.8687 9.6557 13.6458 10.74 12.53C13.8657 9.43189 17.7471 7.20487 21.9992 6.06993C26.2513 4.93499 30.7262 4.93157 34.98 6.06002C40.2996 7.32302 45.1003 10.1958 48.7277 14.2866C52.3551 18.3775 54.6327 23.4875 55.25 28.92V29.18C55.25 29.31 55.25 29.43 55.25 29.56C55.25 29.9 55.25 30.25 55.32 30.56C55.32 30.7 55.32 30.83 55.32 30.97C55.32 31.11 55.32 31.39 55.32 31.6L55.44 31.85Z" fill="black"/>
</g>
<defs>
<clipPath id="clip0">
<rect width="60.37" height="62.63" fill="white"/>
</clipPath>
</defs>
</svg>
