<svg width="40" height="50" viewBox="0 0 40 50" fill="none" xmlns="http://www.w3.org/2000/svg">
<g clip-path="url(#clip0)">
<path d="M24.8431 31.229C24.8428 31.5714 24.7718 31.9101 24.6346 32.2239C24.4974 32.5377 24.297 32.8198 24.0458 33.0525V38.0655C24.0458 38.5252 23.8631 38.9661 23.5381 39.2912C23.213 39.6163 22.7721 39.7989 22.3124 39.7989C21.8526 39.7989 21.4117 39.6163 21.0867 39.2912C20.7616 38.9661 20.579 38.5252 20.579 38.0655V33.0525C20.3278 32.8198 20.1273 32.5377 19.9901 32.2239C19.8529 31.9101 19.7819 31.5714 19.7816 31.229C19.8154 30.5852 20.095 29.979 20.5626 29.5352C21.0303 29.0915 21.6504 28.8441 22.295 28.8441C22.9397 28.8441 23.5598 29.0915 24.0274 29.5352C24.4951 29.979 24.7746 30.5852 24.8085 31.229H24.8431ZM40 19.1437V49.6932H4.6386V22.4857H0.020813V19.1506H31.8045V13.68C31.8045 8.72942 28.0049 3.43214 22.347 3.43214C16.6892 3.43214 12.8757 8.72942 12.8757 13.68V13.791H9.40892V13.68C9.40892 6.26105 15.3094 0 22.2916 0C29.2737 0 35.1742 6.24025 35.1742 13.68V19.1437H40ZM36.5332 22.6105H8.09153V46.3027H36.5679L36.5332 22.6105Z" fill="black"/>
</g>
<defs>
<clipPath id="clip0">
<rect width="40" height="49.6932" fill="white"/>
</clipPath>
</defs>
</svg>
