<svg width="50" height="36" viewBox="0 0 50 36" fill="none" xmlns="http://www.w3.org/2000/svg">
<g clip-path="url(#clip0)">
<path d="M41.8561 5.84457L37.1869 0H26.4033L21.7983 5.78035H18.7926V1.2203H9.70456V5.78035H0V8.99165H4.31599V35.3243H50V5.83173L41.8561 5.84457ZM12.9159 4.43802H15.5877V5.78035H12.9159V4.43802ZM46.7887 32.113H7.5273V8.99165H23.3719L27.9705 3.2113H35.639L40.3147 9.05588H46.7887V32.113ZM31.58 8.79255C29.3872 8.79255 27.2437 9.44286 25.4206 10.6612C23.5974 11.8796 22.1766 13.6113 21.3378 15.6372C20.4989 17.6632 20.2798 19.8925 20.708 22.043C21.1363 24.1935 22.1927 26.1687 23.7437 27.7188C25.2946 29.2689 27.2705 30.3242 29.4212 30.7512C31.572 31.1782 33.8011 30.9577 35.8266 30.1177C37.8521 29.2777 39.583 27.8559 40.8003 26.032C42.0176 24.2082 42.6667 22.0643 42.6654 19.8715C42.662 16.9331 41.4928 14.1162 39.4144 12.039C37.336 9.96184 34.5184 8.79425 31.58 8.79255V8.79255ZM31.58 27.7457C30.0226 27.7457 28.5002 27.2839 27.2053 26.4186C25.9104 25.5534 24.9012 24.3236 24.3052 22.8848C23.7093 21.446 23.5533 19.8628 23.8571 18.3354C24.161 16.808 24.9109 15.4049 26.0121 14.3037C27.1133 13.2025 28.5164 12.4526 30.0438 12.1487C31.5712 11.8449 33.1545 12.0008 34.5933 12.5968C36.0321 13.1928 37.2618 14.202 38.1271 15.4969C38.9923 16.7918 39.4541 18.3142 39.4541 19.8715C39.4524 21.9594 38.6222 23.9612 37.1459 25.4375C35.6696 26.9138 33.6678 27.744 31.58 27.7457ZM31.58 13.3654C30.2914 13.3642 29.0313 13.7452 27.9594 14.4603C26.8874 15.1754 26.0517 16.1925 25.558 17.3828C25.0643 18.573 24.9348 19.883 25.1858 21.1469C25.4369 22.4108 26.0573 23.5718 26.9685 24.483C27.8797 25.3942 29.0407 26.0146 30.3046 26.2657C31.5685 26.5167 32.8785 26.3872 34.0687 25.8935C35.259 25.3998 36.2761 24.5641 36.9912 23.4921C37.7063 22.4202 38.0873 21.1602 38.0861 19.8715C38.0827 18.1471 37.3961 16.4942 36.1767 15.2748C34.9573 14.0554 33.3044 13.3688 31.58 13.3654ZM31.58 23.1728C30.9268 23.174 30.2879 22.9815 29.7442 22.6195C29.2004 22.2576 28.7763 21.7424 28.5255 21.1393C28.2746 20.5362 28.2083 19.8723 28.335 19.2315C28.4616 18.5907 28.7755 18.0018 29.237 17.5395C29.6984 17.0772 30.2866 16.7621 30.9271 16.6342C31.5677 16.5063 32.2318 16.5713 32.8354 16.821C33.439 17.0707 33.9549 17.4938 34.318 18.0368C34.681 18.5798 34.8748 19.2184 34.8748 19.8715C34.8748 20.746 34.5278 21.5847 33.9101 22.2036C33.2924 22.8225 32.4544 23.1711 31.58 23.1728V23.1728ZM13.1342 10.2312C12.245 10.2312 11.3758 10.4949 10.6365 10.9889C9.89715 11.4829 9.32091 12.1851 8.98063 13.0066C8.64035 13.8281 8.55132 14.732 8.72479 15.6041C8.89827 16.4762 9.32645 17.2773 9.9552 17.9061C10.584 18.5348 11.385 18.963 12.2571 19.1365C13.1292 19.3099 14.0332 19.2209 14.8547 18.8806C15.6762 18.5404 16.3784 17.9641 16.8724 17.2248C17.3664 16.4855 17.6301 15.6162 17.6301 14.727C17.6216 13.5373 17.1453 12.3986 16.304 11.5573C15.4627 10.716 14.324 10.2396 13.1342 10.2312ZM13.1342 16.0758C12.8802 16.0758 12.6318 16.0005 12.4206 15.8593C12.2094 15.7182 12.0447 15.5175 11.9475 15.2828C11.8503 15.0481 11.8248 14.7898 11.8744 14.5407C11.924 14.2915 12.0463 14.0626 12.2259 13.883C12.4056 13.7033 12.6345 13.581 12.8836 13.5314C13.1328 13.4819 13.3911 13.5073 13.6258 13.6045C13.8605 13.7017 14.0611 13.8664 14.2023 14.0776C14.3434 14.2889 14.4188 14.5372 14.4188 14.7913C14.4058 15.126 14.2657 15.4432 14.027 15.6783C13.7884 15.9133 13.4691 16.0486 13.1342 16.0565V16.0758Z" fill="black"/>
</g>
<defs>
<clipPath id="clip0">
<rect width="50" height="35.3243" fill="white"/>
</clipPath>
</defs>
</svg>
