<svg width="50" height="48" viewBox="0 0 50 48" fill="none" xmlns="http://www.w3.org/2000/svg">
<g clip-path="url(#clip0)">
<path d="M39.704 0.0832781L39.6415 0.020752L37.8491 1.81317C36.7884 1.2127 35.5588 0.980429 34.3522 1.15262C33.1456 1.32481 32.03 1.89177 31.1797 2.76495L19.7374 14.1794L19.6818 14.242L21.898 16.4651L33.3959 4.94642C33.6576 4.68831 33.9737 4.49197 34.3211 4.37177C34.6685 4.25156 35.0384 4.21054 35.4036 4.25168L5.70376 33.9377L0.0833673 47.3252L0 47.5197L13.2347 42.0869L13.5543 41.9549L45.3661 10.15L47.7838 12.5885L49.993 10.3514L39.704 0.0832781ZM9.89996 40.0861L5.82882 41.7673L7.54481 37.6753L9.89996 40.0861ZM30.8879 20.2306L12.665 38.4117L9.19133 34.8617L27.3586 16.6944L30.8879 20.2306ZM43.143 7.97546L33.1041 17.9727L29.6304 14.499L39.6415 4.43926L43.143 7.97546Z" fill="black"/>
</g>
<defs>
<clipPath id="clip0">
<rect width="50" height="47.5198" fill="white"/>
</clipPath>
</defs>
</svg>
