<svg width="80" height="80" viewBox="0 0 64 66" fill="none" xmlns="http://www.w3.org/2000/svg">
<g clip-path="url(#clip0)">
<path d="M63.29 32.8098C62.6 -0.870213 17.85 -13.3702 0.619995 18.1298L3.18999 19.9798C1.91254 22.6389 1.01059 25.4625 0.509995 28.3698C0.17265 30.2444 0.00198892 32.1451 0 34.0498C1.76948e-07 42.4465 3.33559 50.4994 9.27299 56.4368C15.2104 62.3742 23.2632 65.7098 31.66 65.7098C40.0568 65.7098 48.1096 62.3742 54.047 56.4368C59.9844 50.4994 63.32 42.4465 63.32 34.0498C63.32 33.6431 63.31 33.2298 63.29 32.8098ZM58.12 33.4098C58.12 33.7698 58.12 34.1298 58.12 34.4898V34.6698C57.9697 38.0387 57.2425 41.3568 55.97 44.4798C54.5327 47.791 52.4408 50.7775 49.82 53.2598C44.9729 57.9919 38.5304 60.7387 31.76 60.9598C22.92 61.2598 15.09 56.6198 10.22 49.6698C8.71448 47.6824 7.52077 45.477 6.68 43.1298C6.32008 42.1821 6.04239 41.2051 5.85 40.2098C5.46409 38.4628 5.26961 36.6789 5.27 34.8898C5.26578 30.7971 6.24675 26.7635 8.13 23.1298L5.37 21.3498L8.23 16.9398C9.09631 15.5638 10.1016 14.2804 11.23 13.1098C14.5063 9.85838 18.5764 7.52094 23.0358 6.32976C27.4953 5.13859 32.1888 5.13515 36.65 6.31979C42.2327 7.64612 47.2702 10.6627 51.0751 14.958C54.88 19.2532 57.2668 24.6178 57.91 30.3198V30.5898C57.91 30.7198 57.91 30.8498 57.91 30.9798C57.91 31.3398 57.97 31.7098 57.99 32.0898C57.99 32.2298 57.99 32.3698 57.99 32.5098C57.99 32.6498 57.99 32.9498 57.99 33.1798L58.12 33.4098Z" fill="black"/>
<path d="M37 33C37 35.7614 34.7614 38 32 38C29.2386 38 27 35.7614 27 33C27 30.2386 29.2386 28 32 28C34.7614 28 37 30.2386 37 33Z" fill="black"/>
<path class="rotate-slow-360" d="M32 33.0211V9" stroke="black" stroke-width="6"/>
<path class="rotate-speed-360" d="M32 33H52.02" stroke="black" stroke-width="6"/>
</g>
<defs>
<clipPath id="clip0">
<rect width="63.31" height="65.68" fill="white"/>
</clipPath>
</defs>
</svg>
