<svg width="40" height="43" viewBox="0 0 40 43" fill="none" xmlns="http://www.w3.org/2000/svg">
<g clip-path="url(#clip0)">
<path d="M40.0065 19.9966C39.9736 18.7282 39.4546 17.521 38.5568 16.6244C37.659 15.7278 36.451 15.2104 35.1826 15.1792H21.5485C22.4444 12.4978 23.626 8.08945 22.8469 5.28471C21.6458 0.986707 18.9515 -0.227382 17.0687 0.0323162C16.0738 0.194774 15.1727 0.715565 14.5352 1.49651C13.8978 2.27746 13.5681 3.26462 13.6082 4.27189C13.6082 11.498 5.70037 19.9706 1.64259 19.9706H-0.0259705V42.3112H3.22026V39.1883C4.95887 39.5708 6.66173 40.1008 8.31034 40.7724C10.7274 41.845 13.3401 42.4064 15.9844 42.4215H29.5666C32.1182 42.4215 33.5855 40.9607 33.5855 38.4027C33.5882 38.009 33.5313 37.6172 33.4167 37.2406C34.1788 36.9897 34.8413 36.5028 35.3082 35.8503C35.7751 35.1978 36.0222 34.4136 36.0136 33.6113C36.0247 32.9035 35.8991 32.2003 35.6436 31.5402C36.4576 31.1429 37.1468 30.5294 37.6358 29.7668C38.1247 29.0042 38.3945 28.1218 38.4158 27.2162C38.405 26.3701 38.1304 25.5485 37.6303 24.8659C38.3841 24.3009 38.9927 23.5646 39.4058 22.718C39.819 21.8713 40.0249 20.9385 40.0065 19.9966V19.9966ZM35.1826 22.3728H32.67V25.6191C34.0919 25.6191 35.1631 26.5735 35.1631 27.1902C35.1316 27.5976 34.9551 27.9801 34.6656 28.2683C34.3761 28.5566 33.9929 28.7316 33.5855 28.7614H31.1897V32.0076C32.4882 32.0076 32.7609 32.6114 32.7609 33.5853C32.7609 34.319 31.4624 34.3579 31.1897 34.3579H28.794V37.6041C29.0537 37.6041 30.3652 37.6431 30.3652 38.3767C30.3785 38.597 30.3476 38.8178 30.2743 39.026C30.0676 39.1056 29.846 39.1388 29.6251 39.1234H16.0104C13.2511 39.1234 11.5955 38.4741 9.51793 37.6885C7.48528 36.8674 5.37554 36.2519 3.22026 35.8512V22.9961C9.15436 21.4704 16.8544 12.2966 16.8544 4.27189C16.8544 3.72652 17.1141 3.30451 17.5037 3.25257C18.0295 3.16817 19.0813 3.90182 19.7176 6.16119C20.3538 8.42056 18.8021 13.4912 17.6984 16.192L16.7895 18.4254H35.1826C35.59 18.4553 35.9733 18.6302 36.2627 18.9185C36.5522 19.2068 36.7287 19.5893 36.7603 19.9966C36.7603 20.8017 36.2863 22.3728 35.1826 22.3728V22.3728Z" fill="black"/>
</g>
<defs>
<clipPath id="clip0">
<rect width="40" height="42.3957" fill="white"/>
</clipPath>
</defs>
</svg>
