<svg width="19" height="21" viewBox="0 0 61 63" fill="none" xmlns="http://www.w3.org/2000/svg">
<g clip-path="url(#clip0)">
<path d="M30.18 18.6399C29.7884 18.6349 29.3999 18.7105 29.0387 18.8619C28.6774 19.0133 28.3511 19.2372 28.08 19.5199C27.798 19.7936 27.5746 20.1218 27.4233 20.4845C27.272 20.8472 27.1961 21.2369 27.2 21.6299C27.2101 22.215 27.3911 22.7845 27.7208 23.268C28.0505 23.7516 28.5144 24.1282 29.0554 24.3514C29.5964 24.5746 30.1909 24.6347 30.7656 24.5242C31.3404 24.4138 31.8702 24.1377 32.29 23.7299C32.5708 23.4573 32.7935 23.1308 32.9447 22.7699C33.096 22.409 33.1726 22.0212 33.17 21.6299C33.1717 21.2372 33.0946 20.8482 32.9435 20.4858C32.7924 20.1234 32.5702 19.795 32.29 19.5199C32.0166 19.2374 31.6885 19.0137 31.3257 18.8624C30.9629 18.7111 30.5731 18.6353 30.18 18.6399Z" fill="#173AF1"/>
<path d="M32.69 26.97H27.69V43.99H32.69V26.97Z" fill="#173AF1"/>
<path d="M60.37 31.2799C59.71 -0.800106 17.04 -12.7201 0.610005 17.2799L3.07 19.0399C1.08852 23.2359 0.0638429 27.8196 0.0700044 32.4599C0.213991 40.3703 3.45748 47.9081 9.1026 53.4514C14.7477 58.9947 22.3433 62.1005 30.255 62.1005C38.1667 62.1005 45.7623 58.9947 51.4074 53.4514C57.0525 47.9081 60.296 40.3703 60.44 32.4599C60.37 32.0799 60.37 31.6799 60.37 31.2799ZM55.37 31.8199C55.37 32.1699 55.37 32.5099 55.37 32.8199C55.3748 32.8765 55.3748 32.9333 55.37 32.9899C55.2444 36.1982 54.5678 39.3609 53.37 42.3399C51.3736 46.8552 48.1524 50.7211 44.0714 53.4995C39.9904 56.2779 35.2128 57.8577 30.28 58.0599C21.85 58.3399 14.38 53.9199 9.74001 47.2899C8.31465 45.4168 7.17865 43.3403 6.37001 41.1299C6.02953 40.2227 5.76201 39.2897 5.57 38.3399C5.20336 36.6715 5.01895 34.9681 5.02001 33.2599C5.02211 29.3716 5.95838 25.5408 7.75 22.0899L5.11001 20.3999L7.84001 16.1899C8.67972 14.8772 9.64781 13.6511 10.73 12.5299C13.8562 9.43261 17.7377 7.20617 21.9896 6.07128C26.2415 4.93639 30.7161 4.93247 34.97 6.0599C40.2917 7.32217 45.0943 10.196 48.722 14.2891C52.3498 18.3822 54.626 23.4951 55.24 28.9299C55.24 29.0099 55.24 29.0999 55.24 29.1799V29.5599C55.24 29.9099 55.3 30.2599 55.31 30.6099C55.31 30.7499 55.31 30.8899 55.31 31.0199C55.31 31.1499 55.31 31.4399 55.31 31.6499C55.31 31.8599 55.37 31.8199 55.37 31.8199Z" fill="#173AF1"/>
</g>
<defs>
<clipPath id="clip0">
<rect width="60.37" height="62.63" fill="white"/>
</clipPath>
</defs>
</svg>
