<svg width="40" height="44" viewBox="0 0 40 44" fill="none" xmlns="http://www.w3.org/2000/svg">
<g clip-path="url(#clip0)">
<path d="M40 43.8126L39.9498 6.68567H31.2576V0H0.0182495V2.28024H3.0829V37.1315H11.7661V43.8126H40ZM29.0138 34.8512H5.34489V2.28024H28.9728L29.0138 34.8512ZM31.2621 8.96135H37.6742L37.7152 41.5369H14.0463V37.1315H31.2986L31.2621 8.96135ZM7.44728 14.3062H10.3204C12.0032 14.3062 13.0293 15.3415 13.0293 16.8282C13.0293 18.3149 12.0032 19.3456 10.3204 19.3456H9.23955V22.5379H7.44728V14.3062ZM10.3113 17.7676C10.4404 17.7766 10.5701 17.759 10.6922 17.7157C10.8142 17.6725 10.9261 17.6046 11.0208 17.5162C11.1155 17.4279 11.191 17.321 11.2426 17.2023C11.2942 17.0835 11.3209 16.9554 11.3209 16.8259C11.3209 16.6964 11.2942 16.5683 11.2426 16.4495C11.191 16.3308 11.1155 16.2239 11.0208 16.1356C10.9261 16.0473 10.8142 15.9794 10.6922 15.9361C10.5701 15.8928 10.4404 15.8752 10.3113 15.8842H9.23955V17.7676H10.3113ZM13.9596 14.3062H16.6595C19.2498 14.3062 20.8505 15.907 20.8505 18.4107C20.8505 20.9144 19.2498 22.5151 16.6595 22.5151H13.9505L13.9596 14.3062ZM16.6595 20.8551C18.2237 20.8551 19.0583 19.943 19.0583 18.4289C19.0583 16.9148 18.2237 16.0027 16.6595 16.0027H15.7474V20.8551H16.6595ZM23.7054 16.0027V17.8999H27.2033V19.268H23.7054V22.5562H21.9086V14.3062H27.5499V16.0027H23.7054Z" fill="black"/>
</g>
<defs>
<clipPath id="clip0">
<rect width="40" height="43.8126" fill="white"/>
</clipPath>
</defs>
</svg>
