<svg width="50" height="30" viewBox="0 0 50 30" fill="none" xmlns="http://www.w3.org/2000/svg">
<g clip-path="url(#clip0)">
<path d="M48.5103 0H0V2.97938H4.00429V21.827V29.6449V29.7164H50V0H48.5103ZM7.02538 2.97938H17.3043V4.85043H7.02538V2.97938ZM20.2836 2.97938H33.6372V4.85043H20.2836V2.97938ZM36.6166 2.97938H46.9968V4.85043H36.6166V2.97938ZM6.98367 7.83577H47.0206V21.827H6.98367V7.83577ZM6.98367 24.8063H17.3043V26.6655H6.98367V24.8063ZM46.9968 24.8063V26.6655H36.6166V24.8063H46.9968ZM33.6372 26.6655H20.2836V24.8063H33.6372V26.6655ZM22.4228 9.20033V21.0046L33.7862 15.0936L22.4228 9.20033ZM25.4022 14.1104L27.3329 15.1174L25.4022 16.1185V14.1104Z" fill="black"/>
</g>
<defs>
<clipPath id="clip0">
<rect width="50" height="29.7164" fill="white"/>
</clipPath>
</defs>
</svg>
