<svg width="30" height="55" viewBox="0 0 30 55" fill="none" xmlns="http://www.w3.org/2000/svg">
<g clip-path="url(#clip0)">
<path d="M30 24.0698V18.2302H26.5116V24.0698C26.5116 27.1228 25.2988 30.0509 23.14 32.2097C20.9811 34.3686 18.0531 35.5814 15 35.5814C11.9469 35.5814 9.0189 34.3686 6.86005 32.2097C4.7012 30.0509 3.48837 27.1228 3.48837 24.0698V18.2302H0V24.0698C0.00545365 27.7434 1.35761 31.2876 3.80049 34.0313C6.24337 36.7751 9.60743 38.528 13.2558 38.9581V45.4605L6.85116 51.2861H2.16977V54.7744H26.8605L16.7512 45.4605V38.9581C20.3983 38.5264 23.7607 36.7728 26.2021 34.0292C28.6436 31.2857 29.9947 27.7424 30 24.0698V24.0698ZM17.9233 51.2791H12.0349L15 48.614L17.9233 51.2791ZM14.5326 33.7186H15.4674C17.9031 33.7168 20.2384 32.7479 21.9601 31.0249C23.6817 29.302 24.6488 26.9659 24.6488 24.5302V9.1814C24.647 6.74691 23.6791 4.41265 21.9576 2.69121C20.2362 0.969763 17.9019 0.00184781 15.4674 0H14.5326C12.0981 0.00184781 9.76382 0.969763 8.04238 2.69121C6.32093 4.41265 5.35301 6.74691 5.35117 9.1814V24.5302C5.35117 26.9659 6.31827 29.302 8.03991 31.0249C9.76156 32.7479 12.0969 33.7168 14.5326 33.7186V33.7186ZM14.5326 3.48837H15.4674C16.9768 3.49022 18.4237 4.09061 19.491 5.15786C20.5582 6.22511 21.1586 7.67208 21.1605 9.1814V9.76744H16.5V13.2558H21.1605V15.1256H16.5V18.614H21.1605V20.4628H16.5V23.9512H21.1605V24.5372C21.1605 26.0477 20.5609 27.4965 19.4934 28.5653C18.426 29.634 16.978 30.2354 15.4674 30.2372H14.5326C13.022 30.2354 11.574 29.634 10.5066 28.5653C9.43911 27.4965 8.83954 26.0477 8.83954 24.5372V23.9512H13.6116V20.4628H8.83954V18.614H13.6116V15.1256H8.83954V13.2558H13.6047V9.76744H8.83954V9.1814C8.84138 7.67208 9.44178 6.22511 10.509 5.15786C11.5763 4.09061 13.0232 3.49022 14.5326 3.48837V3.48837Z" fill="black"/>
</g>
<defs>
<clipPath id="clip0">
<rect width="30" height="54.7744" fill="white"/>
</clipPath>
</defs>
</svg>
