<svg width="40" height="44" viewBox="0 0 40 44" fill="none" xmlns="http://www.w3.org/2000/svg">
<g clip-path="url(#clip0)">
<path d="M40 43.8126L39.9498 6.68567H31.2576V0H0.0182495V2.28024H3.08289V37.1315H11.7661V43.8126H40ZM31.2986 37.1315V35.7633H35.9822V33.4831H31.294V31.4856H35.9822V29.2053H31.2849V27.217H35.9777V24.9367H31.2804V22.9529H35.9777V20.6727H31.2758V18.6889H35.9822V16.4086H31.2712V14.4248H35.9822V12.1446H31.2621V8.95223H37.6787L37.7198 41.5278H14.0463V37.1223L31.2986 37.1315ZM5.34489 34.8512V2.28024H28.9728L29.0138 34.8512H5.34489ZM35.9777 40.2235H15.4555V37.9432H35.9777V40.2235ZM9.18938 12.6508H12.1446L13.7727 20.0296L13.9688 21.6805H14.1831L14.3838 20.016L15.9799 12.6508H19.0765L20.7411 20.0296L20.9189 21.6805H21.1333L21.3294 20.016L22.8663 12.6508H25.9127L22.921 25.183H19.2726L17.6582 17.1657H17.4439L15.834 25.183H12.1856L9.18938 12.6508Z" fill="black"/>
</g>
<defs>
<clipPath id="clip0">
<rect width="40" height="43.8126" fill="white"/>
</clipPath>
</defs>
</svg>
