<svg width="18" height="18" viewBox="0 0 18 18" fill="none" xmlns="http://www.w3.org/2000/svg">
<path d="M16.8654 13.8216C15.8526 14.8344 14.875 15.8119 13.8649 16.8193C13.7891 16.7462 13.6889 16.6541 13.5941 16.5594C13.15 16.1152 12.7032 15.6765 12.2645 15.227C12.1426 15.1025 12.0478 15.0672 11.8718 15.1377C11.0973 15.4382 11.0946 15.4328 11.0946 16.2804C11.0946 16.841 11.0946 17.3988 11.0946 17.9756C9.68918 17.9756 8.31894 17.9756 6.89725 17.9756C6.89725 17.7996 6.89725 17.6317 6.89725 17.4638C6.89725 16.8681 6.89183 16.275 6.89995 15.6793C6.90266 15.5059 6.83767 15.4328 6.68061 15.3435C6.12276 15.0212 5.71656 15.1214 5.31578 15.6332C4.97187 16.0719 4.53588 16.4402 4.16218 16.8166C3.16022 15.8147 2.17722 14.8317 1.16444 13.8162C1.55439 13.4262 1.95788 12.9767 2.41282 12.5867C2.80277 12.2536 2.95712 11.9395 2.69445 11.4467C2.54551 11.1677 2.51031 10.832 2.41823 10.5016C1.62209 10.5016 0.823228 10.5016 0 10.5016C0 9.2884 0 8.09689 0 6.87288C0.733865 6.87288 1.4569 6.86204 2.17722 6.87829C2.41823 6.88371 2.5076 6.79434 2.62675 6.58583C2.92734 6.05777 2.83797 5.69219 2.36137 5.31578C1.91726 4.96374 1.54355 4.51963 1.15631 4.13239C2.16097 3.13043 3.14397 2.14744 4.15405 1.14006C4.6442 1.63021 5.16413 2.13119 5.6597 2.65654C5.83571 2.84339 5.97111 2.82985 6.21213 2.77298C6.8133 2.62675 6.96765 2.28554 6.91079 1.70603C6.85663 1.16985 6.90266 0.625545 6.90537 0.0866556C6.90537 0.0676997 6.9162 0.0460358 6.93245 0C8.29998 0 9.67835 0 11.0973 0C11.0973 0.622837 11.0973 1.24838 11.0973 1.87122C11.0973 2.47239 11.0973 2.47239 11.6335 2.69445C11.7825 2.75673 11.9314 2.81902 12.1155 2.89484C12.695 2.31262 13.2773 1.72228 13.8432 1.1536C14.8398 2.15556 15.8228 3.14127 16.8274 4.15135C16.3427 4.63337 15.8255 5.16413 15.2893 5.67865C15.1268 5.83301 15.1539 5.94674 15.2026 6.14984C15.3489 6.78893 15.7145 6.95953 16.3346 6.88912C16.8762 6.82684 17.4313 6.87558 18 6.87558C18 8.09147 18 9.27486 18 10.488C17.1984 10.488 16.405 10.488 15.6278 10.488C15.4599 11.0459 15.3056 11.5658 15.1404 12.1155C15.6982 12.6626 16.2804 13.2421 16.8654 13.8216ZM12.4053 4.47901C11.49 4.10802 10.6586 3.76952 9.76771 3.40665C9.76771 2.76215 9.76771 2.0337 9.76771 1.30525C9.23424 1.30525 8.73326 1.30525 8.21875 1.30525C8.21875 1.84956 8.21875 2.36949 8.21875 2.88672C8.21875 3.48518 8.21875 3.48518 7.65007 3.63141C7.54446 3.65849 7.44155 3.68828 7.34136 3.73161C6.7808 3.98074 6.22296 4.23259 5.58658 4.51963C5.12351 4.04032 4.61441 3.51768 4.08094 2.96796C3.75056 3.30916 3.43373 3.63412 3.11689 3.96179C3.07898 3.9997 3.0492 4.04303 3.01941 4.08094C3.03295 4.11073 3.03566 4.1351 3.0492 4.14864C3.4906 4.59546 3.92658 5.04498 4.37882 5.48097C4.51963 5.61637 4.52776 5.71386 4.43298 5.88988C4.18655 6.35565 3.9672 6.83767 3.75327 7.31969C3.63141 7.59862 3.626 8.01023 3.4229 8.14834C3.20626 8.29457 2.81902 8.18896 2.50489 8.18896C2.10952 8.19167 1.71416 8.18896 1.3215 8.18896C1.3215 8.55183 1.3215 8.85783 1.3215 9.19091C2.08244 9.19091 2.8136 9.19091 3.56913 9.19091C3.70994 10.2958 3.8995 11.3681 4.59004 12.3213C4.05386 12.8467 3.53934 13.3504 3.0492 13.8297C3.41748 14.2034 3.77764 14.5663 4.16489 14.9589C4.65774 14.4552 5.16413 13.938 5.61908 13.4695C6.30691 13.7485 6.95411 14.0138 7.60132 14.2765C8.21604 14.5257 8.21875 14.5229 8.21875 15.1783C8.21875 15.6711 8.21875 16.164 8.21875 16.6487C8.76305 16.6487 9.2559 16.6487 9.77584 16.6487C9.77584 16.034 9.78396 15.441 9.77042 14.8479C9.76501 14.6448 9.83 14.5284 10.0141 14.4498C10.7859 14.1303 11.555 13.8026 12.3863 13.4506C12.8521 13.9218 13.3612 14.4336 13.8405 14.9183C14.2142 14.5554 14.5798 14.1953 14.9698 13.8162C14.4688 13.3179 13.957 12.8088 13.4127 12.2672C14.1682 11.3898 14.3144 10.3093 14.3957 9.1855C14.5257 9.1855 14.6313 9.1855 14.7369 9.1855C15.3001 9.1855 15.8607 9.19091 16.424 9.18008C16.5133 9.17737 16.6758 9.09614 16.6812 9.03927C16.7083 8.76576 16.692 8.48954 16.692 8.18354C15.9176 8.18354 15.1972 8.18354 14.569 8.18354C14.198 7.29261 13.8541 6.46126 13.4858 5.57575C13.9461 5.12351 14.4634 4.61712 14.9346 4.15676C14.5554 3.77764 14.1899 3.41748 13.8134 3.04107C13.3477 3.51497 12.8494 4.02407 12.4053 4.47901Z" fill="white"/>
<path d="M5.29361 7.61491C5.18258 7.52284 5.09863 7.45514 5.0201 7.38744C6.05455 4.99629 8.98731 4.02412 11.2647 5.6787C12.7054 6.72398 13.2172 8.19984 12.8787 9.90587C12.5591 11.5334 11.5166 12.5841 9.89448 12.974C8.43217 13.3234 7.13775 12.9226 6.10871 11.8367C5.05531 10.7264 4.79805 9.39406 5.19341 7.92633C5.2232 7.82343 5.25841 7.72323 5.29361 7.61491ZM6.70447 7.76114C6.63677 7.90196 6.56907 8.02653 6.51491 8.1538C6.09247 9.15847 6.24411 10.0819 6.94007 10.9078C7.61436 11.7067 8.47008 12.0506 9.51266 11.8123C10.8098 11.5144 11.679 10.4312 11.7224 9.07993C11.763 7.83697 10.8721 6.65358 9.61556 6.27987C8.33739 5.90076 7.00777 6.43694 6.46346 7.55534C6.53387 7.61491 6.60698 7.6772 6.70447 7.76114Z" fill="white"/>
</svg>
