<svg width="50" height="46" viewBox="0 0 50 46" fill="none" xmlns="http://www.w3.org/2000/svg">
<g clip-path="url(#clip0)">
<path d="M39.6623 15.2844L49.9941 7.80213L48.2761 5.43246L39.6801 11.6528V10.2607C39.6751 10.0996 39.6471 9.93998 39.5972 9.78673C39.3544 9.10005 38.9066 8.5045 38.3143 8.08067C37.722 7.65684 37.0138 7.42519 36.2855 7.41706C35.7803 7.38888 35.2737 7.43277 34.7808 7.54739V4.4372C34.7691 4.1691 34.7004 3.90656 34.5794 3.66706C34.3365 3.19905 33.5545 2.09123 31.5758 1.88981C30.8731 1.82959 30.1654 1.90399 29.4905 2.10901L29.3069 1.79502L29.2476 1.70616L29.2062 1.65284C28.6432 0.945063 27.879 0.424546 27.0142 0.159953C26.7639 0.108824 26.5106 0.0732111 26.2559 0.0533176L25.705 0H25.5272C24.7714 0.0166322 24.0275 0.191871 23.3438 0.514363C22.66 0.836854 22.0516 1.2994 21.5581 1.87204L21.2796 2.16825H21.0249C20.1736 2.05882 19.3085 2.14494 18.4955 2.42006C17.6825 2.69517 16.9429 3.15204 16.3329 3.75592C16.101 3.99294 15.932 4.28415 15.8412 4.60308C15.7878 4.78209 15.7579 4.9673 15.7524 5.15403V16.173C15.3525 16.0432 14.9346 15.9773 14.5142 15.9775V15.9775C13.7758 16.018 13.0545 16.2148 12.3978 16.5549C11.7412 16.895 11.1642 17.3706 10.705 17.9502C10.4393 18.2671 10.2852 18.6627 10.2666 19.0758C10.1718 20.7287 9.76303 28.75 10.2073 33.0095L0 40.3614L1.72393 42.731L11.0664 35.9656C13.2168 40.1481 18.9455 44.7038 19.6979 45.2903L20.0948 45.6043H40.705V42.6422H36.7299C39.5142 37.3697 39.6919 34.0758 39.6919 33.9218L39.6445 21.955L39.6623 15.2844ZM34.7986 10.6635C34.9301 10.5187 35.0913 10.4039 35.2713 10.3273C35.4513 10.2506 35.6457 10.2137 35.8412 10.2192C36.1811 10.2231 36.5062 10.3591 36.7476 10.5983V13.7796L34.7927 15.1896V10.6635H34.7986ZM30.7642 4.53199C30.9749 4.53074 31.1829 4.58013 31.3705 4.67601C31.5581 4.77189 31.72 4.91145 31.8424 5.08294V17.3223L29.4727 19.0403V5.09479C29.6388 4.91898 29.839 4.77892 30.0611 4.68317C30.2831 4.58741 30.5224 4.53799 30.7642 4.53791V4.53199ZM18.7026 5.33175C19.0691 4.99171 19.5476 4.79781 20.0474 4.78673C20.4685 4.82321 20.8601 5.01797 21.1434 5.33175C21.1434 5.33175 21.1434 5.33175 21.1434 5.33175L21.1019 21.9194H24.064L24.1114 3.31161C24.4841 2.97961 24.969 2.80171 25.468 2.81398H25.5036C25.9052 2.84127 26.2817 3.01896 26.5581 3.31161V21.1197L19.0818 26.5581L18.7026 26.4514V5.33175ZM13.1694 19.5498C13.3287 19.3442 13.5312 19.1762 13.7625 19.0575C13.9939 18.9387 14.2484 18.8722 14.5083 18.8626V18.8626C14.7563 18.8613 15.0004 18.9238 15.2173 19.0442C15.4341 19.1645 15.6164 19.3386 15.7464 19.5498V28.9692L12.9799 30.9716C12.8081 26.9905 13.0806 21.2263 13.1694 19.5498ZM33.3768 42.654H21.1078C18.4242 40.4917 14.5498 36.7654 13.4716 34.2062L19.4964 29.8519C20.9301 30.5924 22.5 32.0438 23.2524 34.8815L26.0841 34.1351C25.5101 31.6769 24.0826 29.5022 22.0557 27.9976L31.8424 20.8886V21.9076H34.8045V18.7678L36.7417 17.3637V21.9135L36.7891 33.8211C36.7299 34.141 36.4218 37.4704 33.4064 42.6837L33.3768 42.654Z" fill="black"/>
</g>
<defs>
<clipPath id="clip0">
<rect width="50" height="45.6161" fill="white"/>
</clipPath>
</defs>
</svg>
