<svg width="40" height="50" viewBox="0 0 40 50" fill="none" xmlns="http://www.w3.org/2000/svg">
<g clip-path="url(#clip0)">
<path d="M22.3332 28.719C21.6668 28.719 21.0277 28.9832 20.5559 29.4537C20.0841 29.9242 19.8181 30.5626 19.8163 31.229C19.8166 31.5714 19.8876 31.9101 20.0248 32.2239C20.162 32.5377 20.3624 32.8198 20.6136 33.0525V38.0655C20.6136 38.5252 20.7963 38.9661 21.1213 39.2912C21.4464 39.6163 21.8873 39.7989 22.347 39.7989C22.8068 39.7989 23.2477 39.6163 23.5727 39.2912C23.8978 38.9661 24.0804 38.5252 24.0804 38.0655V33.0525C24.4482 32.7095 24.7042 32.2636 24.8149 31.773C24.9256 31.2824 24.8859 30.7698 24.7011 30.3021C24.5162 29.8343 24.1948 29.4331 23.7786 29.1507C23.3624 28.8684 22.8708 28.7179 22.3678 28.719H22.3332Z" fill="black"/>
<path d="M35.2158 19.1437V13.68C35.2158 6.26105 29.3153 0 22.3332 0C15.351 0 9.45051 6.24025 9.45051 13.68V19.1437H0.0207977V22.4788H4.68018V49.6863H40.0416V19.1437H35.2158ZM12.8757 19.1437V13.68C12.8757 8.72942 16.6753 3.43214 22.3332 3.43214C27.991 3.43214 31.7837 8.72942 31.7837 13.68V19.1437H12.8757ZM8.09152 46.268V22.5758H36.5679V46.268H8.09152Z" fill="black"/>
</g>
<defs>
<clipPath id="clip0">
<rect width="40" height="49.6932" fill="white"/>
</clipPath>
</defs>
</svg>
