<svg width="15" height="15" viewBox="0 0 79 80" fill="none" xmlns="http://www.w3.org/2000/svg">
<path d="M60.05 60.0069L57.54 67.4869L53.08 60.1569C57.1206 58.2377 60.6912 55.4556 63.54 52.0069L68.85 60.8669L60.05 60.0069ZM19.65 47.6269C19.36 47.2469 19.1 46.8469 18.83 46.4469C17.7961 44.869 16.9535 43.1738 16.32 41.3969C15.974 40.4846 15.7064 39.5445 15.52 38.5869C15.15 36.912 14.9623 35.2021 14.96 33.4869C14.963 29.5784 15.9026 25.7275 17.7 22.2569L15.02 20.5069L17.77 16.2769C18.6107 14.9533 19.5859 13.7201 20.68 12.5969C23.8216 9.48074 27.7236 7.24048 31.9986 6.09849C36.2736 4.9565 40.773 4.95249 45.05 6.08686C50.4003 7.36062 55.2281 10.252 58.8766 14.3674C62.525 18.4828 64.8168 23.6225 65.44 29.0869V29.3469V29.7169C65.44 30.0669 65.5 30.4169 65.52 30.7869C65.52 30.9169 65.52 31.0569 65.52 31.1869C65.52 31.3169 65.52 31.6069 65.52 31.8269C65.52 32.0469 65.52 31.9569 65.52 32.0269C65.52 32.3769 65.52 32.7169 65.52 33.0269V33.1969C65.4058 36.437 64.7361 39.6334 63.54 42.6469C61.532 47.1866 58.2923 51.0731 54.1883 53.8656C50.0842 56.6582 45.2799 58.2453 40.32 58.4469C31.85 58.7369 24.32 54.2869 19.67 47.6269H19.65ZM21.15 67.8169L18.49 59.8169L9.97 61.5169L16.12 51.0669C18.9363 54.748 22.5591 57.7346 26.71 59.7969L21.15 67.7969V67.8169ZM66.7 47.5169C69.255 42.9849 70.595 37.8694 70.59 32.6669C70.59 32.2569 70.59 31.8569 70.59 31.4569C69.93 -0.803141 27.02 -12.8231 10.5 17.3969L12.97 19.1669C10.9714 23.3877 9.92665 27.9968 9.91 32.6669C9.90518 37.4015 11.0151 42.0708 13.15 46.2969L0 68.6069L15.14 65.6069L19.54 78.8769L31.48 61.6869C34.319 62.5561 37.2709 63.0009 40.24 63.0069C42.9422 63.0052 45.6323 62.6454 48.24 61.9369L58.77 79.2369L63.54 65.3869L78.36 66.8669L66.7 47.5169Z" fill="black"/>
<path d="M43.06 35.1569L40.45 33.5269L37.85 35.1569L38.85 32.2269L36.85 30.6069H39.12L40.45 28.0069L41.76 30.6169H44.03L42.08 32.2369L43.08 35.1669L43.06 35.1569ZM57.84 25.6069H44.84L40.44 16.8169L36.06 25.6069H23.06L33 33.8869L28.69 46.7869L40.44 39.4269L52.19 46.7869L47.89 33.8869L57.83 25.6069H57.84Z" fill="black"/>
</svg>
