<svg width="15" height="17" viewBox="0 0 50 52" fill="none" xmlns="http://www.w3.org/2000/svg">
<g clip-path="url(#clip0)">
<path d="M33.9655 14.0715L25.0041 23.0081L16.0345 14.0715L13.1108 17.0035L22.0722 25.9317L13.1108 34.86L16.0345 37.8002L25.0041 28.8554L33.9655 37.8002L36.8892 34.86L27.9361 25.9317L36.8892 17.0035L33.9655 14.0715Z" fill="black"/>
<path d="M50 25.9069C49.4534 -0.662624 14.113 -10.5351 0.50522 14.3117L2.54266 15.7611C1.5345 17.8617 0.821017 20.0913 0.422399 22.3869C-0.221181 25.8102 -0.142392 29.3303 0.653713 32.7214C1.44982 36.1125 2.94567 39.2998 5.0454 42.0791C7.14513 44.8585 9.80239 47.1684 12.8469 48.8609C15.8914 50.5534 19.2559 51.5911 22.7248 51.9075C26.1937 52.2239 29.6904 51.812 32.9909 50.6983C36.2913 49.5845 39.3227 47.7935 41.8906 45.4399C44.4585 43.0863 46.5063 40.2222 47.9028 37.0311C49.2993 33.84 50.0136 30.3923 50 26.909C50 26.5694 50 26.2547 50 25.9069ZM45.9169 26.379C45.9169 26.6606 45.9169 26.9504 45.9169 27.2072C45.9169 27.2569 45.9169 27.3066 45.9169 27.3563C45.8087 30.0129 45.2485 32.6317 44.2604 35.1002C42.6069 38.8399 39.939 42.0417 36.5591 44.3428C33.1791 46.644 29.2222 47.9524 25.1367 48.1199C18.1547 48.3518 11.9679 44.691 8.1249 39.1999C6.92445 37.6399 5.96412 35.9091 5.2758 34.0649C4.99346 33.3143 4.77459 32.5413 4.6215 31.7541C4.31512 30.3726 4.15961 28.9619 4.1577 27.5467C4.1633 24.3269 4.93852 21.155 6.41875 18.2955L4.24052 16.8958L6.50158 13.4007C7.19514 12.3146 7.9971 11.3018 8.89515 10.3776C11.4839 7.81168 14.6986 5.96721 18.2203 5.02722C21.742 4.08723 25.4482 4.0844 28.9713 5.01901C33.3772 6.06505 37.3532 8.44433 40.3575 11.8325C43.3618 15.2207 45.2482 19.4529 45.7595 23.9523V24.1676C45.7595 24.2753 45.7595 24.3746 45.7595 24.4823C45.7595 24.7639 45.7595 25.0538 45.8175 25.3105C45.8175 25.4265 45.8175 25.5342 45.8175 25.6501C45.8175 25.7661 45.8175 25.998 45.8175 26.1719L45.9169 26.379Z" fill="black"/>
</g>
<defs>
<clipPath id="clip0">
<rect width="50" height="51.8718" fill="white"/>
</clipPath>
</defs>
</svg>
