<svg width="50" height="48" viewBox="0 0 50 48" fill="none" xmlns="http://www.w3.org/2000/svg">
<g clip-path="url(#clip0)">
<path d="M24.3638 37.3742C24.3638 36.9594 24.4868 36.5539 24.7173 36.209C24.9477 35.8641 25.2753 35.5952 25.6585 35.4365C26.0418 35.2778 26.4635 35.2362 26.8703 35.3171C27.2771 35.3981 27.6508 35.5978 27.9442 35.8911C28.2375 36.1845 28.4372 36.5582 28.5181 36.965C28.5991 37.3718 28.5575 37.7935 28.3988 38.1768C28.2401 38.56 27.9712 38.8876 27.6263 39.118C27.2814 39.3485 26.8759 39.4715 26.4611 39.4715C25.9049 39.4715 25.3714 39.2505 24.9781 38.8572C24.5848 38.4639 24.3638 37.9304 24.3638 37.3742ZM24.6225 27.4748V21.1829H28.3347V27.4748L27.9223 33.0677H25.035L24.6225 27.4748ZM26.4821 0L4.70498 43.5473H0V47.0428H50L26.4821 0ZM26.4821 7.816L44.3512 43.5473H8.61298L26.4821 7.816Z" fill="black"/>
</g>
<defs>
<clipPath id="clip0">
<rect width="50" height="47.0498" fill="white"/>
</clipPath>
</defs>
</svg>
