<svg width="50" height="50" viewBox="0 0 50 50" fill="none" xmlns="http://www.w3.org/2000/svg">
<g clip-path="url(#clip0)">
<path d="M50 29.2092V19.1927H43.0372C42.7274 18.234 42.3436 17.3008 41.8893 16.4016L46.7887 11.4571L38.5354 3.20378L33.5759 8.16327C32.6723 7.72419 31.7427 7.34082 30.7923 7.01531V0H19.1927V7.0078C18.2433 7.33327 17.3139 7.71408 16.4091 8.14826L11.4496 3.19628L3.19628 11.4496L8.15576 16.4091C7.72944 17.3164 7.35126 18.2455 7.02281 19.1927H0V29.2092H6.82023C7.11394 30.7053 7.56409 32.1664 8.16326 33.5684L3.18878 38.5504L11.4421 46.8037L16.4241 41.8217C17.2419 42.1819 18.1197 42.4895 18.84 42.7446L19.1852 42.8646V49.9925H30.7923V42.8646L31.1375 42.7446C31.8878 42.4895 32.7356 42.1819 33.5534 41.8217L38.5354 46.8037L46.7887 38.5504L41.8667 33.6285C42.5735 32.2463 43.0307 30.7503 43.2173 29.2092H50ZM40.036 25.5927L39.8634 27.2134C39.4883 30.6873 38.9556 31.5576 38.1528 32.8706L37.3499 34.1912L41.7092 38.5504L38.5579 41.7017L34.1987 37.3424L32.9832 38.0927C32.0219 38.5985 31.0175 39.0178 29.982 39.3457C29.3592 39.5511 28.7524 39.8019 28.1663 40.096L27.2284 40.6062V46.4211H22.7791V40.5612L21.8412 40.051C21.2562 39.7546 20.6491 39.5038 20.0255 39.3007C18.9906 38.9648 17.9865 38.5406 17.0243 38.0327L15.8163 37.2824L11.4571 41.6492L8.30582 38.4979L12.6651 34.1387L11.9148 32.9232C10.9762 31.1086 10.3761 29.1381 10.1441 27.1083L9.92647 25.5402H3.60894V22.8091H9.76891L10.1065 21.4286C10.5346 19.8971 11.1415 18.4214 11.9148 17.0318L12.6651 15.8163L8.29832 11.4571L11.4496 8.29832L15.8088 12.6576L17.0243 11.9073C18.3946 11.1235 19.8596 10.5184 21.3836 10.1065L22.7791 9.79892V3.61645H27.1684V9.84394L28.669 10.1291C30.1749 10.5484 31.6237 11.1506 32.9832 11.9223L34.1987 12.6726L38.5354 8.29832L41.6867 11.4496L37.3349 15.8013L38.0852 17.0093C38.9047 18.3788 39.5142 19.8634 39.8935 21.4136L40.2311 22.7941H46.3911V25.5777L40.036 25.5927Z" fill="black"/>
<path d="M27.1984 13.9557C22.0288 12.6877 16.9568 15.0512 14.2932 19.8831L13.9181 20.5734L14.7959 21.2036C14.504 21.9286 14.2927 22.6834 14.1657 23.4545C14.0459 24.1055 13.9856 24.7659 13.9856 25.4278C14.0605 28.2983 15.2535 31.026 17.3102 33.0297C19.3669 35.0334 22.1248 36.1548 24.9963 36.1548C27.8677 36.1548 30.6256 35.0334 32.6823 33.0297C34.739 31.026 35.932 28.2983 36.0069 25.4278C36.0069 25.2777 36.0069 25.1352 36.0069 25.0001C35.9853 22.4393 35.1058 19.9596 33.509 17.9575C31.9122 15.9553 29.6903 14.5464 27.1984 13.9557V13.9557ZM18.645 21.6013L17.8271 21.0536L18.2623 20.3933C18.5089 20.0019 18.7955 19.6373 19.1177 19.3054C20.0556 18.3796 21.2194 17.7152 22.4935 17.3783C23.7675 17.0414 25.1076 17.0435 26.3806 17.3846C27.9942 17.76 29.452 18.6258 30.5536 19.8632C31.6553 21.1005 32.3467 22.6486 32.533 24.2948V24.4974C32.5405 24.5998 32.5405 24.7026 32.533 24.8051V25.1802C32.533 25.2852 32.533 25.3903 32.533 25.5478C32.493 26.5136 32.2875 27.4653 31.9253 28.3615C31.3246 29.722 30.3544 30.8869 29.125 31.7237C27.8955 32.5606 26.456 33.036 24.97 33.0959C23.7566 33.1127 22.5584 32.8239 21.4859 32.2562C20.4133 31.6885 19.5009 30.86 18.8325 29.8471C18.4052 29.2743 18.0687 28.6391 17.8346 27.9638C17.7294 27.705 17.6514 27.436 17.602 27.161C17.2498 25.5211 17.489 23.8095 18.2773 22.3291L18.645 21.6013Z" fill="black"/>
</g>
<defs>
<clipPath id="clip0">
<rect width="50" height="50" fill="white"/>
</clipPath>
</defs>
</svg>
