<svg width="50" height="35" viewBox="0 0 50 35" fill="none" xmlns="http://www.w3.org/2000/svg">
<g clip-path="url(#clip0)">
<path d="M6.43931 7.32179C6.35209 7.80906 6.30833 8.30313 6.30856 8.79815C6.31289 10.9746 7.18016 13.0606 8.72021 14.5986C10.2602 16.1366 12.3474 17.0011 14.5239 17.0026C15.7013 17.0041 16.865 16.7494 17.9342 16.2562C18.6632 17.4916 19.7026 18.5149 20.9493 19.2245C22.1959 19.9341 23.6064 20.3054 25.0409 20.3016C26.4753 20.2977 27.8839 19.9189 29.1267 19.2025C30.3695 18.4862 31.4034 17.4574 32.1257 16.2181C33.2164 16.7375 34.4097 17.0056 35.6178 17.0026C37.7986 17.0069 39.8918 16.1451 41.4375 14.6066C42.9831 13.0682 43.8545 10.9789 43.8603 8.79815C43.8603 8.68919 43.8603 8.58023 43.8603 8.47673C43.8409 6.57435 43.1874 4.73283 42.0033 3.24379C40.8191 1.75475 39.1721 0.703308 37.3229 0.255981C35.5791 -0.192721 33.7371 -0.0684431 32.0693 0.610447C30.4015 1.28934 28.9964 2.48681 28.0617 4.02586C27.6094 3.8282 27.141 3.66963 26.6616 3.55191C24.9059 3.10757 23.0534 3.24522 21.3827 3.94415C20.169 2.10974 18.3066 0.80201 16.1691 0.283219C12.3012 -0.664699 8.54217 1.0786 6.53737 4.70684L6.27043 5.18625L6.92417 5.66021C6.70599 6.19597 6.54351 6.75276 6.43931 7.32179V7.32179ZM9.20135 5.57304L9.51732 5.08819C9.70188 4.7985 9.91544 4.52835 10.1547 4.28191C10.8516 3.59154 11.7176 3.09633 12.666 2.84583C13.6145 2.59534 14.6121 2.59836 15.5589 2.85459C17.023 3.20734 18.3018 4.09555 19.1436 5.34424C18.2869 6.08961 17.571 6.98268 17.0299 7.98098L16.7466 8.52575L17.4003 8.99427C17.1905 9.52222 17.0335 10.0697 16.9318 10.6286C16.7324 11.7116 16.7565 12.8239 17.0026 13.8973C16.236 14.2989 15.3888 14.5223 14.5239 14.551C13.6219 14.5547 12.7329 14.3359 11.9356 13.914C11.1384 13.4921 10.4574 12.8801 9.95315 12.1322C9.63454 11.7062 9.38285 11.2341 9.2068 10.7321C9.13127 10.5234 9.07475 10.3082 9.03792 10.0893C8.95971 9.73132 8.91954 9.36611 8.91807 8.99972C8.9218 8.13369 9.13487 7.28141 9.53912 6.51551L9.82785 5.97073L9.20135 5.57304ZM30.1863 14.2895L30.11 14.4366L30.0556 14.5401C29.76 15.1526 29.3558 15.7063 28.8625 16.1745C27.8315 17.1835 26.4583 17.767 25.0163 17.8088C24.1125 17.8244 23.2193 17.6126 22.4187 17.1928C21.6181 16.773 20.9359 16.1587 20.4347 15.4063C20.2568 15.1681 20.1 14.9147 19.9662 14.6491C19.861 14.4424 19.7682 14.2295 19.6884 14.0117C19.617 13.8184 19.5605 13.6199 19.5195 13.4179C19.4524 13.0914 19.4141 12.7596 19.4051 12.4264V12.2956C19.4059 11.4336 19.6113 10.5841 20.0044 9.81689L20.2985 9.27211L19.6884 8.87986L20.0044 8.38956C20.1551 8.15333 20.3265 7.93092 20.5165 7.72493L20.5764 7.65956C20.5967 7.63461 20.6185 7.61096 20.6418 7.58873C21.0988 7.12881 21.6385 6.75916 22.2325 6.49917C23.4304 5.96254 24.7752 5.8492 26.046 6.17775C26.669 6.33226 27.2644 6.58218 27.8111 6.91865C28.5806 7.39137 29.232 8.0337 29.7154 8.79659C30.1988 9.55948 30.5015 10.4228 30.6004 11.3205V11.4512V11.68V11.9633C30.6004 12.0396 30.6004 12.1159 30.6004 12.2357V12.361C30.5641 13.0269 30.4245 13.683 30.1863 14.3059V14.2895ZM33.2316 11.7618C33.2205 10.5701 32.9581 9.3942 32.4615 8.31089C31.9649 7.22758 31.2453 6.26123 30.3497 5.47498L30.6112 5.07185C30.7941 4.78263 31.0078 4.51411 31.2486 4.27102C31.9459 3.58109 32.8117 3.0858 33.7598 2.83443C34.708 2.58306 35.7054 2.58437 36.6529 2.83824C37.8461 3.12445 38.9227 3.77006 39.7372 4.68783C40.5517 5.60561 41.0648 6.7513 41.2072 7.97008V8.11172V8.34053V8.62382C41.2072 8.70553 41.2072 8.7818 41.2072 8.89621C41.1753 9.61455 41.0206 10.3221 40.7496 10.9882C40.3022 11.9988 39.5808 12.864 38.6671 13.486C37.7535 14.1079 36.684 14.4618 35.5797 14.5075C34.6918 14.5302 33.8132 14.3218 33.0301 13.9027C33.1646 13.3166 33.2341 12.7173 33.2371 12.1159C33.2371 11.9906 33.2316 11.8816 33.2316 11.7781V11.7618Z" fill="black"/>
<path d="M38.4724 31.1125H50.0054L49.6078 29.5217C49.5805 29.4073 46.6714 18.2611 36.0536 18.2611C32.7216 18.2393 29.4983 19.4456 26.9993 21.6496C25.9316 21.524 24.8529 21.524 23.7851 21.6496C21.4002 19.4261 18.2472 18.2118 14.9869 18.2611C4.39093 18.2611 0.62105 29.3147 0.588363 29.4237L0.043582 31.1125H11.8C11.5407 31.6447 11.3098 32.1902 11.1081 32.7468L10.5633 34.4356H39.4748L39.0826 32.8449C38.9131 32.256 38.7094 31.6776 38.4724 31.1125V31.1125ZM13.2872 28.5466H3.7263C5.03922 25.9425 8.44955 20.827 14.9869 20.827C17.0011 20.8089 18.9771 21.3767 20.6744 22.4613C17.0952 23.7797 14.7036 26.4328 13.2872 28.5466V28.5466ZM35.6232 30.9599C35.7703 31.2541 35.9011 31.5483 36.0264 31.8479H14.2733C14.4204 31.5592 14.5783 31.265 14.7472 30.9763C15.1413 30.282 15.5856 29.6174 16.0765 28.9878C17.7802 26.6526 20.2734 25.0149 23.0933 24.379C23.8496 24.2213 24.6197 24.1392 25.3922 24.1338H25.5066C26.2248 24.133 26.9416 24.1986 27.6476 24.3299C29.0383 24.607 30.3592 25.1606 31.5318 25.9579C32.7044 26.7552 33.7048 27.78 34.4737 28.9715C34.9079 29.6035 35.2922 30.2683 35.6232 30.9599V30.9599ZM30.2408 22.4123C31.9958 21.3595 34.0071 20.811 36.0536 20.827C42.591 20.827 45.5001 25.9588 46.5733 28.5466H37.1922C35.6258 25.7823 33.1784 23.6227 30.2408 22.4123V22.4123Z" fill="black"/>
</g>
<defs>
<clipPath id="clip0">
<rect width="50" height="34.4138" fill="white"/>
</clipPath>
</defs>
</svg>
