<svg width="50" height="53" viewBox="0 0 50 53" fill="none" xmlns="http://www.w3.org/2000/svg">
<g clip-path="url(#clip0)">
<path d="M50.0081 24.996C49.967 23.4105 49.3182 21.9014 48.196 20.7807C47.0737 19.66 45.5638 19.0133 43.9782 18.9742H26.9356C28.0555 15.6225 29.5325 10.1121 28.5587 6.60613C27.0573 1.23363 23.6893 -0.283983 21.3358 0.0406393C20.0922 0.243712 18.9658 0.8947 18.169 1.87089C17.3722 2.84707 16.9601 4.08101 17.0102 5.3401C17.0102 14.3727 7.12547 24.9635 2.05324 24.9635H-0.0324631V52.8892H4.02532V48.9856C6.19859 49.4637 8.32716 50.1262 10.3879 50.9658C13.4093 52.3065 16.6751 53.0082 19.9805 53.0272H36.9583C40.1477 53.0272 41.9818 51.2012 41.9818 48.0036C41.9853 47.5115 41.9142 47.0217 41.7708 46.5509C42.7235 46.2374 43.5516 45.6287 44.1352 44.8131C44.7188 43.9974 45.0277 43.0172 45.017 42.0143C45.0309 41.1297 44.8738 40.2506 44.5545 39.4255C45.5721 38.9288 46.4335 38.1619 47.0447 37.2087C47.6559 36.2555 47.9932 35.1525 48.0198 34.0205C48.0063 32.9629 47.663 31.9359 47.0378 31.0827C47.9801 30.3763 48.7408 29.456 49.2573 28.3977C49.7738 27.3394 50.0311 26.1734 50.0081 24.996V24.996ZM43.9782 27.9663H40.8375V32.0241C42.6148 32.0241 43.9539 33.2171 43.9539 33.988C43.9145 34.4972 43.6938 34.9753 43.332 35.3357C42.9702 35.696 42.4911 35.9147 41.9818 35.952H38.9872V40.0098C40.6103 40.0098 40.9511 40.7645 40.9511 41.9819C40.9511 42.8989 39.328 42.9476 38.9872 42.9476H35.9925V47.0054C36.3172 47.0054 37.9565 47.0541 37.9565 47.9712C37.9731 48.2466 37.9345 48.5225 37.8429 48.7827C37.5845 48.8822 37.3075 48.9238 37.0313 48.9045H20.013C16.5639 48.9045 14.4944 48.0929 11.8974 47.1109C9.3566 46.0846 6.71942 45.3152 4.02532 44.8142V28.7454C11.4429 26.8382 21.068 15.3709 21.068 5.3401C21.068 4.65839 21.3926 4.13088 21.8796 4.06596C22.5369 3.96046 23.8516 4.87751 24.647 7.70173C25.4423 10.5259 23.5027 16.8642 22.123 20.2403L20.9869 23.032H43.9782C44.4876 23.0693 44.9666 23.288 45.3284 23.6484C45.6903 24.0087 45.9109 24.4869 45.9503 24.996C45.9503 26.0023 45.3579 27.9663 43.9782 27.9663V27.9663Z" fill="black"/>
</g>
<defs>
<clipPath id="clip0">
<rect width="50" height="52.9946" fill="white"/>
</clipPath>
</defs>
</svg>
