<svg width="50" height="63" viewBox="0 0 50 63" fill="none" xmlns="http://www.w3.org/2000/svg">
<g clip-path="url(#clip0)">
<path d="M27.9164 35.8988C27.0835 35.8988 26.2846 36.2291 25.6949 36.8172C25.1051 37.4054 24.7726 38.2034 24.7703 39.0363C24.7707 39.4643 24.8594 39.8877 25.0309 40.2799C25.2024 40.6721 25.453 41.0248 25.767 41.3157V47.5819C25.767 48.1566 25.9953 48.7077 26.4017 49.1141C26.808 49.5204 27.3591 49.7487 27.9338 49.7487C28.5084 49.7487 29.0596 49.5204 29.4659 49.1141C29.8723 48.7077 30.1005 48.1566 30.1005 47.5819V41.3157C30.5603 40.8869 30.8802 40.3296 31.0186 39.7163C31.157 39.103 31.1074 38.4623 30.8763 37.8776C30.6453 37.293 30.2434 36.7915 29.7232 36.4385C29.203 36.0855 28.5885 35.8975 27.9598 35.8988H27.9164Z" fill="black"/>
<path d="M44.0198 23.9296V17.1C44.0198 7.82631 36.6441 0 27.9164 0C19.1888 0 11.8131 7.80031 11.8131 17.1V23.9296H0.026001V28.0985H5.85023V62.1078H50.052V23.9296H44.0198ZM16.0946 23.9296V17.1C16.0946 10.9118 20.8442 4.29017 27.9164 4.29017C34.9887 4.29017 39.7296 10.9118 39.7296 17.1V23.9296H16.0946ZM10.1144 57.835V28.2198H45.7098V57.835H10.1144Z" fill="black"/>
</g>
<defs>
<clipPath id="clip0">
<rect width="50" height="62.1165" fill="white"/>
</clipPath>
</defs>
</svg>
