<svg width="50" height="63" viewBox="0 0 50 63" fill="none" xmlns="http://www.w3.org/2000/svg">
<g clip-path="url(#clip0)">
<path d="M31.0539 39.0362C31.0535 39.4643 30.9648 39.8877 30.7933 40.2799C30.6218 40.6721 30.3712 41.0247 30.0572 41.3157V47.5819C30.0572 48.1566 29.8289 48.7077 29.4226 49.114C29.0162 49.5204 28.4651 49.7487 27.8905 49.7487C27.3158 49.7487 26.7647 49.5204 26.3583 49.114C25.952 48.7077 25.7237 48.1566 25.7237 47.5819V41.3157C25.4097 41.0247 25.1591 40.6721 24.9876 40.2799C24.8161 39.8877 24.7274 39.4643 24.727 39.0362C24.7693 38.2315 25.1187 37.4737 25.7033 36.919C26.2878 36.3644 27.063 36.0552 27.8688 36.0552C28.6746 36.0552 29.4497 36.3644 30.0343 36.919C30.6188 37.4737 30.9683 38.2315 31.0106 39.0362H31.0539ZM50 23.9296V62.1165H5.79824V28.1071H0.026001V23.9383H39.7556V17.1C39.7556 10.9118 35.0061 4.29017 27.9338 4.29017C20.8615 4.29017 16.0946 10.9118 16.0946 17.1V17.2387H11.7611V17.1C11.7611 7.82631 19.1368 0 27.8645 0C36.5921 0 43.9678 7.80031 43.9678 17.1V23.9296H50ZM45.6665 28.2631H10.1144V57.8783H45.7098L45.6665 28.2631Z" fill="black"/>
</g>
<defs>
<clipPath id="clip0">
<rect width="50" height="62.1165" fill="white"/>
</clipPath>
</defs>
</svg>
