
<svg width="20" height="22" viewBox="0 0 50 52" fill="none" xmlns="http://www.w3.org/2000/svg">
<g clip-path="url(#clip0)">
<rect width="50" height="51.8718" fill="white"/>
<path d="M19.1734 31.9861L14.0467 26.8345L11.1065 29.7498L19.1403 37.825L38.8769 18.4363L35.9781 15.4878L19.1734 31.9861Z" fill="#B9E800"/>
<path d="M50 25.9069C49.4534 -0.662624 14.113 -10.5351 0.505212 14.3117L2.54265 15.7694C1.53449 17.8699 0.821009 20.0996 0.422391 22.3952C-0.221262 25.8192 -0.142264 29.3399 0.654312 32.7316C1.45089 36.1233 2.94746 39.3111 5.04807 42.0905C7.14868 44.87 9.80696 47.1798 12.8525 48.8719C15.8979 50.5639 19.2634 51.6008 22.7331 51.9162C26.2028 52.2315 29.7 51.8182 33.0007 50.7029C36.3013 49.5876 39.3324 47.7948 41.8996 45.4395C44.4669 43.0843 46.5136 40.2185 47.9085 37.026C49.3035 33.8335 50.0159 30.3847 50 26.9007C50 26.5694 50 26.2382 50 25.9069ZM45.9168 26.379C45.9168 26.6606 45.9168 26.9504 45.9168 27.2072C45.9168 27.2569 45.9168 27.3066 45.9168 27.348C45.8095 30.0074 45.2493 32.6291 44.2604 35.1002C42.6081 38.8401 39.9403 42.0417 36.5599 44.3417C33.1795 46.6416 29.222 47.9477 25.1367 48.1116C18.1547 48.3518 11.9679 44.691 8.12489 39.1999C6.92278 37.638 5.96234 35.9041 5.2758 34.0566C4.99323 33.3089 4.77435 32.5387 4.6215 31.7541C4.31556 30.3725 4.16005 28.9618 4.15769 27.5468C4.16329 24.3269 4.93851 21.155 6.41874 18.2955L4.24051 16.8875L6.50157 13.4007C7.19513 12.3146 7.99709 11.3018 8.89514 10.3776C11.483 7.81027 14.6976 5.96485 18.2196 5.02478C21.7416 4.08471 25.4483 4.08272 28.9713 5.01901C33.3723 6.06306 37.3449 8.43742 40.3487 11.8191C43.3525 15.2008 45.2418 19.4257 45.7595 23.9191V24.1345C45.7595 24.2339 45.7595 24.3415 45.7595 24.4492C45.7595 24.7308 45.7595 25.0207 45.8174 25.2774C45.8174 25.3934 45.8174 25.501 45.8174 25.617C45.8174 25.7329 45.8174 25.9566 45.8174 26.1388L45.9168 26.379Z" fill="#B9E800"/>
</g>
<defs>
<clipPath id="clip0">
<rect width="50" height="51.8718" fill="white"/>
</clipPath>
</defs>
</svg>
