<svg width="50" height="39" viewBox="0 0 50 39" fill="none" xmlns="http://www.w3.org/2000/svg">
<g clip-path="url(#clip0)">
<path d="M38.2026 11.7974C37.8969 8.50643 36.3735 5.44819 33.9307 3.22181C31.488 0.995429 28.302 -0.238647 24.9968 -0.238647C21.6917 -0.238647 18.5057 0.995429 16.0629 3.22181C13.6202 5.44819 12.0967 8.50643 11.7911 11.7974C10.0494 11.8957 8.34415 12.336 6.77267 13.0933C5.20119 13.8506 3.79426 14.9101 2.6322 16.2111C0.285335 18.8387 -0.921615 22.2909 -0.723129 25.8084C-0.524644 29.3258 1.06302 32.6204 3.69059 34.9673C6.31816 37.3141 9.7704 38.5211 13.2879 38.3226H36.7121C40.2254 38.5202 43.6733 37.3141 46.2973 34.9696C48.9213 32.6251 50.5065 29.3343 50.7042 25.821C50.9018 22.3077 49.6957 18.8598 47.3512 16.2358C45.0067 13.6118 41.7159 12.0266 38.2026 11.829V11.7974ZM36.7058 35.1648H13.2879C10.6012 35.1732 8.02123 34.114 6.11555 32.2201C4.20986 30.3263 3.13456 27.753 3.12618 25.0663C3.11781 22.3796 4.17705 19.7997 6.07089 17.894C7.96473 15.9883 10.538 14.913 13.2247 14.9046H13.7678C14.6117 14.9625 15.4453 15.1237 16.2498 15.3846C16.5467 15.4857 16.8372 15.5993 17.1214 15.7193L17.955 12.6626C17.715 12.5679 17.4814 12.4668 17.2287 12.3847C16.506 12.1535 15.7642 11.9866 15.012 11.8858C15.2641 9.26182 16.5317 6.84023 18.5442 5.1377C20.5567 3.43516 23.1549 2.58647 25.7844 2.77271C28.4139 2.95894 30.8665 4.16534 32.619 6.13453C34.3715 8.10372 35.2851 10.6798 35.1648 13.3131V14.892H36.7437C39.4312 14.892 42.0087 15.9596 43.909 17.86C45.8094 19.7603 46.877 22.3377 46.877 25.0253C46.877 27.7128 45.8094 30.2902 43.909 32.1905C42.0087 34.0909 39.4312 35.1585 36.7437 35.1585L36.7058 35.1648Z" fill="black"/>
</g>
<defs>
<clipPath id="clip0">
<rect width="50" height="38.291" fill="white"/>
</clipPath>
</defs>
</svg>
