<svg width="20" height="20" viewBox="0 0 20 20" fill="none" xmlns="http://www.w3.org/2000/svg">
<path d="M14.1016 15.4688C13.6701 15.4688 13.3203 15.8185 13.3203 16.25V18.4375H2.14844V1.5625H13.3203V3.75C13.3203 4.18148 13.6701 4.53125 14.1016 4.53125C14.533 4.53125 14.8828 4.18148 14.8828 3.75V0.78125C14.8828 0.349766 14.533 0 14.1016 0H1.36719C0.935703 0 0.585938 0.349766 0.585938 0.78125V19.2188C0.585938 19.6502 0.935703 20 1.36719 20H14.1016C14.533 20 14.8828 19.6502 14.8828 19.2188V16.25C14.8828 15.8185 14.533 15.4688 14.1016 15.4688Z" fill="#666666"/>
<path d="M19.1852 9.44768L17.086 7.34845C16.7809 7.04333 16.2863 7.04337 15.9811 7.34845C15.676 7.65353 15.676 8.14822 15.9811 8.45334L16.7467 9.21885L10.2749 9.21881C9.84346 9.21881 9.49365 9.56858 9.49365 10.0001C9.49365 10.4315 9.84342 10.7813 10.2749 10.7813L16.7468 10.7814L15.9812 11.5469C15.6761 11.852 15.6761 12.3467 15.9812 12.6518C16.2863 12.9569 16.7809 12.9568 17.086 12.6517L19.1852 10.5525C19.1853 10.5524 19.1854 10.5524 19.1854 10.5523C19.3426 10.395 19.4084 10.2132 19.4141 10.0001C19.4141 9.78947 19.3246 9.58697 19.1852 9.44768Z" fill="#666666"/>
</svg>
