<svg width="50" height="51" viewBox="0 0 50 51" fill="none" xmlns="http://www.w3.org/2000/svg">
<g clip-path="url(#clip0)">
<path d="M18.7886 6.26287C17.6676 5.38899 16.3755 4.76046 14.996 4.41805C13.4354 4.00572 11.7942 4.00797 10.2348 4.42457C8.67528 4.84117 7.25159 5.65769 6.10452 6.79335C5.71038 7.19796 5.35761 7.64091 5.05147 8.1156L4.53682 8.97071L5.53445 9.61204L5.10689 10.4038C4.43931 11.6709 4.08884 13.0809 4.08551 14.5131C4.08661 15.1337 4.15564 15.7523 4.29137 16.3579C4.34276 16.6894 4.42493 17.0155 4.53682 17.3318C4.80723 18.089 5.18019 18.8057 5.64529 19.4616L5.74822 19.5804L11.2906 25.1227L8.55107 27.9731L3.61837 23.0404L2.8266 22.1061C1.05287 19.8459 0.0783272 17.0615 0.0554233 14.1884C0.0555015 13.3919 0.127051 12.5969 0.269203 11.8131C0.436471 10.8748 0.701849 9.95656 1.06097 9.07364L0.00791931 8.28187L0.427554 7.49011C3.59462 1.63104 9.7308 -1.17181 15.9699 0.364214C17.9712 0.915999 19.8223 1.91193 21.3856 3.27791L21.536 3.42043L30.578 12.4703C33.0578 14.9552 34.4506 18.3224 34.4506 21.8329C34.4506 25.3435 33.0578 28.7107 30.578 31.1956C29.2844 32.4713 27.743 33.4683 26.0491 34.1251L22.882 30.958C24.7395 30.639 26.4521 29.7509 27.7831 28.4165C29.5207 26.674 30.4966 24.3136 30.4966 21.8527C30.4966 19.3919 29.5207 17.0315 27.7831 15.289C27.7052 15.2164 27.6312 15.1398 27.5614 15.0594L27.4268 14.9169L18.7886 6.26287ZM46.1045 28.0602C46.0491 28.0127 42.9375 24.8931 40.8551 22.7712H40.7997L38.0285 25.5424L43.3333 30.863C45.0741 32.6038 46.0521 34.9649 46.0521 37.4268C46.0521 39.8886 45.0741 42.2497 43.3333 43.9905C41.5925 45.7313 39.2315 46.7093 36.7696 46.7093C34.3077 46.7093 31.9467 45.7313 30.2059 43.9905C30.2059 43.9905 22.0032 35.7324 21.9557 35.6611C20.218 33.9187 19.2422 31.5582 19.2422 29.0974C19.2422 26.6365 20.218 24.2761 21.9557 22.5337C23.2944 21.1954 25.0149 20.3048 26.8804 19.9842L23.7134 16.8171C22.0001 17.4814 20.4445 18.4964 19.1464 19.7969C17.8482 21.0975 16.8361 22.6549 16.1749 24.3694C15.5137 26.0839 15.218 27.9176 15.3068 29.753C15.3956 31.5884 15.8668 33.385 16.6904 35.0277C17.2075 36.0468 17.8513 36.9966 18.6065 37.8543L27.498 46.8567C29.9906 49.3325 33.3646 50.7167 36.8777 50.7048C40.3909 50.6929 43.7554 49.2859 46.2312 46.7934C48.707 44.3008 50.0912 40.9268 50.0793 37.4136C50.0674 33.9005 48.6604 30.536 46.1679 28.0602H46.1045Z" fill="black"/>
</g>
<defs>
<clipPath id="clip0">
<rect width="50" height="50.6651" fill="white"/>
</clipPath>
</defs>
</svg>
