<svg width="50" height="42" viewBox="0 0 50 42" fill="none" xmlns="http://www.w3.org/2000/svg">
<g clip-path="url(#clip0)">
<path d="M45.114 7.557H40.1042V0H5.51792V3.25733H9.89576V7.557H4.886C3.59015 7.557 2.34738 8.07178 1.43108 8.98808C0.514774 9.90438 0 11.1472 0 12.443V26.1238C0 27.4196 0.514774 28.6624 1.43108 29.5787C2.34738 30.495 3.59015 31.0098 4.886 31.0098H9.89576V41.9349H40.1042V31.0098H45.114C46.4093 31.0081 47.6511 30.4927 48.567 29.5768C49.4829 28.6609 49.9983 27.4191 50 26.1238V12.443C49.9983 11.1477 49.4829 9.90591 48.567 8.98998C47.6511 8.07405 46.4093 7.55873 45.114 7.557V7.557ZM13.1531 3.25733H36.8469V7.557H13.1531V3.25733ZM36.8469 38.6775H13.1531V23.6938H36.8469V38.6775ZM46.7427 26.1238C46.7427 26.5557 46.5711 26.97 46.2656 27.2754C45.9602 27.5809 45.546 27.7524 45.114 27.7524H40.1042V20.4365H9.89576V27.7524H4.886C4.45405 27.7524 4.03979 27.5809 3.73435 27.2754C3.42892 26.97 3.25733 26.5557 3.25733 26.1238V12.443C3.25733 12.0111 3.42892 11.5968 3.73435 11.2914C4.03979 10.9859 4.45405 10.8143 4.886 10.8143H45.114C45.546 10.8143 45.9602 10.9859 46.2656 11.2914C46.5711 11.5968 46.7427 12.0111 46.7427 12.443V26.1238ZM34.7687 29.7655H15.2248V26.5081H34.7687V29.7655ZM29.4658 35.6287H15.2248V32.3713H29.4658V35.6287ZM43.6873 15.8241C43.6873 16.1462 43.5918 16.4611 43.4128 16.7289C43.2339 16.9968 42.9795 17.2055 42.6819 17.3288C42.3843 17.4521 42.0568 17.4843 41.7409 17.4215C41.425 17.3586 41.1348 17.2035 40.907 16.9757C40.6792 16.748 40.5241 16.4578 40.4613 16.1418C40.3984 15.8259 40.4307 15.4984 40.5539 15.2008C40.6772 14.9032 40.886 14.6489 41.1538 14.4699C41.4216 14.291 41.7365 14.1954 42.0586 14.1954C42.277 14.1953 42.4931 14.2391 42.6942 14.3242C42.8952 14.4093 43.0772 14.5339 43.2291 14.6907C43.381 14.8475 43.4999 15.0333 43.5786 15.2369C43.6573 15.4406 43.6943 15.658 43.6873 15.8762V15.8241Z" fill="black"/>
</g>
<defs>
<clipPath id="clip0">
<rect width="50" height="41.9349" fill="white"/>
</clipPath>
</defs>
</svg>
