<svg width="50" height="55" viewBox="0 0 50 55" fill="none" xmlns="http://www.w3.org/2000/svg">
<g clip-path="url(#clip0)">
<path d="M50 54.7657L49.9373 8.35709H39.072V0H0.0228271V2.8503H3.85363V46.4143H14.7076V54.7657H50ZM36.2673 43.564H6.68113V2.8503H36.216L36.2673 43.564ZM39.0777 11.2017H47.0927L47.144 51.9211H17.5579V46.4143H39.1233L39.0777 11.2017ZM9.30911 17.8828H12.9005C15.004 17.8828 16.2867 19.1768 16.2867 21.0352C16.2867 22.8936 15.004 24.182 12.9005 24.182H11.5494V28.1724H9.30911V17.8828ZM12.8891 22.2096C13.0506 22.2208 13.2126 22.1987 13.3652 22.1446C13.5178 22.0906 13.6576 22.0057 13.776 21.8953C13.8943 21.7849 13.9887 21.6513 14.0532 21.5028C14.1178 21.3544 14.1511 21.1943 14.1511 21.0324C14.1511 20.8705 14.1178 20.7104 14.0532 20.5619C13.9887 20.4135 13.8943 20.2799 13.776 20.1695C13.6576 20.0591 13.5178 19.9742 13.3652 19.9201C13.2126 19.8661 13.0506 19.844 12.8891 19.8552H11.5494V22.2096H12.8891ZM17.4496 17.8828H20.8243C24.0623 17.8828 26.0632 19.8837 26.0632 23.0133C26.0632 26.143 24.0623 28.1439 20.8243 28.1439H17.4382L17.4496 17.8828ZM20.8243 26.0689C22.7796 26.0689 23.8229 24.9287 23.8229 23.0361C23.8229 21.1435 22.7796 20.0034 20.8243 20.0034H19.6842V26.0689H20.8243ZM29.6318 20.0034V22.3749H34.0041V24.0851H29.6318V28.1952H27.3857V17.8828H34.4374V20.0034H29.6318Z" fill="black"/>
</g>
<defs>
<clipPath id="clip0">
<rect width="50" height="54.7657" fill="white"/>
</clipPath>
</defs>
</svg>
