<svg width="40" height="44" viewBox="0 0 40 44" fill="none" xmlns="http://www.w3.org/2000/svg">
<g clip-path="url(#clip0)">
<path d="M11.0826 25.1002L15.0034 18.375L11.3752 12.2485H15.0844L16.5474 14.8458L16.957 15.9532L17.3486 14.8818L18.8296 12.2485H22.5388L18.8971 18.375L22.8179 25.1002H18.9692L17.4342 22.2327L16.957 21.0668L16.4844 22.2102L14.9404 25.1002H11.0826ZM12.1224 43.2456V36.6509H3.02498V2.25073H0V0H30.844V6.59914H39.946L39.9955 43.2456H12.1224ZM37.7042 15.8767V8.84537H34.2921V15.8767H37.7042ZM37.7042 24.2944V18.1229H34.2786V24.2944H37.7042ZM37.7042 32.7166V26.5451H34.2696V32.7166H37.7042ZM37.7042 40.9993V34.9629H34.2606V40.9993H37.7042ZM28.6023 2.25073H5.27571V34.4002H28.6383L28.6023 2.25073ZM30.853 15.8767H32.0324V8.84537H30.844L30.853 15.8767ZM30.853 18.1274V24.2989H32.0234V18.1229L30.853 18.1274ZM30.853 26.5496V32.7211H32.0099V26.5451L30.853 26.5496ZM30.853 36.6554H27.702V41.0038H32.0009V34.9629H30.889L30.853 36.6554ZM21.0849 36.6554V41.0038H25.4873V36.6554H21.0849ZM14.3327 36.6554V41.0038H18.8341V36.6554H14.3327Z" fill="black"/>
</g>
<defs>
<clipPath id="clip0">
<rect width="40" height="43.2456" fill="white"/>
</clipPath>
</defs>
</svg>
