<svg width="25" height="25" viewBox="0 0 25 28" fill="none" xmlns="http://www.w3.org/2000/svg">
<path d="M5.38902 7.64527C5.38902 9.53651 6.14032 11.3503 7.47763 12.6876C8.81494 14.0249 10.6287 14.7762 12.52 14.7762C14.4112 14.7762 16.225 14.0249 17.5623 12.6876C18.8996 11.3503 19.6509 9.53651 19.6509 7.64527C19.6509 7.55454 19.6509 7.46019 19.6509 7.36583C19.633 5.70922 19.0618 4.10614 18.0281 2.81144C16.9944 1.51673 15.5577 0.604723 13.9461 0.220385C10.5857 -0.599763 7.30149 0.90989 5.5741 4.07073L5.41806 4.35016L5.9878 4.76023C5.7685 5.27621 5.609 5.8156 5.51241 6.36787C5.43322 6.78913 5.39193 7.21664 5.38902 7.64527ZM7.81681 4.18685C7.99177 3.91343 8.19357 3.65813 8.41922 3.42477C9.07481 2.77625 9.88861 2.31046 10.7798 2.07365C11.6711 1.83684 12.6087 1.83723 13.4998 2.07479C14.6215 2.33952 15.6342 2.94417 16.3993 3.8061C17.1645 4.66804 17.6448 5.74522 17.7747 6.89044V6.94124V7.02471C17.7747 7.09729 17.7747 7.16987 17.7747 7.24608V7.46019V7.50373C17.7747 7.57631 17.7747 7.64889 17.7747 7.75776C17.7453 8.43304 17.6005 9.09829 17.3465 9.72467C16.9292 10.6697 16.2569 11.4799 15.4051 12.0645C14.5533 12.649 13.5555 12.9848 12.5236 13.0343C11.6745 13.0422 10.8367 12.839 10.0855 12.4432C9.33428 12.0473 8.69314 11.471 8.21962 10.7662C7.92042 10.3653 7.68423 9.92109 7.51923 9.44887C7.44775 9.26425 7.3931 9.07356 7.35593 8.87912C7.2793 8.53109 7.24037 8.17582 7.2398 7.81946C7.24048 7.00729 7.43585 6.20712 7.80955 5.48603L7.9656 5.19208L7.4031 4.82918L7.81681 4.18685Z" fill="black"/>
<path d="M24.8585 26.3998C24.8585 26.3018 23.3706 16.3875 12.9119 16.3875C2.07577 16.3875 0.210481 26.2655 0.188707 26.3671L0 27.4304H25L24.8585 26.3998ZM2.25722 25.6159C2.98302 23.3297 5.4979 18.2019 12.9119 18.2019C19.9739 18.2019 22.1948 23.3551 22.8299 25.6159H2.25722Z" fill="black"/>
</svg>

