<svg width="15" height="16" viewBox="0 0 15 16" fill="none" xmlns="http://www.w3.org/2000/svg">
<g clip-path="url(#clip0)">
<path d="M5.63659 1.87888C5.3003 1.61671 4.91266 1.42816 4.49882 1.32543C4.03064 1.20174 3.53827 1.20241 3.07043 1.32739C2.60259 1.45237 2.17548 1.69732 1.83136 2.03802C1.71312 2.15941 1.60729 2.29229 1.51545 2.4347L1.36105 2.69123L1.66034 2.88363L1.53207 3.12116C1.3318 3.50128 1.22666 3.92429 1.22566 4.35394C1.22599 4.54012 1.2467 4.72571 1.28742 4.90738C1.30283 5.00685 1.32748 5.10466 1.36105 5.19954C1.44217 5.42673 1.55406 5.64171 1.69359 5.8385L1.72447 5.87413L3.38718 7.53684L2.56533 8.39194L1.08552 6.91213L0.847986 6.63185C0.315865 5.95378 0.0235028 5.11846 0.0166316 4.25655C0.016655 4.01758 0.0381197 3.7791 0.0807656 3.54396C0.130946 3.26245 0.210559 2.98699 0.318295 2.72211L0.00238037 2.48458L0.128271 2.24705C1.07839 0.48933 2.91925 -0.351525 4.79098 0.109283C5.39137 0.274818 5.94671 0.573597 6.41568 0.983392L6.46081 1.02615L9.1734 3.74111C9.91736 4.48657 10.3352 5.49673 10.3352 6.5499C10.3352 7.60307 9.91736 8.61323 9.1734 9.35869C8.78533 9.74141 8.32292 10.0405 7.81473 10.2375L6.86461 9.28743C7.42187 9.19171 7.93563 8.92528 8.33492 8.52496C8.85623 8.00222 9.14897 7.29409 9.14897 6.55584C9.14897 5.81759 8.85623 5.10946 8.33492 4.58672C8.31156 4.56494 8.28936 4.54195 8.26842 4.51783L8.22804 4.47508L5.63659 1.87888ZM13.8314 8.41807C13.8147 8.40382 12.8812 7.46795 12.2565 6.83137H12.2399L11.4086 7.66273L13 9.25893C13.5223 9.78117 13.8156 10.4895 13.8156 11.228C13.8156 11.9666 13.5223 12.6749 13 13.1972C12.4778 13.7194 11.7694 14.0128 11.0309 14.0128C10.2923 14.0128 9.58401 13.7194 9.06176 13.1972C9.06176 13.1972 6.60096 10.7197 6.5867 10.6984C6.0654 10.1756 5.77266 9.46749 5.77266 8.72923C5.77266 7.99098 6.0654 7.28285 6.5867 6.76011C6.98833 6.35864 7.50447 6.09145 8.06414 5.99527L7.11402 5.04515C6.60004 5.24445 6.13337 5.54894 5.74392 5.9391C5.35447 6.32926 5.05083 6.79649 4.85247 7.31083C4.65411 7.82518 4.56541 8.3753 4.59204 8.92592C4.61867 9.47655 4.76006 10.0155 5.00713 10.5083C5.16227 10.8141 5.35541 11.099 5.58195 11.3563L8.24941 14.057C8.99718 14.7998 10.0094 15.215 11.0633 15.2115C12.1173 15.2079 13.1266 14.7858 13.8694 14.038C14.6121 13.2903 15.0274 12.2781 15.0238 11.2241C15.0202 10.1702 14.5981 9.1608 13.8504 8.41807H13.8314Z" fill="black"/>
</g>
<defs>
<clipPath id="clip0">
<rect width="15" height="15.1995" fill="white"/>
</clipPath>
</defs>
</svg>

