
<svg width="50" height="52" viewBox="0 0 50 52" fill="none" xmlns="http://www.w3.org/2000/svg">
<g clip-path="url(#clip0)">
<path d="M49.9842 25.9122C49.4393 -0.68708 14.0973 -10.5591 0.48965 14.3184L2.51935 15.7795C1.51046 17.8796 0.798127 20.1096 0.402776 22.4056C0.136353 23.8861 0.00157078 25.3873 0 26.8915C1.39748e-07 33.523 2.63433 39.8828 7.32348 44.572C12.0126 49.2611 18.3725 51.8955 25.0039 51.8955C31.6354 51.8955 37.9953 49.2611 42.6844 44.572C47.3736 39.8828 50.0079 33.523 50.0079 26.8915C50.0079 26.5703 50 26.2439 49.9842 25.9122ZM45.9011 26.3861C45.9011 26.6704 45.9011 26.9547 45.9011 27.239V27.3812C45.7824 30.0418 45.2081 32.6623 44.2031 35.1287C43.068 37.7438 41.4159 40.1025 39.3461 42.0629C35.518 45.8001 30.4299 47.9695 25.0829 48.1441C18.1014 48.381 11.9175 44.7165 8.07139 39.2276C6.88239 37.658 5.93964 35.9163 5.27563 34.0626C4.99138 33.3141 4.77207 32.5425 4.62012 31.7565C4.31535 30.3767 4.16175 28.9679 4.16206 27.5549C4.15873 24.3226 4.93346 21.137 6.42078 18.2673L4.24103 16.8615L6.49976 13.3786C7.18395 12.292 7.97787 11.2784 8.86905 10.3538C11.4565 7.78598 14.671 5.93995 18.1929 4.99921C21.7148 4.05846 25.4216 4.05574 28.9449 4.99133C33.3539 6.03882 37.3324 8.42123 40.3373 11.8135C43.3422 15.2057 45.2273 19.4425 45.7353 23.9457V24.1589C45.7353 24.2616 45.7353 24.3643 45.7353 24.4669C45.7353 24.7512 45.7827 25.0435 45.7984 25.3436C45.7984 25.4541 45.7984 25.5647 45.7984 25.6753C45.7984 25.7858 45.7984 26.0228 45.7984 26.2044L45.9011 26.3861Z" fill="black"/>
<path d="M29.2213 26.0621C29.2213 28.243 27.4533 30.0109 25.2725 30.0109C23.0916 30.0109 21.3236 28.243 21.3236 26.0621C21.3236 23.8812 23.0916 22.1133 25.2725 22.1133C27.4533 22.1133 29.2213 23.8812 29.2213 26.0621Z" fill="black"/>
<path class="rotate-slow-360" d="M25.2725 26.0789V7.10791" stroke="black" stroke-width="4"/>
<path class="rotate-speed-360" d="M25.2725 26.062H41.0835" stroke="black" stroke-width="4"/>
</g>
<defs>
<clipPath id="clip0">
<rect width="50" height="51.8717" fill="white"/>
</clipPath>
</defs>
</svg>
