<svg width="50" height="52" viewBox="0 0 50 52" fill="none" xmlns="http://www.w3.org/2000/svg">
<g clip-path="url(#clip0)">
<path d="M50 51.801V23.8704H45.9776L45.9506 11.8517H41.9767L41.9497 -0.0107422H0V2.68526H3.62342V27.9198H6.44344V39.7822H9.33355V51.801H50ZM39.3077 25.2346H6.31942V2.69604H39.2591L39.3077 25.2346ZM42.0037 14.5477H43.2816L43.3301 37.0916H9.13944V27.9252H42.0306L42.0037 14.5477ZM46.0045 26.5664H47.3202V49.1104H12.0242V39.7822H45.9937L46.0045 26.5664ZM17.6804 10.6007C17.4276 10.162 17.053 9.80614 16.602 9.57623C16.0866 9.32035 15.5164 9.19447 14.9412 9.20957H11.6198V18.7211H13.6849V15.0275H14.9358C15.5108 15.0401 16.0803 14.9143 16.5966 14.6609C17.0478 14.4288 17.4223 14.0711 17.675 13.631C17.926 13.1655 18.0575 12.6448 18.0575 12.1159C18.0575 11.5869 17.926 11.0663 17.675 10.6007H17.6804ZM15.7392 12.9193C15.5142 13.1148 15.2229 13.217 14.925 13.205H13.6849V11.0482H14.925C15.2222 11.0348 15.5134 11.1351 15.7392 11.3286C15.9439 11.5482 16.0577 11.8372 16.0577 12.1374C16.0577 12.4376 15.9439 12.7266 15.7392 12.9462V12.9193ZM25.186 10.6007C24.9326 10.1626 24.5581 9.8069 24.1076 9.57623C23.5942 9.32038 23.0258 9.19448 22.4523 9.20957H19.1254V18.7211H21.1906V15.0275H22.4415C23.0147 15.04 23.5825 14.9143 24.0968 14.6609C24.5477 14.4283 24.9221 14.0707 25.1752 13.631C25.4226 13.1643 25.552 12.6441 25.552 12.1159C25.552 11.5876 25.4226 11.0674 25.1752 10.6007H25.186ZM23.2395 12.9193C23.1276 13.0238 22.9962 13.1052 22.8528 13.1589C22.7094 13.2125 22.5568 13.2374 22.4038 13.232H21.1906V11.0752H22.4038C22.7011 11.0607 22.9926 11.1611 23.2179 11.3556C23.4226 11.5752 23.5364 11.8642 23.5364 12.1644C23.5364 12.4646 23.4226 12.7536 23.2179 12.9732L23.2395 12.9193ZM34.0235 11.1669H31.3599V18.7157H29.2893V11.1669H26.5933V9.20957H34.0019L34.0235 11.1669Z" fill="black"/>
</g>
<defs>
<clipPath id="clip0">
<rect width="50" height="51.8009" fill="white"/>
</clipPath>
</defs>
</svg>
