<svg width="50" height="38" viewBox="0 0 50 38" fill="none" xmlns="http://www.w3.org/2000/svg">
<g clip-path="url(#clip0)">
<path d="M48.9805 33.5908L50 31.981L35.3617 22.5799L34.3475 24.1575L26.0571 18.7915C26.5542 17.3759 26.8082 15.8864 26.8083 14.3861C26.8083 14.2108 26.8083 14.0319 26.8083 13.8495C26.7765 10.7307 25.703 7.71213 23.7584 5.27364C21.8138 2.83516 19.1099 1.11675 16.0764 0.391638C9.72849 -1.13229 3.54154 1.7224 0.289769 7.67324L0.171717 7.88252L1.24491 8.65521C0.757124 9.7226 0.40731 10.8478 0.203914 12.0036C-0.343032 15.0461 0.177595 18.1842 1.67775 20.8871C3.1779 23.59 5.56552 25.6918 8.43681 26.8372C11.3081 27.9826 14.4868 28.1011 17.4355 27.1729C20.3841 26.2446 22.9217 24.3264 24.619 21.7428L32.6036 26.8834L31.584 28.4663L46.217 37.8943L48.1058 34.9645L48.9805 33.6123V33.5908ZM3.90642 7.45861C4.2623 6.90441 4.67211 6.38676 5.12986 5.91321C6.45835 4.59998 8.10661 3.65625 9.91165 3.17535C11.7167 2.69444 13.616 2.69301 15.4218 3.1712C17.6905 3.70974 19.737 4.93688 21.2809 6.68436C22.8247 8.43184 23.7901 10.6141 24.0449 12.9319V13.1626C24.0449 13.3075 24.0449 13.4524 24.0771 13.608V13.8709C24.0771 13.93 24.0771 13.989 24.0771 14.048V14.1339C24.0771 14.2787 24.0771 14.4236 24.0771 14.5739V14.6436C24.0199 16.0088 23.7276 17.354 23.2131 18.6198C22.3676 20.5363 21.0019 22.1776 19.271 23.3575C17.5401 24.5373 15.5133 25.2086 13.4203 25.2951C11.7013 25.3188 10.0037 24.9126 8.48181 24.1132C6.95989 23.3138 5.66193 22.1467 4.70595 20.7179C4.10193 19.9133 3.62423 19.0212 3.28934 18.0725C3.14616 17.6961 3.03487 17.3084 2.95665 16.9134C2.8011 16.2085 2.72194 15.4889 2.72055 14.767C2.7201 13.1123 3.11763 11.4817 3.87959 10.0128L3.99228 9.7928L2.86543 9.06839L3.90642 7.45861Z" fill="black"/>
<path d="M12.0305 21.1312H15.25V15.7813H20.5999V12.5618H15.25V7.21191H12.0305V12.5618H6.6806V15.7813H12.0305V21.1312Z" fill="black"/>
</g>
<defs>
<clipPath id="clip0">
<rect width="50" height="37.8729" fill="white"/>
</clipPath>
</defs>
</svg>
