<svg width="50" height="32" viewBox="0 0 50 32" fill="none" xmlns="http://www.w3.org/2000/svg">
<g clip-path="url(#clip0)">
<path d="M39.8696 25.4984L37.9621 23.5962C38.9752 22.6061 39.7802 21.4234 40.3298 20.1177C40.8794 18.812 41.1625 17.4097 41.1625 15.9931C41.1625 14.5764 40.8794 13.1741 40.3298 11.8684C39.7802 10.5627 38.9752 9.38004 37.9621 8.38986L39.8696 6.48233C41.1347 7.7216 42.1398 9.2009 42.826 10.8335C43.5122 12.4662 43.8656 14.2194 43.8656 15.9904C43.8656 17.7613 43.5122 19.5145 42.826 21.1472C42.1398 22.7798 41.1347 24.2591 39.8696 25.4984V25.4984ZM43.8086 1.01838L41.9011 2.92052C45.3637 6.38883 47.3085 11.0895 47.3085 15.9904C47.3085 20.8913 45.3637 25.5919 41.9011 29.0602L43.8086 30.9677C47.7737 26.9928 50.0004 21.6075 50.0004 15.9931C50.0004 10.3786 47.7737 4.99333 43.8086 1.01838V1.01838ZM37.4017 16.672C37.2347 17.8744 36.8181 19.0286 36.1787 20.0605C35.5394 21.0924 34.6913 21.9792 33.689 22.664V31.5012L31.5012 29.7607C29.5926 28.2422 27.5365 26.919 25.3637 25.8109C22.849 24.5326 20.2042 23.5282 17.4749 22.8149L16.4781 22.5563H14.3227L16.2841 31.9808H9.60233L7.27988 22.5563H3.62108V11.6391H0V8.94488H16.4781L17.4696 8.67007C20.0719 7.96587 22.5987 7.00749 25.0135 5.80876C27.3095 4.66157 29.4864 3.28978 31.512 1.7135L33.6674 0.0161133V8.90716C34.9296 9.74699 35.9424 10.9112 36.5995 12.2774C37.2565 13.6437 37.5336 15.1617 37.4017 16.672V16.672ZM12.9432 29.2865L11.5476 22.5563H10.055L11.7146 29.2865H12.9432ZM16.4781 11.6391H6.31534V19.862H16.4781V11.6391ZM31.0271 5.40463C29.4758 6.45049 27.8555 7.39024 26.1774 8.21743C23.9263 9.34024 21.5826 10.2669 19.1723 10.9871V20.4871C21.7354 21.2224 24.222 22.2022 26.5977 23.413C28.1214 24.191 29.5937 25.0657 31.0055 26.0318L31.0271 5.40463ZM33.7213 12.6306V18.9567C34.2877 18.2108 34.6449 17.3272 34.7559 16.3972C34.885 15.0523 34.5042 13.708 33.689 12.6306H33.7213Z" fill="black"/>
</g>
<defs>
<clipPath id="clip0">
<rect width="50" height="31.9808" fill="white"/>
</clipPath>
</defs>
</svg>
