<svg width="25" height="46" viewBox="0 0 25 46" fill="none" xmlns="http://www.w3.org/2000/svg">
<g clip-path="url(#clip0)">
<path d="M25 20.0581V15.1919H22.093V20.0581C22.093 22.6024 21.0823 25.0424 19.2833 26.8414C17.4843 28.6405 15.0442 29.6512 12.5 29.6512C9.95577 29.6512 7.51575 28.6405 5.71671 26.8414C3.91767 25.0424 2.90698 22.6024 2.90698 20.0581V15.1919H0V20.0581C0.00454471 23.1195 1.13134 26.073 3.16708 28.3595C5.20281 30.6459 8.00619 32.1066 11.0465 32.4651V37.8837L5.7093 42.7384H1.80814V45.6454H22.3837L13.9593 37.8837V32.4651C16.9986 32.1053 19.8006 30.644 21.8351 28.3577C23.8696 26.0714 24.9956 23.1186 25 20.0581V20.0581ZM14.936 42.7326H10.0291L12.5 40.5116L14.936 42.7326ZM12.1105 28.0988H12.8895C14.9193 28.0973 16.8654 27.2899 18.3001 25.8541C19.7348 24.4183 20.5407 22.4716 20.5407 20.4419V7.65116C20.5392 5.62242 19.7326 3.67721 18.298 2.24267C16.8635 0.808136 14.9183 0.00153984 12.8895 0H12.1105C10.0817 0.00153984 8.13652 0.808136 6.70198 2.24267C5.26744 3.67721 4.46085 5.62242 4.45931 7.65116V20.4419C4.4593 22.4716 5.26522 24.4183 6.69993 25.8541C8.13463 27.2899 10.0807 28.0973 12.1105 28.0988V28.0988ZM12.1105 2.90698H12.8895C14.1473 2.90852 15.3531 3.40884 16.2425 4.29822C17.1319 5.18759 17.6322 6.3934 17.6337 7.65116V8.13954H13.75V11.0465H17.6337V12.6047H13.75V15.5116H17.6337V17.0523H13.75V19.9593H17.6337V20.4477C17.6337 21.7064 17.1341 22.9137 16.2445 23.8044C15.355 24.695 14.1483 25.1961 12.8895 25.1977H12.1105C10.8517 25.1961 9.64501 24.695 8.75547 23.8044C7.86593 22.9137 7.36628 21.7064 7.36628 20.4477V19.9593H11.343V17.0523H7.36628V15.5116H11.343V12.6047H7.36628V11.0465H11.3372V8.13954H7.36628V7.65116C7.36782 6.3934 7.86815 5.18759 8.75752 4.29822C9.64689 3.40884 10.8527 2.90852 12.1105 2.90698V2.90698Z" fill="black"/>
</g>
<defs>
<clipPath id="clip0">
<rect width="25" height="45.6454" fill="white"/>
</clipPath>
</defs>
</svg>
