<svg width="50" height="50" viewBox="0 0 50 50" fill="none" xmlns="http://www.w3.org/2000/svg">
<g clip-path="url(#clip0)">
<path d="M32.6419 24.6569L37.7369 19.5619C39.3883 19.9519 41.1119 19.9154 42.7453 19.4558C44.3788 18.9962 45.8685 18.1287 47.0742 16.9347C48.4591 15.557 49.4054 13.8004 49.794 11.8859C50.1825 9.97153 49.996 7.98495 49.2578 6.17635L48.4121 4.09677L41.9376 10.5643L39.9759 10.0305L39.4422 8.06876L45.9096 1.60128L43.8301 0.748647C42.1883 0.079103 40.397 -0.137833 38.6429 0.120444C36.8887 0.37872 35.236 1.10276 33.8569 2.21709C32.4777 3.33143 31.4227 4.79527 30.8018 6.45604C30.1809 8.11682 30.0168 9.91373 30.3267 11.6595V11.6595L24.0047 17.9814L16.6846 10.6821L12.9137 4.44337L5.37173 0L0.0826649 5.2752L4.31114 12.831L10.8757 16.5742L18.1334 23.8666L1.64928 40.3508C0.610992 41.3807 0.018561 42.7772 -0.000517456 44.2396C-0.0153225 44.947 0.111597 45.6502 0.372763 46.3078C0.633929 46.9654 1.02406 47.5641 1.52018 48.0687C2.01629 48.5732 2.60836 48.9733 3.2615 49.2455C3.91463 49.5176 4.61563 49.6563 5.3232 49.6534C5.55488 49.6529 5.78633 49.639 6.0164 49.6118C7.25503 49.4481 8.40508 48.8804 9.28827 47.9967L24.9267 32.3721L40.2255 47.6709C41.2486 48.694 42.6362 49.2688 44.0831 49.2688C45.53 49.2688 46.9176 48.694 47.9407 47.6709C48.9638 46.6478 49.5386 45.2601 49.5386 43.8133C49.5386 42.3664 48.9638 40.9787 47.9407 39.9556L32.6419 24.6569ZM33.4946 12.7409L33.6401 12.6022L33.4044 11.7635C33.1209 10.7278 33.0818 9.64045 33.2903 8.5871C33.4987 7.53375 33.9491 6.54324 34.6057 5.69366C35.2624 4.84409 36.1075 4.15868 37.0743 3.69149C38.0411 3.2243 39.1032 2.9881 40.1769 3.00152H40.2671L36.1079 7.16068L37.5497 12.4636L42.8041 13.9054L46.9633 9.74629V9.82947C46.9773 10.9375 46.7254 12.0328 46.2288 13.0234C45.7322 14.0141 45.0053 14.8712 44.1091 15.523C43.2129 16.1748 42.1735 16.6022 41.078 16.7694C39.9826 16.9367 38.863 16.8388 37.8132 16.4841C36.8631 16.0212 35.9776 15.4363 35.179 14.7442L34.9711 14.4947L32.8915 16.6158L33.1549 16.8585C33.6826 17.3378 34.2483 17.7736 34.8463 18.1617L30.7357 22.2723L28.2471 17.9606L33.4946 12.7409ZM12.7889 14.1273L6.61254 10.5781L3.98534 5.80896L5.89162 3.90268L10.6816 6.67545L14.2307 12.5953L21.8559 20.1858L20.4071 21.6415L12.7889 14.1273ZM7.17403 45.9032C6.76455 46.3186 6.22757 46.5847 5.64901 46.6588C5.28751 46.7033 4.92061 46.6639 4.57679 46.5437C4.23297 46.4235 3.92147 46.2257 3.66647 45.9656C3.43787 45.7415 3.25823 45.4724 3.13892 45.1753C3.01961 44.8782 2.96321 44.5596 2.97328 44.2396C2.9913 43.5675 3.26967 42.9288 3.74966 42.4581L18.1681 28.0674L22.5837 30.4728L7.17403 45.9032ZM45.7294 45.4873C45.2915 45.9242 44.6982 46.1695 44.0796 46.1695C43.4611 46.1695 42.8677 45.9242 42.4298 45.4873L25.4743 28.4902L20.7537 25.9115L26.1329 20.5324L28.8224 25.2322L45.7502 42.16C45.9662 42.3783 46.137 42.6371 46.2529 42.9215C46.3688 43.206 46.4274 43.5105 46.4255 43.8176C46.4235 44.1247 46.3611 44.4284 46.2416 44.7114C46.1222 44.9943 45.9481 45.2509 45.7294 45.4665V45.4873Z" fill="black"/>
</g>
<defs>
<clipPath id="clip0">
<rect width="50" height="49.6534" fill="white"/>
</clipPath>
</defs>
</svg>
