<svg width="50" height="52" viewBox="0 0 50 52" fill="none" xmlns="http://www.w3.org/2000/svg">
<g clip-path="url(#clip0)">
<path d="M49.9838 25.9057C49.4338 -0.66338 14.0974 -10.5631 0.493368 14.3318L2.52345 15.7876C1.51366 17.8896 0.800508 20.1216 0.4044 22.4198C0.138233 23.8986 0.00290924 25.3979 0 26.9005C0.117873 33.4541 2.80403 39.6995 7.48037 44.2925C12.1567 48.8855 18.4494 51.4589 25.004 51.4589C31.5587 51.4589 37.8514 48.8855 42.5277 44.2925C47.204 39.6995 49.8902 33.4541 50.0081 26.9005C50.0081 26.5716 50 26.24 49.9838 25.9057ZM45.9398 26.3748C45.9398 26.6579 45.9398 26.949 45.9398 27.2321C45.9359 27.2779 45.9359 27.3239 45.9398 27.3696C45.8237 30.0301 45.252 32.6509 44.2494 35.1179C42.5889 38.8715 39.9066 42.0828 36.5087 44.3852C33.1108 46.6877 29.1341 47.9886 25.0323 48.1396C18.0524 48.3661 11.8651 44.7103 8.04755 39.2428C6.86994 37.6725 5.9373 35.9327 5.28146 34.0826C4.99471 33.332 4.77283 32.5581 4.61825 31.7695C4.31238 30.3912 4.15779 28.9836 4.15723 27.5718C4.15805 24.3418 4.93765 21.1595 6.42996 18.2949L4.2462 16.8876L6.51083 13.4016C7.21453 12.3133 8.02755 11.2998 8.93723 10.3767C11.5235 7.81 14.7363 5.96462 18.2564 5.02392C21.7766 4.08322 25.4817 4.07993 29.0036 5.01439C33.4108 6.05982 37.3886 8.43875 40.3947 11.827C43.4009 15.2152 45.2892 19.448 45.8023 23.9484V24.1668V24.4741C45.8023 24.7653 45.8509 25.0564 45.867 25.3476C45.867 25.4608 45.867 25.5741 45.867 25.6873C45.867 25.8005 45.867 26.0351 45.867 26.2049L45.9398 26.3748Z" fill="black"/>
<path d="M27.022 13.2319H22.978V24.725H11.485V28.7609H22.978V40.2539H27.022V28.7609H38.515V24.725H27.022V13.2319Z" fill="black"/>
</g>
<defs>
<clipPath id="clip0">
<rect width="50" height="51.8683" fill="white"/>
</clipPath>
</defs>
</svg>
