<svg width="53" height="48" viewBox="0 0 33 28" fill="none" xmlns="http://www.w3.org/2000/svg">
<g clip-path="url(#clip0)">
<path d="M32.193 12.2277L28.2164 2.12508H30.5079V0H2.63431V2.12508H4.78776L0.811202 12.2277H0V13.2902C0.0386998 14.6883 0.612301 16.0159 1.59888 16.9909C2.58547 17.9659 3.90724 18.5113 5.28326 18.5113C6.65929 18.5113 7.98106 17.9659 8.96764 16.9909C9.95422 16.0159 10.5278 14.6883 10.5665 13.2902V12.2277H9.75532L5.77876 2.12508H15.5257V22.3175L11.683 25.8707H8.87722V27.9957H23.6879L17.6164 22.3218V2.12508H27.2338L23.2572 12.2277H22.4335V13.2902C22.4335 14.7139 22.9899 16.0792 23.9803 17.0859C24.9707 18.0926 26.314 18.6582 27.7146 18.6582C29.1153 18.6582 30.4586 18.0926 31.449 17.0859C32.4394 16.0792 32.9958 14.7139 32.9958 13.2902V12.2277H32.193ZM5.28953 16.5331C4.62655 16.5326 3.98015 16.3224 3.43996 15.9317C2.89976 15.5411 2.49252 14.9892 2.27471 14.3528H8.30018C8.0826 14.9885 7.676 15.5399 7.13664 15.9305C6.59727 16.3211 5.9518 16.5317 5.28953 16.5331ZM3.06082 12.2277L5.28953 6.58348L7.5057 12.2277H3.06082ZM14.7898 25.8707L16.5794 24.2301L18.3357 25.8707H14.7898ZM27.7188 6.58348L29.9601 12.2277H25.4985L27.7188 6.58348ZM27.7188 16.5331C27.0558 16.5326 26.4095 16.3224 25.8693 15.9317C25.3291 15.5411 24.9218 14.9892 24.704 14.3528H30.7337C30.5169 14.9899 30.11 15.5425 29.5695 15.9333C29.0291 16.3242 28.3821 16.5338 27.7188 16.5331Z" fill="#222222"/>
</g>
<defs>
<clipPath id="clip0">
<rect width="33" height="28" fill="white"/>
</clipPath>
</defs>
</svg>
