<svg width="50" height="37" viewBox="0 0 50 37" fill="none" xmlns="http://www.w3.org/2000/svg">
<g clip-path="url(#clip0)">
<path d="M50 36.2216L49.9169 2.48838H44.3164V-0.00598145H41.3469V2.4765H33.8698V-0.00598145H30.9003V2.4765H23.3282V-0.00598145H20.3587V2.4765H12.7866V-0.00598145H9.81708V2.4765H0V5.44597H3.97909V36.2216H50ZM6.94857 5.45191H9.81708V7.82749H12.7866V5.45191H20.3587V7.82749H23.3282V5.45191H30.9003V7.82749H33.8698V5.45191H41.3469V7.82749H44.3164V5.45191H46.9533L47.0186 33.2462H6.94857V5.45191ZM13.6299 11.183H40.3551V14.1525H13.6299V11.183ZM13.6299 17.7158H18.9749V23.0609H13.6299V17.7158ZM24.3675 17.7158H29.7126V23.0609H24.3675V17.7158ZM35.0101 17.7158H40.3551V23.0609H35.0101V17.7158ZM13.6299 24.9911H18.9749V30.3361H13.6299V24.9911ZM24.3675 24.9911H29.7126V30.3361H24.3675V24.9911ZM35.0101 24.9911H40.3551V30.3361H35.0101V24.9911Z" fill="black"/>
</g>
<defs>
<clipPath id="clip0">
<rect width="50" height="36.2157" fill="white"/>
</clipPath>
</defs>
</svg>
