<svg width="50" height="50" viewBox="0 0 50 50" fill="none" xmlns="http://www.w3.org/2000/svg">
<g clip-path="url(#clip0)">
<path d="M44.2828 38.8307L41.9511 41.3052L43.4534 42.7192H40.8294V9.92522H31.6247V42.7192H29.9388V21.6451H20.7274V42.7192H19.0483V33.3447H9.83685V42.7192H7.96737V6.45819L9.44936 7.8654L11.7811 5.39089L6.0911 0L0.652618 5.7172L3.12713 8.04895L4.54113 6.54657V42.7192H-0.0271912V46.1183H43.4806L42.121 47.6003L44.5955 49.932L49.9864 44.2216L44.2828 38.8307ZM13.2359 42.7192V36.7437H15.6492V42.7192H13.2359ZM24.1129 42.7192V25.0442H26.5262V42.7192H24.1129ZM34.9898 42.7192V13.3243H37.3963V42.7192H34.9898Z" fill="black"/>
</g>
<defs>
<clipPath id="clip0">
<rect width="50" height="49.932" fill="white"/>
</clipPath>
</defs>
</svg>
