<svg width="50" height="58" viewBox="0 0 50 58" fill="none" xmlns="http://www.w3.org/2000/svg">
<g clip-path="url(#clip0)">
<path d="M5.48665 16.8143C5.46193 17.5333 5.5822 18.2499 5.84028 18.9214C6.09836 19.5929 6.48898 20.2056 6.98886 20.723C7.48873 21.2403 8.08764 21.6517 8.74988 21.9327C9.41213 22.2137 10.1242 22.3586 10.8436 22.3586C11.563 22.3586 12.275 22.2137 12.9372 21.9327C13.5995 21.6517 14.1984 21.2403 14.6983 20.723C15.1981 20.2056 15.5888 19.5929 15.8468 18.9214C16.1049 18.2499 16.2252 17.5333 16.2005 16.8143C16.2018 15.3445 15.6349 13.9312 14.6182 12.8697C13.6016 11.8082 12.2139 11.1809 10.7455 11.1188C9.70168 11.0809 8.66715 11.3269 7.75217 11.8306C6.83719 12.3344 6.07606 13.077 5.54993 13.9792L5.41704 14.1754L5.9676 14.5425C5.60811 15.2435 5.44209 16.0277 5.48665 16.8143ZM10.7202 14.321C11.3425 14.3803 11.9209 14.6679 12.3438 15.1282C12.7668 15.5886 13.0045 16.1892 13.011 16.8143C13.011 17.395 12.7803 17.952 12.3697 18.3626C11.9591 18.7732 11.4021 19.0039 10.8214 19.0039C10.2407 19.0039 9.68376 18.7732 9.27314 18.3626C8.86251 17.952 8.63182 17.395 8.63182 16.8143C8.61821 16.6017 8.63742 16.3883 8.68877 16.1815L8.828 15.9853L8.29009 15.6119C8.53221 15.1895 8.88884 14.8442 9.31881 14.6158C9.74879 14.3873 10.2346 14.2851 10.7202 14.321V14.321ZM49.9557 0H16.9599V3.16416H21.2062V22.9844H27.8066L27.1042 24.5792L20.8455 28.8128L17.4282 23.8831H5.17023L0 31.4137L5.17023 38.9381V57.9863H8.33439V41.7226H14.264V57.9863H17.4282V29.4646L19.9975 33.1983L22.5794 31.4264L24.6741 30.0025L20.8455 38.666L23.7375 39.9317L31.2429 22.9844H50L49.9557 0ZM3.84129 31.4137L5.17023 29.4773V33.3502L3.84129 31.4137ZM8.33439 27.0472H14.264V38.5584H8.33439V27.0472ZM46.8359 19.8203H32.6351L36.508 11.0302L33.616 9.76459L29.1862 19.8329H24.3767V3.16416H46.8422L46.8359 19.8203Z" fill="black"/>
</g>
<defs>
<clipPath id="clip0">
<rect width="50" height="57.9927" fill="white"/>
</clipPath>
</defs>
</svg>
