<svg width="50" height="45" viewBox="0 0 50 45" fill="none" xmlns="http://www.w3.org/2000/svg">
<g clip-path="url(#clip0)">
<path d="M45.9082 4.13047C43.2793 1.50216 39.714 0.0256392 35.9966 0.0256392C32.2791 0.0256392 28.7139 1.50216 26.0849 4.13047L25.0155 5.20766L23.9228 4.11497C21.2961 1.48932 17.734 0.0146545 14.02 0.0153811C10.3061 0.0161078 6.74453 1.49217 4.11888 4.11885C1.49323 6.74553 0.0185607 10.3077 0.0192874 14.0216C0.020014 17.7356 1.49607 21.2971 4.12275 23.9228L23.7213 43.5214C24.0574 43.8553 24.5108 44.0444 24.9845 44.0483C25.2189 44.0495 25.4512 44.0042 25.668 43.9151C25.8848 43.826 26.0819 43.6948 26.2477 43.5291L45.8927 23.9615C48.5177 21.3292 49.9918 17.7635 49.9918 14.046C49.9918 10.3285 48.5177 6.76276 45.8927 4.13047H45.9082ZM22.8301 12.4535L26.2089 9.08243L26.2787 9.02043L28.6035 6.69557C29.5525 5.65249 30.7033 4.81284 31.9863 4.22743C33.2692 3.64201 34.6576 3.32302 36.0673 3.28975C37.4771 3.25648 38.879 3.50963 40.1881 4.03388C41.4972 4.55813 42.6864 5.34257 43.6835 6.33971C44.6807 7.33686 45.4651 8.52598 45.9893 9.83509C46.5136 11.1442 46.7667 12.5461 46.7335 13.9559C46.7002 15.3657 46.3812 16.754 45.7958 18.037C45.2104 19.3199 44.3707 20.4707 43.3276 21.4197L24.9845 39.7241L6.6491 21.3887C5.63869 20.4318 4.83028 19.2821 4.27162 18.0076C3.71296 16.733 3.41538 15.3595 3.39645 13.968C3.37753 12.5765 3.63765 11.1953 4.16144 9.90607C4.68523 8.6168 5.46207 7.44557 6.44608 6.46155C7.4301 5.47754 8.60133 4.70069 9.8906 4.1769C11.1799 3.65311 12.561 3.393 13.9525 3.41193C15.344 3.43085 16.7176 3.72843 17.9921 4.28709C19.2667 4.84575 20.4163 5.65416 21.3732 6.66457L22.2567 7.54027L20.0868 9.71014L22.8301 12.4535Z" fill="black"/>
</g>
<defs>
<clipPath id="clip0">
<rect width="50" height="44.0484" fill="white"/>
</clipPath>
</defs>
</svg>
