<svg width="50" height="55" viewBox="0 0 50 55" fill="none" xmlns="http://www.w3.org/2000/svg">
<g clip-path="url(#clip0)">
<path d="M13.8533 31.3752L18.7542 22.9687L14.219 15.3106H18.8555L20.6842 18.5573L21.1963 19.9415L21.6858 18.6023L23.537 15.3106H28.1735L23.6214 22.9687L28.5224 31.3752H23.7115L21.7927 27.7909L21.1963 26.3336L20.6054 27.7628L18.6754 31.3752H13.8533ZM15.153 54.0569V45.8136H3.78123V2.81341H0V0H38.555V8.24893H49.9325L49.9944 54.0569H15.153ZM47.1303 19.8458V11.0567H42.8652V19.8458H47.1303ZM47.1303 30.368V22.6536H42.8483V30.368H47.1303ZM47.1303 40.8958V33.1814H42.837V40.8958H47.1303ZM47.1303 51.2492V43.7036H42.8258V51.2492H47.1303ZM35.7529 2.81341H6.59464V43.0002H35.7979L35.7529 2.81341ZM38.5663 19.8458H40.0405V11.0567H38.555L38.5663 19.8458ZM38.5663 22.6592V30.3736H40.0293V22.6536L38.5663 22.6592ZM38.5663 33.187V40.9014H40.0124V33.1814L38.5663 33.187ZM38.5663 45.8193H34.6275V51.2548H40.0011V43.7036H38.6113L38.5663 45.8193ZM26.3561 45.8193V51.2548H31.8591V45.8193H26.3561ZM17.9158 45.8193V51.2548H23.5427V45.8193H17.9158Z" fill="black"/>
</g>
<defs>
<clipPath id="clip0">
<rect width="50" height="54.0569" fill="white"/>
</clipPath>
</defs>
</svg>
