<svg width="40" height="51" viewBox="0 0 40 51" fill="none" xmlns="http://www.w3.org/2000/svg">
<g clip-path="url(#clip0)">
<path d="M31.8889 6.45752V2.98039H27.5621C26.8562 1.12418 24.8889 0 22.1699 0C19.451 0 17.5098 1.12418 16.8039 2.98039H12.4771V6.45752H4.38562V46.8954H0V50.1634H40.0065V6.45752H31.8889ZM12.9346 15.1961H31.4314V42.0784H12.9673L12.9346 15.1961ZM15.7124 6.24183H19.7516V4.60784C19.7516 3.4902 21.0588 3.26144 22.1634 3.26144C23.268 3.26144 24.5752 3.4902 24.5752 4.60784V6.24183H28.6209V11.9281H15.7451L15.7124 6.24183ZM36.7059 46.8954H7.65359V9.72549H12.4771V11.9281H9.69935V45.3464H34.6994V11.9346H31.8889V9.72549H36.7124L36.7059 46.8954ZM15.6209 18.2549H28.7712V21.5229H15.6209V18.2549ZM15.6209 24.1961H28.7712V27.4641H15.6209V24.1961ZM15.6209 30.1373H28.7712V33.4052H15.6209V30.1373ZM15.6209 36.0784H28.7712V39.3464H15.6209V36.0784Z" fill="black"/>
</g>
<defs>
<clipPath id="clip0">
<rect width="40" height="50.1699" fill="white"/>
</clipPath>
</defs>
</svg>
