<?xml version="1.0" encoding="UTF-8"?>
<svg width="15" height="11" fill="none" viewBox="0 0 50 37" xmlns="http://www.w3.org/2000/svg">
<g clip-path="url(#a)">
<path d="m50 36.222-0.0831-33.733h-5.6005v-2.4944h-2.9695v2.4825h-7.4771v-2.4825h-2.9695v2.4825h-7.5721v-2.4825h-2.9695v2.4825h-7.5721v-2.4825h-2.9695v2.4825h-9.8171v2.9695h3.9791v30.776h46.021zm-43.051-30.77h2.8685v2.3756h2.9695v-2.3756h7.5721v2.3756h2.9695v-2.3756h7.5721v2.3756h2.9695v-2.3756h7.4771v2.3756h2.9695v-2.3756h2.6369l0.0653 27.794h-40.07v-27.794zm6.6813 5.7311h26.725v2.9695h-26.725v-2.9695zm0 6.5328h5.345v5.3451h-5.345v-5.3451zm10.738 0h5.3451v5.3451h-5.3451v-5.3451zm10.643 0h5.345v5.3451h-5.345v-5.3451zm-21.38 7.2753h5.345v5.345h-5.345v-5.345zm10.738 0h5.3451v5.345h-5.3451v-5.345zm10.643 0h5.345v5.345h-5.345v-5.345z" fill="#000"/>
</g>
<defs>
<clipPath id="a">
<rect width="50" height="36.216" fill="#fff"/>
</clipPath>
</defs>
</svg>
