<svg width="19" height="21" viewBox="0 0 40 42" fill="none" xmlns="http://www.w3.org/2000/svg">
<g clip-path="url(#clip0)">
<path d="M19.9967 12.3505C19.7372 12.3472 19.4798 12.3973 19.2404 12.4976C19.0011 12.5979 18.7849 12.7463 18.6053 12.9336C18.4184 13.1149 18.2704 13.3324 18.1701 13.5727C18.0699 13.813 18.0196 14.0712 18.0222 14.3316C18.0289 14.7193 18.1488 15.0966 18.3673 15.417C18.5857 15.7374 18.8931 15.9869 19.2515 16.1348C19.61 16.2827 20.0039 16.3225 20.3847 16.2494C20.7655 16.1762 21.1166 15.9932 21.3947 15.723C21.5808 15.5424 21.7283 15.3261 21.8285 15.0869C21.9287 14.8478 21.9795 14.5909 21.9778 14.3316C21.9789 14.0714 21.9279 13.8137 21.8277 13.5736C21.7276 13.3335 21.5803 13.1158 21.3947 12.9336C21.2136 12.7464 20.9962 12.5982 20.7558 12.4979C20.5154 12.3977 20.2571 12.3475 19.9967 12.3505V12.3505Z" fill="#173AF1"/>
<path d="M21.6598 17.8699H18.3469V29.147H21.6598V17.8699Z" fill="#173AF1"/>
<path d="M40 20.7255C39.5627 -0.530099 11.2904 -8.42806 0.404169 11.4494L2.03412 12.6155C0.721225 15.3957 0.042292 18.4328 0.0463745 21.5073C0.141777 26.7486 2.29085 31.743 6.0312 35.4159C9.77154 39.0888 14.8042 41.1466 20.0464 41.1466C25.2885 41.1466 30.3212 39.0888 34.0616 35.4159C37.8019 31.743 39.951 26.7486 40.0464 21.5073C40 21.2556 40 20.9905 40 20.7255ZM36.6871 21.0833C36.6871 21.3152 36.6871 21.5405 36.6871 21.7459C36.6903 21.7833 36.6903 21.821 36.6871 21.8585C36.6038 23.9843 36.1556 26.0798 35.3619 28.0536C34.0391 31.0454 31.9048 33.6068 29.2009 35.4478C26.4969 37.2887 23.3313 38.3354 20.0629 38.4694C14.4774 38.6549 9.52791 35.7263 6.45353 31.3334C5.50912 30.0924 4.75643 28.7165 4.22064 27.2519C3.99504 26.6508 3.81779 26.0326 3.69057 25.4033C3.44764 24.2978 3.32545 23.1693 3.32615 22.0374C3.32754 19.4611 3.9479 16.9229 5.13499 14.6364L3.38578 13.5166L5.19463 10.7272C5.751 9.85736 6.39244 9.04502 7.10949 8.3021C9.18087 6.2499 11.7526 4.77471 14.5699 4.02275C17.3871 3.27079 20.3519 3.2682 23.1704 4.01521C26.6965 4.85156 29.8786 6.7557 32.2823 9.46771C34.686 12.1797 36.1941 15.5674 36.601 19.1684C36.601 19.2214 36.601 19.2811 36.601 19.3341V19.5859C36.601 19.8178 36.6407 20.0497 36.6473 20.2816C36.6473 20.3743 36.6473 20.4671 36.6473 20.5532C36.6473 20.6394 36.6473 20.8315 36.6473 20.9706C36.6473 21.1098 36.6871 21.0833 36.6871 21.0833Z" fill="#173AF1"/>
</g>
<defs>
<clipPath id="clip0">
<rect width="40" height="41.4974" fill="white"/>
</clipPath>
</defs>
</svg>
