<svg width="50" height="50" viewBox="0 0 50 50" fill="none" xmlns="http://www.w3.org/2000/svg">
<g clip-path="url(#clip0)">
<path d="M6.7799 35.5671L3.25137 39.0994L5.48423 41.3299L9.01276 37.7977L6.7799 35.5671Z" fill="black"/>
<path d="M9.47211 38.2396L4.02234 43.6951L6.25519 45.9256L11.705 40.4701L9.47211 38.2396Z" fill="black"/>
<path d="M12.1441 40.8578L8.61496 44.3894L10.8474 46.6203L14.3766 43.0887L12.1441 40.8578Z" fill="black"/>
<path d="M37.1569 38.0321L38.3371 25.7857C43.9428 19.7903 47.7199 12.3189 49.2242 4.2501L50 0L45.7499 0.78239C37.7469 2.31901 30.3319 6.05979 24.3403 11.5833L11.8353 12.7901L0 24.6851L12.0939 23.79L7.41281 28.471L8.8914 29.9496L6.63042 34.2262L15.8136 43.4094L20.0902 41.1418L21.5688 42.6203L26.21 37.979L25.2221 49.9138L37.1569 38.0321ZM16.397 39.5306L10.5026 33.6428L11.2253 32.3167L17.7563 38.841L16.397 39.5306ZM29.0744 41.639L30.0756 29.6446L21.5688 38.1581L11.8685 28.471L20.3156 20.0172L8.1952 20.9123L13.2608 15.8136L20.793 15.0908L19.3012 16.5827L21.5223 18.8105L25.242 15.0842C30.9236 9.37765 38.1762 5.49281 46.0748 3.92521C44.6161 11.4814 41.0059 18.4554 35.6783 24.0088L35.307 24.4066L34.1268 36.5999L29.0744 41.639Z" fill="black"/>
<path d="M38.105 11.8022C37.421 11.1172 36.5491 10.6505 35.5997 10.4612C34.6503 10.2719 33.6661 10.3684 32.7716 10.7386C31.8771 11.1087 31.1125 11.7359 30.5746 12.5407C30.0366 13.3456 29.7495 14.2919 29.7495 15.26C29.7495 16.228 30.0366 17.1743 30.5746 17.9792C31.1125 18.784 31.8771 19.4112 32.7716 19.7813C33.6661 20.1515 34.6503 20.248 35.5997 20.0587C36.5491 19.8694 37.421 19.4027 38.105 18.7177C39.0213 17.8002 39.5359 16.5566 39.5359 15.26C39.5359 13.9633 39.0213 12.7197 38.105 11.8022V11.8022ZM33.5367 16.3705C33.3154 16.1501 33.1646 15.8689 33.1033 15.5626C33.0419 15.2564 33.0729 14.9388 33.1921 14.6501C33.3114 14.3615 33.5137 14.1147 33.7733 13.9411C34.0329 13.7674 34.3382 13.6747 34.6506 13.6747C34.9629 13.6747 35.2682 13.7674 35.5279 13.9411C35.7875 14.1147 35.9897 14.3615 36.109 14.6501C36.2283 14.9388 36.2592 15.2564 36.1979 15.5626C36.1366 15.8689 35.9857 16.1501 35.7645 16.3705C35.6185 16.5173 35.4449 16.6337 35.2537 16.7132C35.0626 16.7927 34.8576 16.8336 34.6506 16.8336C34.4436 16.8336 34.2386 16.7927 34.0474 16.7132C33.8563 16.6337 33.6827 16.5173 33.5367 16.3705V16.3705Z" fill="black"/>
</g>
<defs>
<clipPath id="clip0">
<rect width="50" height="49.9271" fill="white"/>
</clipPath>
</defs>
</svg>
