<svg width="50" height="55" viewBox="0 0 50 55" fill="none" xmlns="http://www.w3.org/2000/svg">
<path d="M26.466 9.47134H26.361C26.1774 9.47134 26.0003 9.47134 25.8101 9.43854C25.2707 9.39926 24.7293 9.39926 24.19 9.43854C23.9997 9.43854 23.8161 9.47134 23.639 9.47134H23.5209C20.0044 9.89067 16.732 11.4835 14.2326 13.9925C11.7332 16.5014 10.1528 19.7798 9.74682 23.2979C9.47477 25.6948 9.76332 28.1221 10.5897 30.3883C11.4161 32.6546 12.7577 34.6979 14.5087 36.3571C15.4528 37.2579 16.2418 38.3083 16.8438 39.4661H13.1641V42.7456H17.5718V48.9243C17.5707 49.1447 17.6144 49.363 17.7002 49.566C17.7861 49.7689 17.9122 49.9524 18.0711 50.1051C18.23 50.2578 18.4182 50.3767 18.6244 50.4545C18.8306 50.5322 19.0505 50.5673 19.2706 50.5575L20.7268 52.9122C21.0427 53.4536 21.4918 53.9052 22.0313 54.2244C22.5708 54.5435 23.1829 54.7195 23.8095 54.7357H26.1708C26.8019 54.7291 27.4199 54.555 27.9615 54.2312C28.5032 53.9073 28.9491 53.4454 29.2536 52.8926L30.6966 50.5575C30.9165 50.5664 31.136 50.5307 31.3417 50.4525C31.5475 50.3744 31.7354 50.2555 31.8941 50.103C32.0527 49.9504 32.1789 49.7674 32.2651 49.5648C32.3512 49.3623 32.3956 49.1444 32.3954 48.9243V41.4141C32.8868 39.4563 33.9564 37.6918 35.465 36.3505C37.1976 34.6813 38.5257 32.638 39.3476 30.3769C40.1695 28.1158 40.4636 25.6967 40.2073 23.3045C39.828 19.781 38.2607 16.4916 35.7632 13.9774C33.2657 11.4632 29.9868 9.87404 26.466 9.47134V9.47134ZM26.9841 50.9117L26.9054 51.0429C26.832 51.1719 26.7288 51.2814 26.6044 51.3624C26.4801 51.4434 26.3381 51.4935 26.1905 51.5086H23.8095C23.6648 51.4951 23.5255 51.4469 23.4033 51.3681C23.2811 51.2893 23.1797 51.1823 23.1077 51.056L23.0159 50.9117H26.9841ZM29.024 47.2845H20.9694V42.8637H29.0568L29.024 47.2845ZM29.4307 39.4661H20.5628C19.7663 37.3462 18.5044 35.4321 16.87 33.8646C15.5101 32.5634 14.4679 30.9666 13.8242 29.1979C13.1804 27.4293 12.9523 25.5362 13.1576 23.6652C13.5019 20.9279 14.7448 18.3821 16.6915 16.4271C18.6382 14.4721 21.1786 13.2184 23.9145 12.8624C24.0987 12.8588 24.2826 12.8457 24.4654 12.823C24.8191 12.7969 25.1743 12.7969 25.528 12.823C25.7109 12.8455 25.8948 12.8586 26.079 12.8624C28.3842 13.1327 30.565 14.0532 32.3666 15.5165C34.1682 16.9797 35.5164 18.9254 36.2537 21.1262C36.991 23.327 37.0869 25.6921 36.5303 27.9454C35.9737 30.1987 34.7875 32.2471 33.1103 33.8515C31.484 35.4282 30.2273 37.3457 29.4307 39.4661V39.4661ZM26.6496 8.20543H23.3701V0H26.6496V8.20543ZM0 21.8549H8.20543V25.1345H0V21.8549ZM11.6555 13.6888L5.85727 7.89059L8.17264 5.56867L13.9709 11.3735L11.6555 13.6888ZM38.3379 13.6888L36.0226 11.3735L41.8208 5.56867L44.1427 7.89059L38.3379 13.6888ZM50 21.8549V25.1345H41.7946V21.8549H50Z" fill="black"/>
</svg>
