<svg width="15" height="15" viewBox="0 0 67 67" fill="none" xmlns="http://www.w3.org/2000/svg">
<path d="M53.34 34.11L53.11 36.25C52.61 40.89 51.91 42.05 50.84 43.8L49.76 45.56L55.57 51.37L51.37 55.57L45.56 49.76L43.95 50.76C42.6694 51.4381 41.3308 52.0004 39.95 52.44C39.1187 52.7191 38.3069 53.0532 37.52 53.44L36.27 54.13V61.88H30.4V54.13L29.14 53.44C28.357 53.052 27.5485 52.7178 26.72 52.44C25.3387 52.0019 23.9999 51.4396 22.72 50.76L21.1 49.76L15.29 55.58L11.09 51.38L16.9 45.57L15.93 43.95C14.6672 41.5504 13.8506 38.9414 13.52 36.25L13.24 34.16H4.82V30.4H13.03L13.47 28.56C14.0539 26.5126 14.8797 24.542 15.93 22.69L16.93 21.08L11.06 15.25L15.26 11.05L21.07 16.86L22.69 15.86C24.5172 14.8171 26.4695 14.0106 28.5 13.46L30.4 13.05V4.82H36.24V13.12L38.24 13.5C40.2257 14.0656 42.136 14.868 43.93 15.89L45.54 16.89L51.35 11.08L55.55 15.28L49.74 21.08L50.74 22.7C51.8322 24.5252 52.6446 26.5039 53.15 28.57L53.6 30.41H61.81V34.12L53.34 34.11ZM66.64 38.93V25.58H57.32C56.9071 24.3023 56.3956 23.0585 55.79 21.86L62.38 15.25L51.38 4.25L44.77 10.86C43.5691 10.2748 42.3335 9.76385 41.07 9.33V0H25.58V9.34C24.3138 9.77124 23.0748 10.2788 21.87 10.86L15.26 4.25L4.26 15.25L10.87 21.86C10.3021 23.066 9.79809 24.301 9.36 25.56H0V38.93H9.09C9.49286 40.9271 10.1098 42.875 10.93 44.74L4.29 51.38L15.29 62.38L21.93 55.75C23.02 56.23 24.2 56.64 25.16 56.98L25.61 57.14V66.64H41.09V57.14L41.55 56.98C42.55 56.64 43.68 56.23 44.76 55.75L51.41 62.39L62.41 51.39L55.85 44.83C56.8009 42.9915 57.4108 40.996 57.65 38.94L66.64 38.93Z" fill="black"/>
<path d="M24.86 28.79L23.77 28.09L24.34 27.21C24.6718 26.6907 25.0537 26.205 25.48 25.76C26.7378 24.5357 28.293 23.6603 29.9922 23.2201C31.6914 22.78 33.476 22.7903 35.17 23.25C37.3095 23.7544 39.2413 24.9067 40.7017 26.5496C42.162 28.1925 43.0799 30.2461 43.33 32.43V32.7V33.11V33.61C43.33 33.75 43.33 33.89 43.33 34.1C43.2733 35.3877 42.9959 36.6561 42.51 37.85C41.9604 39.1219 41.1574 40.2686 40.15 41.22C38.2963 43.0249 35.8358 44.0733 33.25 44.16C31.6326 44.1833 30.0353 43.7989 28.6057 43.0421C27.1761 42.2853 25.9601 41.1806 25.07 39.83C24.5076 39.0443 24.0754 38.1731 23.79 37.25C23.6603 36.9023 23.5599 36.5444 23.49 36.18C23.3421 35.5236 23.2683 34.8528 23.27 34.18C23.2702 32.6381 23.6405 31.1189 24.35 29.75L24.86 28.75V28.79ZM36.25 18.6C29.36 16.91 22.6 20.01 19.06 26.5L18.55 27.42L19.72 28.26C19.0127 30.0388 18.6496 31.9357 18.65 33.85C18.65 37.7407 20.1956 41.4721 22.9467 44.2232C25.6979 46.9744 29.4293 48.52 33.32 48.52C37.2107 48.52 40.9421 46.9744 43.6932 44.2232C46.4444 41.4721 47.99 37.7407 47.99 33.85C47.99 33.65 47.99 33.46 47.99 33.27C47.9489 29.8673 46.7725 26.5759 44.6473 23.9181C42.5222 21.2604 39.5702 19.3886 36.26 18.6H36.25Z" fill="black"/>
</svg>
