<svg width="50" height="30" viewBox="0 0 50 30" fill="none" xmlns="http://www.w3.org/2000/svg">
<g clip-path="url(#clip0)">
<path d="M49.321 13.3392C48.8775 12.7916 38.3693 0 24.9973 0C17.4844 0 8.83802 3.94809 4.18902 7.8469L5.18015 9.01873L5.04873 8.87636C3.47905 10.2445 2.01468 11.7291 0.668051 13.3173L-0.0109558 14.1551L0.651622 15.0422C1.09517 15.6226 11.6307 29.2137 24.9973 29.2137C38.3638 29.2137 48.9103 15.5898 49.3429 15.0422L50 14.1879L49.321 13.3392ZM24.9973 26.4812C14.8177 26.4812 6.02891 17.1723 3.5374 14.2427C4.58755 13.0887 5.69892 11.992 6.86672 10.9572L5.9632 9.93867C10.1468 6.4396 18.2455 2.73793 24.9973 2.73793C35.1659 2.73793 43.9328 11.4555 46.4626 14.2372C43.982 17.1449 35.1769 26.4648 24.9973 26.4648V26.4812Z" fill="black"/>
<path d="M24.9973 4.81348C23.1399 4.81348 21.3242 5.36425 19.7799 6.39616C18.2355 7.42807 17.0318 8.89476 16.321 10.6108C15.6102 12.3267 15.4243 14.215 15.7866 16.0367C16.149 17.8584 17.0434 19.5317 18.3568 20.8451C19.6701 22.1584 21.3435 23.0528 23.1652 23.4152C24.9868 23.7776 26.8751 23.5916 28.5911 22.8808C30.3071 22.17 31.7738 20.9663 32.8057 19.422C33.8376 17.8776 34.3883 16.0619 34.3883 14.2046C34.3869 11.7143 33.397 9.32652 31.6362 7.56567C29.8753 5.80481 27.4875 4.81493 24.9973 4.81348V4.81348ZM24.9973 20.8522C23.6812 20.8522 22.3946 20.4619 21.3004 19.7306C20.2062 18.9993 19.3534 17.9599 18.85 16.7439C18.3466 15.5279 18.2152 14.1898 18.4723 12.8991C18.7295 11.6084 19.3637 10.4229 20.2947 9.49266C21.2257 8.56242 22.4117 7.9292 23.7027 7.6731C24.9936 7.41701 26.3315 7.54954 27.5471 8.05394C28.7627 8.55835 29.8014 9.41195 30.5318 10.5068C31.2622 11.6016 31.6515 12.8885 31.6504 14.2046C31.6475 15.9677 30.9455 17.6577 29.6982 18.9039C28.451 20.1501 26.7604 20.8508 24.9973 20.8522V20.8522Z" fill="black"/>
<path d="M24.9972 8.82178V11.5597C25.5206 11.5586 26.0325 11.7128 26.4681 12.0028C26.9038 12.2927 27.2436 12.7054 27.4447 13.1886C27.6457 13.6718 27.6988 14.2038 27.5974 14.7172C27.496 15.2306 27.2445 15.7023 26.8748 16.0728C26.5052 16.4432 26.0339 16.6957 25.5207 16.7982C25.0075 16.9006 24.4755 16.8486 23.9919 16.6486C23.5083 16.4486 23.0949 16.1096 22.804 15.6745C22.5131 15.2394 22.3579 14.7279 22.3579 14.2045H19.62C19.62 15.2694 19.9358 16.3103 20.5275 17.1956C21.1192 18.0809 21.9602 18.7708 22.9441 19.1781C23.928 19.5853 25.0106 19.6916 26.0549 19.4835C27.0992 19.2753 28.0583 18.7621 28.8108 18.0088C29.5634 17.2554 30.0756 16.2958 30.2827 15.2513C30.4898 14.2068 30.3824 13.1243 29.9742 12.1409C29.5659 11.1574 28.8752 10.3171 27.9892 9.72628C27.1033 9.13547 26.0621 8.8207 24.9972 8.82178V8.82178Z" fill="black"/>
</g>
<defs>
<clipPath id="clip0">
<rect width="50" height="29.2027" fill="white"/>
</clipPath>
</defs>
</svg>
