<svg width="50" height="38" viewBox="0 0 50 38" fill="none" xmlns="http://www.w3.org/2000/svg">
<g clip-path="url(#clip0)">
<path d="M36.0333 7.78369L33.7485 10.0684C34.9604 11.2553 35.9232 12.6722 36.5805 14.2359C37.2378 15.7997 37.5763 17.4789 37.5763 19.1752C37.5763 20.8715 37.2378 22.5507 36.5805 24.1145C35.9232 25.6782 34.9604 27.0951 33.7485 28.2819L36.0333 30.5667C37.5488 29.0818 38.7528 27.3094 39.5747 25.3534C40.3967 23.3973 40.82 21.2969 40.82 19.1752C40.82 17.0535 40.3967 14.9531 39.5747 12.997C38.7528 11.041 37.5488 9.26859 36.0333 7.78369V7.78369Z" fill="black"/>
<path d="M42.5778 1.23926L40.3318 3.52401C44.4756 7.67877 46.8026 13.3073 46.8026 19.1752C46.8026 25.0432 44.4756 30.6717 40.3318 34.8265L42.6101 37.1112C47.3581 32.3476 50.0216 25.8943 50.0155 19.1686C50.0095 12.4428 47.3344 5.99433 42.5778 1.23926V1.23926Z" fill="black"/>
<path d="M9.84252 9.89415H6.22822C2.49774 9.89415 0 13.5085 0 16.8904V20.4983C0 22.21 0.679985 23.8516 1.89037 25.062C3.10075 26.2724 4.74238 26.9524 6.45411 26.9524H9.83607C12.8308 32.4448 19.4011 36.2205 26.2166 36.2205H27.8301V0H26.2166C19.7625 0 12.9211 4.18872 9.84252 9.89415ZM24.6031 32.8772C19.2913 32.3157 14.2765 29.0435 12.3403 24.687L11.9078 23.7382H6.48638C5.63051 23.7382 4.8097 23.3982 4.20451 22.793C3.59932 22.1878 3.25933 21.367 3.25933 20.5112V16.8904C3.25933 15.1091 4.49206 13.1212 6.26049 13.1212H8.69369C8.47577 14.1663 8.35478 15.2293 8.33226 16.2966L11.5593 16.3805C11.5586 14.9549 11.8212 13.5414 12.3338 12.2112V12.1725C14.3862 7.65457 19.5753 3.99509 24.5966 3.33032L24.6031 32.8772Z" fill="black"/>
</g>
<defs>
<clipPath id="clip0">
<rect width="50" height="37.1111" fill="white"/>
</clipPath>
</defs>
</svg>
