<svg width="50" height="55" viewBox="0 0 50 55" fill="none" xmlns="http://www.w3.org/2000/svg">
<g clip-path="url(#clip0)">
<path d="M50 54.7657L49.9373 8.35709H39.072V0H0.0228119V2.8503H3.85362V46.4143H14.7076V54.7657H50ZM39.1233 46.4143V44.7041H44.9778V41.8538H39.1176V39.357H44.9778V36.5067H39.1062V34.0212H44.9721V31.1709H39.1005V28.6911H44.9721V25.8408H39.0948V23.3611H44.9778V20.5108H39.0891V18.031H44.9778V15.1807H39.0777V11.1903H47.0984L47.1497 51.9097H17.5579V46.4029L39.1233 46.4143ZM6.68112 43.564V2.8503H36.2159L36.2673 43.564H6.68112ZM44.9721 50.2793H19.3194V47.429H44.9721V50.2793ZM11.4867 15.8135H15.1807L17.2158 25.0371L17.461 27.1007H17.7289L17.9797 25.02L19.9749 15.8135H23.8456L25.9264 25.0371L26.1487 27.1007H26.4166L26.6617 25.02L28.5828 15.8135H32.3908L28.6512 31.4787H24.0908L22.0727 21.4571H21.8048L19.7925 31.4787H15.232L11.4867 15.8135Z" fill="black"/>
</g>
<defs>
<clipPath id="clip0">
<rect width="50" height="54.7657" fill="white"/>
</clipPath>
</defs>
</svg>
