<svg width="100" height="100" viewBox="0 0 888 445" fill="none" xmlns="http://www.w3.org/2000/svg">
<g clip-path="url(#clip0)">
<path d="M853.169 29.3953H458.131V226.914H853.169V29.3953Z" fill="#E6E6E6"/>
<path d="M412.711 406.048L422.068 403.351C423.728 399.052 425.144 394.663 426.31 390.204L421.916 390.044L426.707 388.663C428.094 383.136 428.662 379.387 428.662 379.387C428.662 379.387 409.686 385.039 395.396 396.068L393.633 408.438L391.946 398.927C390.391 400.307 388.924 401.784 387.555 403.348C373.797 419.165 367.81 436.48 374.183 442.023C380.555 447.565 396.873 439.236 410.631 423.419C414.888 418.283 418.333 412.524 420.846 406.344L412.711 406.048Z" fill="#E6E6E6"/>
<path d="M58.2346 349.692L52.9016 328.658C43.4454 324.65 33.7707 321.179 23.9236 318.261L23.2503 328.037L20.5198 317.267C8.30782 313.78 0 312.244 0 312.244C0 312.244 11.222 354.918 34.7592 387.542L62.1852 392.36L40.8787 395.432C43.8407 398.995 47.0239 402.368 50.4094 405.532C84.6494 437.314 122.786 451.896 135.591 438.101C148.395 424.307 131.018 387.36 96.7779 355.577C86.1631 345.725 72.8287 337.818 59.4811 331.595L58.2346 349.692Z" fill="#E6E6E6"/>
<path d="M108.955 326.849L115.263 306.086C109.239 297.768 102.752 289.796 95.8302 282.208L90.2008 290.228L93.4303 279.597C84.7788 270.3 78.4609 264.691 78.4609 264.691C78.4609 264.691 66.0093 307.022 69.2946 347.116L90.2823 365.417L70.455 357.033C71.1488 361.615 72.1301 366.148 73.393 370.606C86.2758 415.512 111.385 447.707 129.477 442.517C147.568 437.327 151.791 396.716 138.908 351.811C134.914 337.889 127.586 324.228 119.377 312.002L108.955 326.849Z" fill="#E6E6E6"/>
<path d="M194.275 413.765L196.478 423.676L211.894 422.574L210.793 411.563L194.275 413.765Z" fill="#FFB8B8"/>
<path d="M155.735 413.765L153.533 423.676L138.116 422.574L139.218 411.563L155.735 413.765Z" fill="#FFB8B8"/>
<path d="M151.33 92.2284C162.885 92.2284 172.252 82.8613 172.252 71.3065C172.252 59.7516 162.885 50.3846 151.33 50.3846C139.775 50.3846 130.408 59.7516 130.408 71.3065C130.408 82.8613 139.775 92.2284 151.33 92.2284Z" fill="#FFB8B8"/>
<path d="M138.116 76.812L132.611 102.139L160.139 110.948L159.038 79.015L138.116 76.812Z" fill="#FFB8B8"/>
<path d="M148.027 105.442L134.173 94.9531C134.173 94.9531 131.509 91.1272 130.408 94.4307C129.307 97.7342 119.397 109.847 119.397 109.847L127.105 200.141L185.466 201.243C185.466 201.243 162.661 95.9837 159.749 99.6119C156.836 103.24 149.128 103.24 148.027 105.442Z" fill="#D0CDE1"/>
<path d="M159.589 92.779C159.589 92.779 155.184 97.1836 157.387 100.487C159.589 103.79 157.937 109.916 160.14 110.432C162.342 110.948 157.937 148.387 164.544 158.298C171.151 168.208 167.848 193.535 167.848 197.939C167.848 202.344 174.455 228.771 174.455 228.771C174.455 228.771 196.478 230.974 196.478 225.468C196.478 219.962 188.77 181.422 188.77 181.422L195.376 113.15C195.376 113.15 195.376 106.543 187.668 104.341C179.96 102.139 164.544 96.633 164.544 96.633L159.589 92.779Z" fill="#2F2E41"/>
<path d="M190.972 172.613H185.466C185.466 172.613 156.836 174.815 159.038 162.702C161.241 150.59 183.264 159.399 183.264 159.399L189.871 162.702L190.972 172.613Z" fill="#FFB8B8"/>
<path d="M135.048 90.9272C135.048 90.9272 126.004 96.633 124.903 98.8353C123.801 101.038 98.4749 113.15 98.4749 121.96C98.4749 130.769 106.183 140.679 106.183 140.679L116.093 237.581C116.093 237.581 132.611 243.086 133.712 238.682C134.813 234.277 139.218 137.376 137.015 132.971C134.813 128.566 134.813 99.9365 134.813 99.9365L135.048 90.9272Z" fill="#2F2E41"/>
<path d="M106.183 250.794L105.082 257.401C105.082 257.401 106.183 279.424 114.992 278.323C123.801 277.222 118.296 255.199 118.296 255.199L117.194 250.794H106.183Z" fill="#FFB8B8"/>
<path d="M119.397 194.636C119.397 194.636 120.498 293.739 126.004 325.673C131.509 357.606 133.712 412.664 133.712 412.664C133.712 412.664 148.027 414.866 150.229 415.967C152.431 417.069 157.937 413.765 157.937 413.765L159.038 250.794L179.96 324.572C179.96 324.572 183.264 413.765 189.871 415.967C196.477 418.17 216.298 413.765 216.298 413.765C216.298 413.765 208.59 328.976 206.388 325.673C204.186 322.369 198.68 225.468 189.871 207.849L186.567 195.737C186.567 195.737 123.801 197.939 119.397 194.636Z" fill="#2F2E41"/>
<path d="M197.579 419.271C197.579 419.271 192.073 414.866 192.073 418.17C192.073 421.473 186.567 441.845 193.174 441.845C199.781 441.845 243.827 445.699 242.726 436.889C241.625 428.08 215.127 414.014 215.127 414.014C215.127 414.014 205.287 417.069 204.186 418.17C203.084 419.271 197.579 419.271 197.579 419.271Z" fill="#2F2E41"/>
<path d="M152.431 419.271C152.431 419.271 157.937 414.866 157.937 418.17C157.937 421.473 163.443 441.845 156.836 441.845C150.229 441.845 106.183 445.699 107.284 436.889C108.385 428.08 134.883 414.014 134.883 414.014C134.883 414.014 144.723 417.069 145.824 418.17C146.926 419.271 152.431 419.271 152.431 419.271Z" fill="#2F2E41"/>
<path d="M187.668 112.049L195.376 113.15L210.793 157.196C210.793 157.196 215.197 179.219 208.59 182.523C201.983 185.826 189.514 185.181 189.514 185.181L187.668 160.5L193.174 161.601L187.668 150.59V112.049Z" fill="#2F2E41"/>
<path d="M103.981 117.555L98.4749 121.96C98.4749 121.96 92.9691 178.118 94.0703 183.624C95.1715 189.13 101.778 256.3 101.778 256.3L120.498 251.896L107.284 118.656L103.981 117.555Z" fill="#2F2E41"/>
<path d="M128.184 56.0998C128.184 56.0998 122.093 48.3725 128.184 44.5088V46.4406C128.184 46.4406 141.237 31.9519 149.069 35.8156L156.03 33.8838V35.8156L160.381 33.8838L159.511 36.7815H165.603L162.992 38.7133C162.992 38.7133 183.006 37.7474 170.824 52.2361C170.824 52.2361 176.615 60.923 171.109 65.7557C171.109 65.7557 166.473 55.1339 160.381 58.0316C158.731 58.8883 156.87 59.2527 155.019 59.0814C153.167 58.9102 151.404 58.2105 149.939 57.0657C149.939 57.0657 137.756 56.0998 139.497 61.8953C141.237 67.6907 140.367 69.6226 140.367 69.6226C140.367 69.6226 136.016 72.5203 136.886 74.4521C137.757 76.384 137.756 82.1794 137.756 82.1794C137.756 82.1794 133.405 75.4181 131.665 76.384C129.925 77.3499 120.353 67.6908 128.184 56.0998Z" fill="#2F2E41"/>
<path d="M366.909 125.259L320.608 126.409L314.376 71.2H366.909V125.259Z" fill="#2F2E41"/>
<path d="M317.898 196.829L300.997 314.007C300.997 314.007 286.35 355.696 285.223 375.977L280.716 405.271L300.997 409.778L322.404 327.528L351.699 253.165L348.319 338.795L341.559 408.651L361.84 412.031L374.233 323.021L387.754 257.671C387.754 257.671 397.894 201.336 382.12 195.702L317.898 196.829Z" fill="#2F2E41"/>
<path d="M299.641 398.08L297.386 425.504C297.386 425.504 321.52 439.457 313.777 442.162C306.033 444.866 295.433 441.387 293.266 440.772C290.976 440.123 286.702 439.088 283.468 438.322C281.971 437.979 280.623 437.165 279.622 436.001C278.621 434.836 278.019 433.381 277.905 431.85L277.899 431.749C277.704 428.374 285.318 399.049 285.318 399.049L299.641 398.08Z" fill="#2F2E41"/>
<path d="M358.249 398.766L360.149 424.989C360.149 424.989 387.632 435.199 380.548 439.334C373.464 443.469 362.395 442.079 360.149 441.889C356.009 441.541 345.706 441.193 345.706 441.193C345.706 441.193 343.801 442.842 342.965 439.567C342.129 436.292 344.081 407.035 344.081 407.035L358.249 398.766Z" fill="#2F2E41"/>
<path d="M341.559 102.185C353.382 102.185 362.966 92.6003 362.966 80.7773C362.966 68.9542 353.382 59.3697 341.559 59.3697C329.736 59.3697 320.151 68.9542 320.151 80.7773C320.151 92.6003 329.736 102.185 341.559 102.185Z" fill="#FFB8B8"/>
<path d="M329.165 93.171L324.658 117.959L343.812 126.973L348.319 95.425L329.165 93.171Z" fill="#FFB8B8"/>
<path d="M326.911 210.35L350.572 227.25C350.572 227.25 360.713 253.165 368.6 248.658C376.487 244.151 359.586 221.617 359.586 221.617L340.432 202.463L326.911 210.35Z" fill="#FFB8B8"/>
<path d="M394.514 202.463L396.768 215.983C396.768 215.983 391.134 244.151 384.374 238.517C377.613 232.884 386.627 214.856 386.627 214.856L385.5 203.589L394.514 202.463Z" fill="#FFB8B8"/>
<path d="M341.559 120.212L339.305 111.199L325.785 104.438L321.278 110.072L306.63 114.579L323.531 204.716C323.531 204.716 380.994 208.096 382.12 199.082C383.247 190.069 370.853 165.281 370.853 165.281C370.853 165.281 374.233 152.887 373.107 146.127L368.6 119.086L350.572 113.452L346.455 108.471L342.685 114.579L341.559 120.212Z" fill="#D0CDE1"/>
<path d="M310.011 116.832L306.631 114.579C306.631 114.579 299.87 115.705 297.617 124.719C295.363 133.733 297.617 174.295 303.25 182.182C308.884 190.069 324.658 213.73 324.658 213.73L346.066 203.589L323.531 177.675L317.898 145L310.011 116.832Z" fill="#D0CDE1"/>
<path d="M359.586 121.339L368.6 119.086C368.6 119.086 374.234 121.339 376.487 129.226C378.74 137.113 391.134 176.548 390.008 179.928C388.881 183.308 400.148 205.843 400.148 205.843L384.374 206.969L375.36 183.308L366.346 159.647L359.586 121.339Z" fill="#D0CDE1"/>
<path d="M304.455 101.107C308.97 98.6279 311.071 93.0633 311.221 87.9149C311.371 82.7665 310.122 77.6712 310.024 72.5215C309.973 71.468 310.063 70.4124 310.291 69.3825C310.665 68.1042 311.249 66.8966 312.017 65.8087C317.888 56.8127 328.094 50.4847 338.843 50.3851C340.396 50.3648 341.938 50.6483 343.383 51.2197C344.494 51.6648 344.857 51.6103 345.07 52.9748C347.617 52.1348 350.378 52.2226 352.866 53.2227C355.33 54.2246 357.629 55.5934 359.684 57.2829C360.905 58.191 362.057 59.1885 363.13 60.2672C368.811 66.1523 370.119 75.2224 368.474 83.2348C367.939 85.8397 370.506 88.3545 372.63 89.9544C374.754 91.5544 377.207 93.0236 378.25 95.4698C379.253 97.8229 378.702 100.514 378.904 103.064C379.131 105.475 380.027 107.774 381.491 109.702C382.956 111.631 384.93 113.111 387.191 113.977C386.729 114.53 386.128 114.947 385.449 115.186C384.77 115.425 384.039 115.476 383.334 115.334C381.861 115.023 380.484 114.368 379.315 113.42C374.918 110.162 371.772 105.495 370.403 100.197C369.779 103.034 370.021 105.961 370.044 108.867C369.989 112.109 370.586 115.329 371.8 118.336C373.034 121.358 375.295 123.847 378.184 125.366C375.397 126.73 372.327 125.741 369.965 123.729C367.702 121.581 366.068 118.856 365.236 115.849C363.652 111.048 363.009 105.987 363.344 100.943C360.752 105.307 359.805 110.453 360.673 115.453C361.58 120.551 364.242 125.172 368.197 128.514C361.3 128.455 354.518 126.747 348.416 123.532C346.84 122.818 345.452 121.748 344.359 120.407C342.395 117.683 342.86 113.968 343.411 110.656C343.846 108.037 340.573 104.251 342.448 102.37C343.004 101.82 343.748 101.5 344.531 101.475C347.349 101.264 350.081 100.408 352.516 98.973C354.951 97.538 357.023 95.5624 358.573 93.1989C360.734 89.9491 361.962 86.1683 362.122 82.2687C362.121 79.4053 361.501 76.576 360.305 73.9742C359.11 71.3724 357.366 69.0594 355.195 67.1933C353.023 65.3272 350.474 63.9521 347.722 63.1619C344.969 62.3717 342.079 62.1851 339.248 62.6148C336.417 63.0445 333.712 64.0803 331.318 65.6516C328.925 67.2229 326.898 69.2925 325.378 71.7189C323.858 74.1454 322.879 76.8715 322.51 79.7109C322.14 82.5503 322.388 85.4361 323.236 88.1709C323.912 90.3717 324.397 92.6269 324.684 94.9112C325.023 97.5619 325.563 100.183 326.298 102.752C327.716 107.69 330.118 112.728 334.563 115.304C333.009 115.969 331.339 116.323 329.649 116.344C324.071 116.959 318.205 116.823 313.156 114.373C308.108 111.924 304.096 106.707 304.455 101.107Z" fill="#2F2E41"/>
<path d="M316.626 79.2521C332.645 72.8318 348.437 71.4623 363.817 79.2521V66.3112C363.817 64.0758 362.929 61.932 361.348 60.3513C359.768 58.7707 357.624 57.8827 355.388 57.8827H323.285C322.41 57.8827 321.545 58.0549 320.737 58.3895C319.929 58.7241 319.195 59.2146 318.576 59.8329C317.958 60.4512 317.468 61.1853 317.133 61.9931C316.798 62.801 316.626 63.6669 316.626 64.5413V79.2521Z" fill="#2F2E41"/>
<path d="M321.611 87.2656C322.915 87.2656 323.972 85.5743 323.972 83.488C323.972 81.4017 322.915 79.7104 321.611 79.7104C320.307 79.7104 319.25 81.4017 319.25 83.488C319.25 85.5743 320.307 87.2656 321.611 87.2656Z" fill="#FFB8B8"/>
<path d="M520 442.01H0V444.01H520V442.01Z" fill="#3F3D56"/>
<path d="M887.5 199.52H490.46V0H887.5V199.52ZM492.46 197.52H885.5V2H492.46V197.52Z" fill="#3F3D56"/>
<path d="M687.83 162.29C687.828 165.481 686.88 168.6 685.105 171.252C683.331 173.904 680.811 175.971 677.862 177.191C674.914 178.411 671.67 178.729 668.54 178.106C665.411 177.483 662.536 175.947 660.28 173.69C658.024 171.434 656.487 168.559 655.864 165.43C655.241 162.3 655.559 159.057 656.779 156.108C657.999 153.16 660.066 150.639 662.718 148.865C665.37 147.091 668.489 146.142 671.68 146.14C673.802 146.134 675.905 146.548 677.867 147.357C679.83 148.167 681.612 149.356 683.113 150.857C684.614 152.358 685.803 154.141 686.613 156.103C687.422 158.065 687.836 160.168 687.83 162.29V162.29Z" fill="#6C63FF"/>
<path opacity="0.3" d="M687.83 162.29C687.828 165.481 686.88 168.6 685.105 171.252C683.331 173.904 680.811 175.971 677.862 177.191C674.914 178.411 671.67 178.729 668.54 178.106C665.411 177.483 662.536 175.947 660.28 173.69C658.024 171.434 656.487 168.559 655.864 165.43C655.241 162.3 655.559 159.057 656.779 156.108C657.999 153.16 660.066 150.639 662.718 148.865C665.37 147.091 668.489 146.142 671.68 146.14C673.802 146.134 675.905 146.548 677.867 147.357C679.83 148.167 681.612 149.356 683.113 150.857C684.614 152.358 685.803 154.141 686.613 156.103C687.422 158.065 687.836 160.168 687.83 162.29V162.29Z" fill="black"/>
<path d="M717.08 80.8801C717.111 86.158 716.023 91.3825 713.89 96.2101C712.966 98.2881 711.859 100.279 710.58 102.16C707.931 105.989 704.753 109.423 701.14 112.36C700.52 112.88 699.84 113.42 698.93 114.12C697.79 114.97 696.52 115.86 695.06 116.82C692.482 118.487 690.001 120.3 687.63 122.25C686.224 123.346 685.005 124.663 684.02 126.15C682.79 128.3 682.17 132.46 682.17 138.52V139.52H655.21V134.84C655.21 131.18 655.3 128.1 655.47 125.42C655.592 122.992 655.846 120.571 656.23 118.17C656.494 116.058 657.13 114.01 658.11 112.12C659.88 109.17 664.15 105.16 671.15 99.8601C671.45 99.6401 671.75 99.4101 672.06 99.1801C672.35 98.9801 672.63 98.7701 672.92 98.5501C675.345 96.8277 677.578 94.8497 679.58 92.6501C680.165 91.965 680.706 91.2436 681.2 90.4901L681.33 90.2901C682.898 87.5133 683.666 84.3568 683.55 81.1701C683.558 80.3639 683.504 79.5583 683.39 78.7601C683.079 75.6469 681.634 72.7568 679.33 70.6401C676.83 68.3487 673.607 67.0043 670.22 66.84C669.79 66.8 669.39 66.7901 668.98 66.7901C667.386 66.7812 665.798 66.9693 664.25 67.3501C661.349 68.0656 658.747 69.6748 656.81 71.9501C655.784 73.1617 654.91 74.495 654.21 75.9201C651.848 81.3702 650.337 87.151 649.73 93.06L649.63 94.1101L624.25 87.3501V76.1601C624.37 75.7101 624.5 75.2601 624.64 74.8201C626.26 69.208 628.842 63.9196 632.27 59.1901C633.735 57.1831 635.386 55.3182 637.2 53.62C637.63 53.19 638.1 52.7701 638.57 52.3601C641.624 49.7089 645.017 47.4759 648.66 45.72L648.98 45.5701C655.88 42.3808 663.409 40.7815 671.01 40.89C671.8 40.89 672.73 40.9 673.65 40.95C681.203 41.1415 688.617 43.0316 695.34 46.48C698.359 48.0429 701.188 49.9488 703.77 52.16C711.015 58.0659 715.681 66.5574 716.78 75.84C716.981 77.5125 717.081 79.1956 717.08 80.8801Z" fill="#6C63FF"/>
<path opacity="0.3" d="M717.08 80.8801C717.111 86.158 716.023 91.3825 713.89 96.2101C712.966 98.2881 711.859 100.279 710.58 102.16C707.931 105.989 704.753 109.423 701.14 112.36C700.52 112.88 699.84 113.42 698.93 114.12C697.79 114.97 696.52 115.86 695.06 116.82C692.482 118.487 690.001 120.3 687.63 122.25C686.224 123.346 685.005 124.663 684.02 126.15C682.79 128.3 682.17 132.46 682.17 138.52V139.52H655.21V134.84C655.21 131.18 655.3 128.1 655.47 125.42C655.592 122.992 655.846 120.571 656.23 118.17C656.494 116.058 657.13 114.01 658.11 112.12C659.88 109.17 664.15 105.16 671.15 99.8601C671.45 99.6401 671.75 99.4101 672.06 99.1801C672.35 98.9801 672.63 98.7701 672.92 98.5501C675.345 96.8277 677.578 94.8497 679.58 92.6501C680.165 91.965 680.706 91.2436 681.2 90.4901L681.33 90.2901C682.898 87.5133 683.666 84.3568 683.55 81.1701C683.558 80.3639 683.504 79.5583 683.39 78.7601C683.079 75.6469 681.634 72.7568 679.33 70.6401C676.83 68.3487 673.607 67.0043 670.22 66.84C669.79 66.8 669.39 66.7901 668.98 66.7901C667.386 66.7812 665.798 66.9693 664.25 67.3501C661.349 68.0656 658.747 69.6748 656.81 71.9501C655.784 73.1617 654.91 74.495 654.21 75.9201C651.848 81.3702 650.337 87.151 649.73 93.06L649.63 94.1101L624.25 87.3501V76.1601C624.37 75.7101 624.5 75.2601 624.64 74.8201C626.26 69.208 628.842 63.9196 632.27 59.1901C633.735 57.1831 635.386 55.3182 637.2 53.62C637.63 53.19 638.1 52.7701 638.57 52.3601C641.624 49.7089 645.017 47.4759 648.66 45.72L648.98 45.5701C655.88 42.3808 663.409 40.7815 671.01 40.89C671.8 40.89 672.73 40.9 673.65 40.95C681.203 41.1415 688.617 43.0316 695.34 46.48C698.359 48.0429 701.188 49.9488 703.77 52.16C711.015 58.0659 715.681 66.5574 716.78 75.84C716.981 77.5125 717.081 79.1956 717.08 80.8801Z" fill="black"/>
<path d="M676.83 162.29C676.828 165.481 675.88 168.6 674.105 171.252C672.331 173.904 669.811 175.971 666.862 177.191C663.914 178.411 660.67 178.729 657.54 178.106C654.411 177.483 651.536 175.947 649.28 173.69C647.024 171.434 645.487 168.559 644.864 165.43C644.241 162.3 644.559 159.057 645.779 156.108C646.999 153.16 649.066 150.639 651.718 148.865C654.37 147.091 657.489 146.142 660.68 146.14C662.802 146.134 664.905 146.548 666.867 147.357C668.83 148.167 670.612 149.356 672.113 150.857C673.614 152.358 674.803 154.141 675.613 156.103C676.422 158.065 676.836 160.168 676.83 162.29Z" fill="#6C63FF"/>
<path d="M706.08 80.8801C706.111 86.158 705.023 91.3825 702.89 96.2101C701.966 98.2881 700.859 100.279 699.58 102.16C696.931 105.989 693.753 109.423 690.14 112.36C689.52 112.88 688.84 113.42 687.93 114.12C686.79 114.97 685.52 115.86 684.06 116.82C681.482 118.487 679.001 120.3 676.63 122.25C675.224 123.346 674.005 124.663 673.02 126.15C671.79 128.3 671.17 132.46 671.17 138.52V139.52H644.21V134.84C644.21 131.18 644.3 128.1 644.47 125.42C644.592 122.992 644.846 120.571 645.23 118.17C645.494 116.058 646.13 114.01 647.11 112.12C648.88 109.17 653.15 105.16 660.15 99.8601C660.45 99.6401 660.75 99.4101 661.06 99.1801C661.35 98.9801 661.63 98.7701 661.92 98.5501C664.345 96.8277 666.578 94.8497 668.58 92.6501C669.165 91.965 669.706 91.2436 670.2 90.4901L670.33 90.2901C671.898 87.5133 672.666 84.3568 672.55 81.1701C672.558 80.3639 672.504 79.5583 672.39 78.7601C672.079 75.6469 670.634 72.7568 668.33 70.6401C665.83 68.3487 662.607 67.0043 659.22 66.84C658.79 66.8 658.39 66.7901 657.98 66.7901C656.386 66.7812 654.798 66.9693 653.25 67.3501C650.349 68.0656 647.747 69.6748 645.81 71.9501C644.784 73.1617 643.91 74.495 643.21 75.9201C641.41 79.5101 640.24 84.27 639.73 90.06L639.63 91.1101L611.09 87.0401L611.23 86.05C611.731 82.2482 612.537 78.4928 613.64 74.8201C615.26 69.208 617.842 63.9196 621.27 59.1901C622.735 57.1831 624.386 55.3182 626.2 53.62C626.63 53.19 627.1 52.7701 627.57 52.3601C630.624 49.7089 634.017 47.4759 637.66 45.72L637.98 45.5701C644.88 42.3808 652.409 40.7815 660.01 40.89C660.8 40.89 661.73 40.9 662.65 40.95C670.203 41.1415 677.617 43.0316 684.34 46.48C687.359 48.0429 690.188 49.9488 692.77 52.16C700.015 58.0659 704.681 66.5574 705.78 75.84C705.981 77.5125 706.081 79.1956 706.08 80.8801V80.8801Z" fill="#6C63FF"/>
</g>
<defs>
<clipPath id="clip0">
<rect width="887.5" height="444.01" fill="white"/>
</clipPath>
</defs>
</svg>
