<svg width="110" height="113" viewBox="0 0 110 113" fill="none" xmlns="http://www.w3.org/2000/svg">
<g clip-path="url(#clip0)">
<path d="M72.6713 45.2191C72.5689 45.2192 72.4707 45.2599 72.3983 45.3323C72.3259 45.4047 72.2851 45.5029 72.285 45.6053V72.1222C72.2851 72.2246 72.3259 72.3228 72.3983 72.3952C72.4707 72.4677 72.5689 72.5084 72.6713 72.5085H109.614C109.716 72.5084 109.814 72.4677 109.887 72.3952C109.959 72.3228 110 72.2246 110 72.1222V45.6053C110 45.5029 109.959 45.4047 109.887 45.3323C109.814 45.2599 109.716 45.2192 109.614 45.2191H72.6713Z" fill="#E6E6E6"/>
<path d="M107.574 47.5907V66.4358C107.574 66.5615 107.524 66.6821 107.435 66.771C107.346 66.8599 107.225 66.9098 107.1 66.9098H75.1095C75.087 66.9101 75.0646 66.9082 75.0426 66.904C74.9297 66.8881 74.8264 66.8319 74.7516 66.7459C74.6768 66.6599 74.6356 66.5498 74.6354 66.4358V47.5907C74.6355 47.465 74.6854 47.3444 74.7743 47.2555C74.8632 47.1666 74.9838 47.1167 75.1095 47.1167H107.1C107.225 47.1167 107.346 47.1666 107.435 47.2555C107.524 47.3444 107.574 47.465 107.574 47.5907V47.5907Z" fill="white"/>
<path d="M100.943 55.7407C101.892 55.7407 102.662 54.9713 102.662 54.0221C102.662 53.073 101.892 52.3035 100.943 52.3035C99.9939 52.3035 99.2245 53.073 99.2245 54.0221C99.2245 54.9713 99.9939 55.7407 100.943 55.7407Z" fill="#FF6584"/>
<path d="M73.3889 46.7385C73.7018 46.7385 73.9555 46.4848 73.9555 46.1719C73.9555 45.8589 73.7018 45.6053 73.3889 45.6053C73.0759 45.6053 72.8223 45.8589 72.8223 46.1719C72.8223 46.4848 73.0759 46.7385 73.3889 46.7385Z" fill="#3F3D56"/>
<path d="M108.821 46.7385C109.133 46.7385 109.387 46.4848 109.387 46.1719C109.387 45.8589 109.133 45.6053 108.821 45.6053C108.508 45.6053 108.254 45.8589 108.254 46.1719C108.254 46.4848 108.508 46.7385 108.821 46.7385Z" fill="#3F3D56"/>
<path d="M73.3889 72.1222C73.7018 72.1222 73.9555 71.8686 73.9555 71.5556C73.9555 71.2427 73.7018 70.989 73.3889 70.989C73.0759 70.989 72.8223 71.2427 72.8223 71.5556C72.8223 71.8686 73.0759 72.1222 73.3889 72.1222Z" fill="#3F3D56"/>
<path d="M108.821 72.1222C109.133 72.1222 109.387 71.8686 109.387 71.5556C109.387 71.2427 109.133 70.989 108.821 70.989C108.508 70.989 108.254 71.2427 108.254 71.5556C108.254 71.8686 108.508 72.1222 108.821 72.1222Z" fill="#3F3D56"/>
<path d="M85.1752 60.7686C86.314 60.7686 87.2371 59.8454 87.2371 58.7066C87.2371 57.5678 86.314 56.6447 85.1752 56.6447C84.0364 56.6447 83.1133 57.5678 83.1133 58.7066C83.1133 59.8454 84.0364 60.7686 85.1752 60.7686Z" fill="#6C63FF"/>
<path d="M85.3739 64.9173H84.9516L85.1441 58.3962L85.3739 64.9173Z" fill="#3F3D56"/>
<path d="M85.1814 59.6321L85.6348 59.0048L85.1752 59.7874L85.1256 59.7004L85.1814 59.6321Z" fill="#3F3D56"/>
<path d="M85.1317 60.2656L84.6783 59.6384L85.1379 60.4207L85.1877 60.3338L85.1317 60.2656Z" fill="#3F3D56"/>
<path d="M104.09 60.7686C105.228 60.7686 106.152 59.8454 106.152 58.7066C106.152 57.5678 105.228 56.6447 104.09 56.6447C102.951 56.6447 102.028 57.5678 102.028 58.7066C102.028 59.8454 102.951 60.7686 104.09 60.7686Z" fill="#6C63FF"/>
<path d="M104.288 64.9173H103.866L104.058 58.3962L104.288 64.9173Z" fill="#3F3D56"/>
<path d="M104.096 59.6321L104.549 59.0048L104.09 59.7874L104.04 59.7004L104.096 59.6321Z" fill="#3F3D56"/>
<path d="M104.046 60.2656L103.593 59.6384L104.052 60.4207L104.102 60.3338L104.046 60.2656Z" fill="#3F3D56"/>
<path d="M91.1482 59.9533C92.8301 59.9533 94.1935 58.5899 94.1935 56.908C94.1935 55.2262 92.8301 53.8627 91.1482 53.8627C89.4663 53.8627 88.1029 55.2262 88.1029 56.908C88.1029 58.5899 89.4663 59.9533 91.1482 59.9533Z" fill="#6C63FF"/>
<path d="M91.4418 66.0806H90.8182L91.1024 56.4494L91.4418 66.0806Z" fill="#3F3D56"/>
<path d="M91.1575 58.2747L91.8271 57.3483L91.1483 58.504L91.0749 58.3756L91.1575 58.2747Z" fill="#3F3D56"/>
<path d="M91.084 59.2104L90.4144 58.2839L91.0932 59.4397L91.1666 59.3113L91.084 59.2104Z" fill="#3F3D56"/>
<path d="M98.5748 58.7901C100.257 58.7901 101.62 57.4266 101.62 55.7448C101.62 54.0629 100.257 52.6995 98.5748 52.6995C96.8929 52.6995 95.5295 54.0629 95.5295 55.7448C95.5295 57.4266 96.8929 58.7901 98.5748 58.7901Z" fill="#6C63FF"/>
<path d="M98.8682 64.9173H98.2445L98.5288 55.2861L98.8682 64.9173Z" fill="#3F3D56"/>
<path d="M98.584 57.1114L99.2535 56.185L98.5747 57.3407L98.5014 57.2123L98.584 57.1114Z" fill="#3F3D56"/>
<path d="M98.5106 58.0472L97.8409 57.1206L98.5197 58.2765L98.5931 58.1481L98.5106 58.0472Z" fill="#3F3D56"/>
<path d="M79.3122 58.7901C80.9941 58.7901 82.3575 57.4266 82.3575 55.7448C82.3575 54.0629 80.9941 52.6995 79.3122 52.6995C77.6303 52.6995 76.2669 54.0629 76.2669 55.7448C76.2669 57.4266 77.6303 58.7901 79.3122 58.7901Z" fill="#6C63FF"/>
<path d="M79.6059 64.9173H78.9821L79.2665 55.2861L79.6059 64.9173Z" fill="#3F3D56"/>
<path d="M79.3214 57.1114L79.991 56.185L79.3122 57.3407L79.2388 57.2123L79.3214 57.1114Z" fill="#3F3D56"/>
<path d="M79.2481 58.0472L78.5785 57.1206L79.2573 58.2765L79.3305 58.1481L79.2481 58.0472Z" fill="#3F3D56"/>
<path d="M91.3183 66.9098H75.1095C75.087 66.9101 75.0646 66.9082 75.0426 66.904C74.9297 66.8881 74.8264 66.8319 74.7516 66.7459C74.6768 66.6599 74.6356 66.5498 74.6354 66.4358V62.389C76.1606 62.1349 77.7045 62.0094 79.2507 62.0139C85.0046 62.0139 89.8177 63.6628 91.0246 65.8701C91.2067 66.1872 91.3076 66.5444 91.3183 66.9098V66.9098Z" fill="#3F3D56"/>
<path d="M107.574 65.5183V66.4358C107.574 66.5616 107.524 66.6821 107.435 66.771C107.346 66.8599 107.225 66.9099 107.1 66.9099H89.1661C89.743 66.4921 90.3666 66.1432 91.0245 65.8702C93.2216 64.9279 96.3203 64.3404 99.7534 64.3404C102.737 64.3404 105.467 64.7825 107.574 65.5183Z" fill="#3F3D56"/>
<path d="M93.2258 0C93.1626 8.72637e-05 93.1005 0.0156922 93.0449 0.0454405L60.4295 17.3944C60.3392 17.4427 60.2717 17.5247 60.2418 17.6227C60.2119 17.7206 60.2221 17.8264 60.27 17.9168L72.7229 41.3278C72.7711 41.4182 72.8532 41.4857 72.9511 41.5157C73.0491 41.5456 73.1549 41.5355 73.2454 41.4875L105.861 24.1385C105.951 24.0903 106.019 24.0082 106.048 23.9103C106.078 23.8123 106.068 23.7065 106.02 23.6161L93.5673 0.20512C93.5436 0.160232 93.5112 0.120494 93.472 0.0882085C93.4329 0.0559232 93.3877 0.0317327 93.3391 0.0170391C93.3024 0.00578336 93.2642 4.10912e-05 93.2258 0V0Z" fill="#E6E6E6"/>
<path d="M92.3577 3.09721L101.207 19.7343C101.237 19.7893 101.255 19.8496 101.261 19.9116C101.267 19.9736 101.261 20.0362 101.242 20.0958C101.224 20.1554 101.194 20.2108 101.155 20.2589C101.115 20.307 101.066 20.3468 101.011 20.376L72.7689 35.399C72.7488 35.4099 72.7279 35.419 72.7063 35.4263C72.5991 35.4649 72.4815 35.4636 72.3751 35.4226C72.2688 35.3816 72.1807 35.3036 72.1272 35.203L63.2774 18.5658C63.2481 18.5108 63.23 18.4506 63.224 18.3886C63.218 18.3266 63.2243 18.264 63.2425 18.2044C63.2607 18.1448 63.2905 18.0894 63.3301 18.0413C63.3697 17.9932 63.4185 17.9534 63.4735 17.9242L91.7161 2.90116C91.7711 2.87188 91.8313 2.85372 91.8933 2.84773C91.9553 2.84173 92.0179 2.84802 92.0775 2.86623C92.1371 2.88443 92.1925 2.91421 92.2406 2.95384C92.2887 2.99347 92.3285 3.04219 92.3577 3.09721V3.09721Z" fill="white"/>
<path d="M73.4809 24.7397C75.7797 24.7397 77.6432 22.8762 77.6432 20.5774C77.6432 18.2787 75.7797 16.4151 73.4809 16.4151C71.1822 16.4151 69.3187 18.2787 69.3187 20.5774C69.3187 22.8762 71.1822 24.7397 73.4809 24.7397Z" fill="#FF6584"/>
<path d="M91.0283 25.7719L73.0012 35.361C72.9788 35.3733 72.9553 35.3835 72.931 35.3915L73.6013 16.0881C73.6044 15.9684 73.6392 15.8517 73.7022 15.7499C73.7652 15.6481 73.854 15.5649 73.9597 15.5087C74.0654 15.4525 74.1841 15.4253 74.3037 15.43C74.4233 15.4347 74.5395 15.471 74.6405 15.5353L85.6342 22.4022L86.1606 22.7307L91.0283 25.7719Z" fill="#3F3D56"/>
<path opacity="0.2" d="M91.0281 25.772L84.8732 29.0459L85.5601 23.0501L85.6094 22.6182L85.634 22.4023L86.1604 22.7307L91.0281 25.772Z" fill="black"/>
<path d="M101.066 20.4328L85.4736 28.7266L86.1606 22.7307L86.2098 22.2989L87.1047 14.4853C87.1635 13.9731 87.772 13.6195 88.2497 13.7855C88.2819 13.797 88.3134 13.8106 88.344 13.8261L101.066 20.4328Z" fill="#3F3D56"/>
<path d="M61.5107 18.4653C61.8236 18.4653 62.0773 18.2116 62.0773 17.8987C62.0773 17.5857 61.8236 17.3321 61.5107 17.3321C61.1978 17.3321 60.9441 17.5857 60.9441 17.8987C60.9441 18.2116 61.1978 18.4653 61.5107 18.4653Z" fill="#3F3D56"/>
<path d="M92.7919 1.82587C93.1048 1.82587 93.3585 1.57219 93.3585 1.25927C93.3585 0.946342 93.1048 0.692665 92.7919 0.692665C92.479 0.692665 92.2253 0.946342 92.2253 1.25927C92.2253 1.57219 92.479 1.82587 92.7919 1.82587Z" fill="#3F3D56"/>
<path d="M73.4314 40.8757C73.7443 40.8757 73.998 40.622 73.998 40.3091C73.998 39.9962 73.7443 39.7425 73.4314 39.7425C73.1184 39.7425 72.8647 39.9962 72.8647 40.3091C72.8647 40.622 73.1184 40.8757 73.4314 40.8757Z" fill="#3F3D56"/>
<path d="M104.713 24.2363C105.026 24.2363 105.279 23.9826 105.279 23.6697C105.279 23.3568 105.026 23.1031 104.713 23.1031C104.4 23.1031 104.146 23.3568 104.146 23.6697C104.146 23.9826 104.4 24.2363 104.713 24.2363Z" fill="#3F3D56"/>
<path d="M101.123 112.133C101.222 112.159 101.327 112.145 101.416 112.094C101.504 112.042 101.569 111.958 101.596 111.859L108.412 86.2332C108.439 86.1342 108.425 86.0288 108.373 85.9401C108.322 85.8515 108.237 85.7869 108.138 85.7606L72.4374 76.2635C72.3384 76.2373 72.233 76.2514 72.1444 76.3028C72.0558 76.3542 71.9912 76.4386 71.9649 76.5376L65.1481 102.163C65.135 102.212 65.1318 102.263 65.1385 102.314C65.1452 102.364 65.1617 102.413 65.1872 102.456C65.2126 102.5 65.2465 102.539 65.2868 102.57C65.3271 102.6 65.3731 102.623 65.4221 102.636L101.123 112.133Z" fill="#E6E6E6"/>
<path d="M105.557 87.5281L100.712 105.74C100.68 105.861 100.601 105.965 100.492 106.028C100.383 106.091 100.254 106.108 100.132 106.076L69.2175 97.8522C69.1957 97.8467 69.1746 97.839 69.1544 97.8294C69.0494 97.7849 68.964 97.7041 68.9138 97.6018C68.8636 97.4994 68.8521 97.3824 68.8813 97.2722L73.7259 79.0605C73.7582 78.939 73.8375 78.8353 73.9462 78.7723C74.055 78.7092 74.1843 78.6919 74.3058 78.7242L105.221 86.9481C105.342 86.9804 105.446 87.0597 105.509 87.1685C105.572 87.2772 105.589 87.4066 105.557 87.5281V87.5281Z" fill="white"/>
<path d="M101.401 103.153L100.712 105.74C100.68 105.861 100.601 105.965 100.492 106.028C100.383 106.091 100.254 106.108 100.132 106.076L69.2175 97.8523C69.1957 97.8468 69.1746 97.8391 69.1544 97.8295C69.0494 97.785 68.964 97.7042 68.9138 97.6019C68.8636 97.4995 68.8521 97.3825 68.8813 97.2723L69.5694 94.6853L101.401 103.153Z" fill="#3F3D56"/>
<path d="M87.7411 101.174L82.8228 99.8659L82.6732 100.428L87.5915 101.736L87.7411 101.174Z" fill="#CCCCCC"/>
<path d="M76.4288 98.1651L71.5106 96.8568L71.361 97.4188L76.2793 98.7272L76.4288 98.1651Z" fill="#CCCCCC"/>
<path d="M99.0531 104.183L94.1349 102.875L93.9854 103.437L98.9036 104.745L99.0531 104.183Z" fill="#CCCCCC"/>
<path d="M72.8861 77.9356C73.199 77.9356 73.4527 77.6819 73.4527 77.369C73.4527 77.056 73.199 76.8024 72.8861 76.8024C72.5731 76.8024 72.3195 77.056 72.3195 77.369C72.3195 77.6819 72.5731 77.9356 72.8861 77.9356Z" fill="#3F3D56"/>
<path d="M107.127 87.0441C107.44 87.0441 107.694 86.7905 107.694 86.4775C107.694 86.1646 107.44 85.9109 107.127 85.9109C106.814 85.9109 106.56 86.1646 106.56 86.4775C106.56 86.7905 106.814 87.0441 107.127 87.0441Z" fill="#3F3D56"/>
<path d="M66.3606 102.466C66.6735 102.466 66.9272 102.213 66.9272 101.9C66.9272 101.587 66.6735 101.333 66.3606 101.333C66.0477 101.333 65.794 101.587 65.794 101.9C65.794 102.213 66.0477 102.466 66.3606 102.466Z" fill="#3F3D56"/>
<path d="M100.601 111.575C100.914 111.575 101.168 111.321 101.168 111.008C101.168 110.695 100.914 110.442 100.601 110.442C100.288 110.442 100.035 110.695 100.035 111.008C100.035 111.321 100.288 111.575 100.601 111.575Z" fill="#3F3D56"/>
<path d="M93.7983 101.973L96.5314 102.701L96.6471 102.268L93.914 101.539L93.7983 101.973Z" fill="#3F3D56"/>
<path d="M74.1236 96.3786L74.6529 96.6591L96.0842 102.372L96.3964 101.975C96.9375 101.294 97.2786 100.476 97.3817 99.6123C97.4544 98.9675 97.387 98.2897 96.9328 97.8823L97.6669 91.2939L85.814 88.1181L80.2415 90.5981C80.2415 90.5981 78.0877 89.9835 76.5225 91.1345C75.9536 91.566 75.5277 92.1587 75.3004 92.8356L75.0515 93.5847L74.1236 96.3786Z" fill="#6C63FF"/>
<path d="M78.8597 100.264C80.3723 100.264 81.5985 99.0376 81.5985 97.525C81.5985 96.0124 80.3723 94.7862 78.8597 94.7862C77.3471 94.7862 76.1208 96.0124 76.1208 97.525C76.1208 99.0376 77.3471 100.264 78.8597 100.264Z" fill="#3F3D56"/>
<path d="M78.8596 98.9664C79.6557 98.9664 80.3011 98.3211 80.3011 97.525C80.3011 96.7289 79.6557 96.0835 78.8596 96.0835C78.0635 96.0835 77.4182 96.7289 77.4182 97.525C77.4182 98.3211 78.0635 98.9664 78.8596 98.9664Z" fill="#CCCCCC"/>
<path d="M91.9181 103.745C93.4307 103.745 94.6569 102.519 94.6569 101.006C94.6569 99.4936 93.4307 98.2674 91.9181 98.2674C90.4055 98.2674 89.1793 99.4936 89.1793 101.006C89.1793 102.519 90.4055 103.745 91.9181 103.745Z" fill="#3F3D56"/>
<path d="M91.918 102.448C92.7141 102.448 93.3595 101.802 93.3595 101.006C93.3595 100.21 92.7141 99.5647 91.918 99.5647C91.1219 99.5647 90.4766 100.21 90.4766 101.006C90.4766 101.802 91.1219 102.448 91.918 102.448Z" fill="#CCCCCC"/>
<path d="M82.1796 90.6505L88.5814 92.3565L89.363 92.5644L90.6825 92.9164L90.708 92.82L91.0176 91.66L91.3652 90.3572L90.4873 90.1237L89.7059 89.9149L88.3217 89.5457L87.5402 89.3378L85.9421 88.9117L82.1796 90.6505Z" fill="white"/>
<path d="M91.7239 93.1945L95.1073 94.0964L95.2849 93.4326L95.5934 92.2724L95.79 91.5374L95.2946 91.4055L94.5132 91.1967L92.4058 90.6351L91.7239 93.1945Z" fill="white"/>
<path d="M89.5203 95.535L89.9541 95.6507L90.1738 94.8264L89.74 94.7107L89.5203 95.535Z" fill="#3F3D56"/>
<path d="M83.6024 92.2841L83.7181 91.8503L82.8938 91.6305L82.7782 92.0643L83.6024 92.2841Z" fill="#3F3D56"/>
<path d="M83.3634 91.9601L83.3157 91.9474C83.0752 91.8833 82.87 91.7263 82.7453 91.5109C82.6206 91.2955 82.5866 91.0394 82.6507 90.799V90.799C82.7148 90.5585 82.8718 90.3533 83.0872 90.2286C83.3026 90.1039 83.5586 90.0699 83.7991 90.134L83.8468 90.1467L83.3634 91.9601Z" fill="#3F3D56"/>
<path d="M75.0515 93.5848C75.3701 93.7078 75.722 93.7143 76.045 93.6034C76.368 93.4924 76.6415 93.271 76.8172 92.9782C76.993 92.6854 77.0599 92.3399 77.0059 92.0027C76.952 91.6654 76.7808 91.358 76.5225 91.1346C75.9536 91.5661 75.5278 92.1588 75.3005 92.8357L75.0515 93.5848Z" fill="#3F3D56"/>
<path d="M89.7059 89.915L90.708 92.8201L91.0176 91.66L90.4873 90.1238L89.7059 89.915Z" fill="#F2F2F2"/>
<path d="M94.5131 91.1967L95.2847 93.4327L95.5933 92.2725L95.2945 91.4055L94.5131 91.1967Z" fill="#F2F2F2"/>
<path d="M87.5402 89.3379L88.5814 92.3566L89.363 92.5645L88.3217 89.5458L87.5402 89.3379Z" fill="#F2F2F2"/>
<path d="M5.81889 45.1225C6.78258 45.1225 7.56381 44.3413 7.56381 43.3776C7.56381 42.4139 6.78258 41.6327 5.81889 41.6327C4.8552 41.6327 4.07397 42.4139 4.07397 43.3776C4.07397 44.3413 4.8552 45.1225 5.81889 45.1225Z" fill="#6C63FF"/>
<path opacity="0.2" d="M6.55529 41.7975C6.86469 42.0777 7.06324 42.4596 7.11483 42.8738C7.16641 43.288 7.06761 43.707 6.83639 44.0545C6.60516 44.402 6.25688 44.655 5.8549 44.7674C5.45292 44.8798 5.02394 44.8442 4.646 44.667C4.83171 44.8362 5.0518 44.9633 5.2912 45.0396C5.53061 45.1158 5.78366 45.1394 6.03304 45.1088C6.28241 45.0781 6.52221 44.9939 6.73601 44.8619C6.94981 44.73 7.13257 44.5533 7.27175 44.3442C7.41093 44.135 7.50326 43.8982 7.5424 43.65C7.58154 43.4018 7.56658 43.1481 7.49854 42.9062C7.4305 42.6644 7.31098 42.4401 7.14817 42.2487C6.98537 42.0573 6.78312 41.9034 6.55529 41.7975V41.7975Z" fill="black"/>
<path d="M50.6778 47.0128C53.0468 47.0128 54.9674 46.2316 54.9674 45.2679C54.9674 44.3042 53.0468 43.523 50.6778 43.523C48.3087 43.523 46.3882 44.3042 46.3882 45.2679C46.3882 46.2316 48.3087 47.0128 50.6778 47.0128Z" fill="#3F3D56"/>
<path opacity="0.2" d="M50.6778 43.523C50.5305 43.523 50.3851 43.526 50.2416 43.5319C52.4057 43.6209 54.0949 44.3641 54.0949 45.2679C54.0949 46.1717 52.4057 46.915 50.2416 47.0039C50.385 47.0098 50.5304 47.0128 50.6778 47.0128C53.0469 47.0128 54.9674 46.2316 54.9674 45.2679C54.9674 44.3042 53.0469 43.523 50.6778 43.523Z" fill="black"/>
<path d="M56.276 45.2679H34.7554V42.9414C34.7554 42.8257 34.7095 42.7147 34.6276 42.6329C34.5458 42.5511 34.4349 42.5051 34.3192 42.5051H22.3956C22.2799 42.5051 22.1689 42.5511 22.0871 42.6329C22.0053 42.7147 21.9594 42.8257 21.9594 42.9414V45.2679H9.45413V43.8138C9.45413 43.6981 9.40817 43.5872 9.32636 43.5054C9.24456 43.4236 9.1336 43.3776 9.0179 43.3776H2.61988C2.50418 43.3776 2.39323 43.4236 2.31142 43.5054C2.22961 43.5872 2.18365 43.6981 2.18365 43.8138V45.2679H0.438732C0.381424 45.2678 0.324665 45.2791 0.271705 45.301C0.218744 45.3229 0.170625 45.355 0.130102 45.3955C0.0895795 45.436 0.0574491 45.4842 0.0355537 45.5371C0.0136583 45.5901 0.00242627 45.6468 0.00250283 45.7042V74.3499C0.00242627 74.4072 0.0136583 74.4639 0.0355537 74.5169C0.0574491 74.5698 0.0895795 74.618 0.130102 74.6585C0.170625 74.699 0.218744 74.7311 0.271705 74.753C0.324665 74.7749 0.381424 74.7862 0.438732 74.7861H56.276C56.3334 74.7862 56.3901 74.7749 56.4431 74.753C56.496 74.7311 56.5442 74.699 56.5847 74.6585C56.6252 74.618 56.6573 74.5698 56.6792 74.5169C56.7011 74.4639 56.7124 74.4072 56.7123 74.3499V45.7042C56.7124 45.6468 56.7011 45.5901 56.6792 45.5371C56.6573 45.4842 56.6252 45.436 56.5847 45.3955C56.5442 45.355 56.496 45.3229 56.4431 45.301C56.3901 45.2791 56.3334 45.2678 56.276 45.2679V45.2679Z" fill="#3F3D56"/>
<path opacity="0.2" d="M56.2736 72.6498H0.43623C0.378922 72.6499 0.322163 72.6386 0.269202 72.6167C0.216242 72.5948 0.168121 72.5627 0.127598 72.5222C0.0870749 72.4817 0.0549467 72.4335 0.0330513 72.3806C0.0111558 72.3276 -7.6175e-05 72.2709 3.88802e-07 72.2135V74.2493C-7.6175e-05 74.3066 0.0111558 74.3634 0.0330513 74.4163C0.0549467 74.4693 0.0870749 74.5174 0.127598 74.5579C0.168121 74.5985 0.216242 74.6306 0.269202 74.6525C0.322163 74.6744 0.378922 74.6856 0.43623 74.6855H56.2736C56.3309 74.6856 56.3876 74.6744 56.4406 74.6525C56.4936 74.6306 56.5417 74.5985 56.5822 74.5579C56.6227 74.5174 56.6548 74.4693 56.6767 74.4163C56.6986 74.3634 56.7099 74.3066 56.7098 74.2493V72.2135C56.7099 72.2709 56.6986 72.3276 56.6767 72.3806C56.6548 72.4335 56.6227 72.4817 56.5822 72.5222C56.5417 72.5627 56.4936 72.5948 56.4406 72.6167C56.3876 72.6386 56.3309 72.6499 56.2736 72.6498Z" fill="black"/>
<path opacity="0.2" d="M56.7122 58.6456H0.00250244V64.1712H56.7122V58.6456Z" fill="black"/>
<path opacity="0.2" d="M56.7122 55.8828H0.00250244V61.4084H56.7122V55.8828Z" fill="black"/>
<path d="M56.7122 57.1915H0.00250244V62.7171H56.7122V57.1915Z" fill="#6C63FF"/>
<path d="M28.3573 71.0054C34.4607 71.0054 39.4085 66.0577 39.4085 59.9543C39.4085 53.8509 34.4607 48.9032 28.3573 48.9032C22.254 48.9032 17.3062 53.8509 17.3062 59.9543C17.3062 66.0577 22.254 71.0054 28.3573 71.0054Z" fill="#6C63FF"/>
<path opacity="0.2" d="M36.8696 52.9072C38.2755 55.3023 38.7279 58.139 38.1368 60.8526C37.5458 63.5662 35.9546 65.9578 33.68 67.5513C31.4054 69.1448 28.6142 69.8235 25.8619 69.4521C23.1096 69.0808 20.598 67.6867 18.8271 65.5474C19.5994 66.8635 20.636 68.0054 21.8715 68.9011C23.1069 69.7969 24.5146 70.427 26.0056 70.7518C27.4966 71.0767 29.0388 71.0891 30.5349 70.7885C32.031 70.4879 33.4486 69.8806 34.6985 69.005C35.9483 68.1294 37.0032 67.0045 37.7968 65.701C38.5903 64.3976 39.1053 62.9439 39.3093 61.4316C39.5132 59.9192 39.4018 58.3811 38.9819 56.9139C38.562 55.4468 37.8428 54.0826 36.8696 52.9072V52.9072Z" fill="black"/>
<path d="M28.3573 68.1785C32.8994 68.1785 36.5814 64.4964 36.5814 59.9544C36.5814 55.4123 32.8994 51.7303 28.3573 51.7303C23.8153 51.7303 20.1332 55.4123 20.1332 59.9544C20.1332 64.4964 23.8153 68.1785 28.3573 68.1785Z" fill="#3F3D56"/>
<path d="M34.7554 59.9544C34.7567 60.8229 34.5801 61.6825 34.2363 62.4801C34.0522 62.9103 33.8205 63.3185 33.5456 63.6972C33.0037 64.4491 32.3048 65.0742 31.4974 65.5294C30.69 65.9845 29.7934 66.2588 28.8695 66.3333C27.9457 66.4078 27.0167 66.2806 26.1468 65.9606C25.277 65.6406 24.487 65.1355 23.8316 64.4801C23.1763 63.8247 22.6711 63.0348 22.3511 62.1649C22.0311 61.2951 21.904 60.3661 21.9784 59.4422C22.0529 58.5184 22.3272 57.6217 22.7824 56.8143C23.2375 56.007 23.8627 55.3081 24.6145 54.7661C24.9932 54.4912 25.4014 54.2595 25.8316 54.0754C26.8049 53.6575 27.8667 53.4876 28.9218 53.5812C29.9769 53.6748 30.9923 54.0288 31.8769 54.6115C32.7614 55.1942 33.4875 55.9874 33.9899 56.92C34.4923 57.8525 34.7553 58.8951 34.7554 59.9544V59.9544Z" fill="white"/>
<path opacity="0.2" d="M34.6869 59.0223C34.4484 57.3956 33.5918 55.9234 32.2953 54.9123C32.8571 55.7919 33.1952 56.7957 33.28 57.836C33.3649 58.8763 33.1939 59.9216 32.7821 60.8807C32.598 61.3109 32.3663 61.7191 32.0914 62.0977C31.588 62.7961 30.9487 63.3856 30.212 63.8309C29.4752 64.2763 28.6562 64.5682 27.8038 64.6893C26.9515 64.8104 26.0835 64.7582 25.2519 64.5357C24.4203 64.3132 23.6421 63.9251 22.9641 63.3946C23.5252 64.2753 24.2935 65.0052 25.2018 65.5205C26.1101 66.0358 27.1307 66.3209 28.1746 66.3507C29.2184 66.3806 30.2537 66.1544 31.19 65.6918C32.1262 65.2292 32.9349 64.5445 33.5455 63.6972C33.8204 63.3186 34.0521 62.9104 34.2362 62.4802C34.7036 61.3915 34.8596 60.1944 34.6869 59.0223V59.0223Z" fill="black"/>
</g>
<defs>
<clipPath id="clip0">
<rect width="110" height="112.146" fill="white"/>
</clipPath>
</defs>
</svg>
