<svg width="110" height="87" viewBox="0 0 110 87" fill="none" xmlns="http://www.w3.org/2000/svg">
<g clip-path="url(#clip0)">
<path opacity="0.1" d="M38.5861 84.4041C49.1833 84.4041 57.7741 82.7767 57.7741 80.7692C57.7741 78.7617 49.1833 77.1343 38.5861 77.1343C27.9889 77.1343 19.3982 78.7617 19.3982 80.7692C19.3982 82.7767 27.9889 84.4041 38.5861 84.4041Z" fill="#6C63FF"/>
<path opacity="0.1" d="M63.9107 12.1383C56.8588 11.8942 50.1425 9.61693 43.7291 7.12609C37.3157 4.63526 30.9633 1.87638 24.0802 0.556864C19.6532 -0.291939 14.5898 -0.412885 11.0235 1.9581C7.59015 4.24627 6.48093 8.18519 5.88492 11.843C5.436 14.5953 5.17231 17.4926 6.40139 20.0695C7.25564 21.8586 8.77019 23.3623 9.81839 25.0762C13.4653 31.0386 10.8873 38.3912 6.93639 44.213C5.08406 46.9435 2.93209 49.5521 1.50144 52.4559C0.0707838 55.3596 -0.590606 58.6982 0.66135 61.6685C1.90132 64.6104 4.85742 66.8158 8.05977 68.3684C14.5636 71.5228 22.2246 72.425 29.7004 72.9372C46.2439 74.0682 62.8745 73.5789 79.4616 73.0875C85.6004 72.9066 91.7654 72.7225 97.804 71.7735C101.158 71.2461 104.619 70.4093 107.055 68.3891C110.145 65.8253 110.911 61.4843 108.84 58.27C105.366 52.8764 95.7643 51.5373 93.3334 45.7504C91.9975 42.5644 93.3693 39.0167 95.3121 36.0627C99.4787 29.7245 106.462 24.1643 106.829 16.9206C107.082 11.9454 103.725 6.96265 98.534 4.60802C93.0936 2.14006 85.5481 2.4506 81.5362 6.53553C77.4011 10.737 70.1378 12.3551 63.9107 12.1383Z" fill="#6C63FF"/>
<path d="M58.307 39.4154L54.9695 37.1654L56.6529 34.6593L47.838 33.9565L44.6706 36.4059L40.7055 34.1831L37.3985 34.5808L37.3593 33.7091C37.3184 32.8004 37.2271 31.8946 37.0858 30.996C37.1 30.7236 37.1098 30.4109 37.1087 30.0709C37.1087 28.6381 36.9148 26.7389 36.0627 25.4728L36.2588 23.7098L34.668 21.8303C34.9235 21.3214 35.2148 20.8313 35.5397 20.3636C35.5942 20.2852 35.6486 20.2089 35.7075 20.1348C37.7723 19.9855 39.4012 18.2879 39.4012 16.2122C39.4012 16.1164 39.4012 16.0205 39.3903 15.9257C39.3903 15.8875 39.3827 15.8483 39.3784 15.8102C39.5799 15.9191 39.7837 16.0281 39.9874 16.1371C40.0256 16.1915 40.0692 16.246 40.1171 16.3103L40.1269 16.3223L40.1879 16.3975L40.2075 16.4204C40.2293 16.4465 40.2522 16.4716 40.2751 16.4977L40.2904 16.5152C40.3481 16.5794 40.4091 16.6448 40.4745 16.7091C40.4823 16.7154 40.4896 16.7224 40.4963 16.7298L40.578 16.8061L40.6009 16.8268C40.6706 16.8889 40.7447 16.9488 40.8188 17.0055L40.8428 17.0229L40.9365 17.0872L40.967 17.1068C41.003 17.1286 41.04 17.1515 41.076 17.1722L41.089 17.1798C41.1315 17.2027 41.1751 17.2245 41.2187 17.2452L41.2405 17.2539C41.2775 17.2699 41.3139 17.2851 41.3494 17.2997L41.3832 17.3117C41.4214 17.3247 41.4584 17.3367 41.4976 17.3476L41.5216 17.3542C41.5695 17.3661 41.6175 17.3759 41.6665 17.3836H41.672C41.7181 17.391 41.7647 17.3958 41.8114 17.3977H41.843C41.8848 17.3999 41.9266 17.3999 41.9683 17.3977H41.9956C42.0478 17.3947 42.0999 17.3885 42.1514 17.3792C42.3952 17.3472 42.6293 17.2632 42.8379 17.133C42.891 17.0975 42.938 17.0537 42.9773 17.0033C43.1952 16.7178 42.9555 16.4051 42.9555 16.4051C42.8705 16.2024 42.3192 16.0597 42.3192 16.0597C42.3192 16.0597 40.5758 15.3318 40.5758 14.7522C40.5758 14.1725 40.14 11.1652 35.641 10.4777C35.641 10.4777 32.7143 10.3131 31.8917 11.88L31.8742 12.063C31.6324 12.2145 31.4319 12.5185 31.1932 12.6078C31.0901 12.63 30.9907 12.6667 30.898 12.7168V12.6961C30.8704 12.7202 30.8478 12.7494 30.8315 12.7822C30.7802 12.8842 30.7495 12.9952 30.7411 13.1091C30.7165 13.2481 30.6682 13.3819 30.5983 13.5046C30.5788 13.5394 30.557 13.5729 30.5329 13.6048V13.6048L30.5144 13.6342C30.6409 13.6441 30.7679 13.6236 30.8849 13.5743C30.8665 13.7235 30.8299 13.8699 30.7759 14.0102C30.8452 14.0124 30.9136 13.9947 30.9731 13.9591C31.0326 13.9236 31.0807 13.8717 31.1115 13.8097V13.801L31.1257 13.7813C31.1531 13.7309 31.1757 13.678 31.1932 13.6233L31.1813 13.6364C31.203 13.5656 31.2227 13.4937 31.2466 13.4239C31.2576 13.3847 31.2757 13.3477 31.3 13.315C31.3291 13.2857 31.3647 13.2636 31.4038 13.2505C31.443 13.2375 31.4847 13.2338 31.5256 13.2398L31.4809 14.1845H31.5005C31.4743 14.2532 31.4422 14.3196 31.4046 14.3828C31.2499 14.6334 30.9688 14.8045 30.8653 15.0791C30.8206 15.2115 30.8036 15.3517 30.8151 15.4909C30.8151 15.5726 30.825 15.6555 30.8315 15.7372V15.7306C30.8467 15.9486 30.8511 16.1556 30.7334 16.331C30.6528 16.4509 30.5231 16.5413 30.4785 16.6775C30.4661 16.7155 30.4606 16.7553 30.4621 16.7952C30.4709 16.9146 30.4958 17.0323 30.5362 17.1449C30.5367 17.1428 30.5367 17.1406 30.5362 17.1384C30.5634 17.2213 30.5697 17.3096 30.5547 17.3956C30.5057 17.6135 30.2409 17.7954 30.254 18.0036C30.2533 18.0309 30.2573 18.0582 30.266 18.0842C30.3169 18.1858 30.4051 18.2639 30.5122 18.3021C30.6802 18.3976 30.8732 18.4402 31.0658 18.4241C31.1379 18.4111 31.2077 18.3872 31.2728 18.3533C31.1965 18.5287 31.1181 18.702 31.0385 18.8665C31.0265 18.8927 31.0135 18.9188 31.0004 18.945C31.0004 18.945 30.327 18.495 29.9445 19.4124C29.8329 19.6031 29.753 19.8106 29.7081 20.027C29.6889 20.1135 29.662 20.1981 29.6275 20.2797C29.4577 20.5672 29.2036 20.7954 28.8996 20.9335C28.1195 21.2909 24.9683 25.2211 24.9128 26.2388C24.8855 26.6361 24.8183 27.0296 24.7123 27.4134C24.4642 28.3173 24.4005 29.2618 24.5249 30.1908C24.5638 30.491 24.6283 30.7874 24.7177 31.0766C25.0522 32.0932 25.2756 33.9902 25.2756 33.9902L25.6373 37.283C25.6239 37.7375 25.6436 38.1923 25.6962 38.6439C25.3268 39.0656 23.8439 40.8232 24.4104 41.3015C24.8463 41.6785 25.609 41.6164 26.0372 41.539C25.6766 42.4314 25.1089 43.983 25.0337 45.0486C24.9247 46.6253 25.22 48.7141 25.6875 49.516C26.1549 50.318 27.713 52.3752 27.713 52.3752C27.713 52.3752 27.64 55.1972 28.1968 56.2225C28.7536 57.2479 28.9781 59.3748 28.9781 59.3748C28.9781 59.3748 29.4978 61.1704 29.2374 61.8307C28.977 62.491 29.7201 63.0402 28.9399 63.4793C28.1598 63.9184 27.1617 73.8153 27.1617 73.8153C27.1617 73.8153 26.7596 80.3017 27.1617 80.6319C27.1832 80.6475 27.2062 80.661 27.2303 80.6722V82.8514C27.2303 82.8514 26.9514 83.309 28.0857 83.4017C28.8626 83.4638 31.0647 83.6043 32.3711 83.686L33.3833 83.7492C33.3833 83.7492 35.7805 84.2265 36.8396 83.7492C37.8987 83.272 39.7761 83.2829 39.4971 82.0222C39.4601 81.8507 39.4106 81.682 39.3489 81.5177C39.0428 80.7354 38.523 80.646 37.5652 80.4281C37.5097 80.4161 37.4563 80.4052 37.4073 80.3965C36.3983 80.2211 36.067 80.6907 35.5015 80.0794C35.0101 79.551 33.4455 78.9593 32.9126 78.7719C32.9257 78.7327 32.9421 78.6946 32.9551 78.6542C32.8043 78.6286 32.6639 78.5602 32.5509 78.457L33.9946 78.5486L34.8543 78.6019C34.8543 78.6019 36.8919 79.0084 37.7962 78.6019C38.7006 78.1955 40.2914 78.2064 40.0539 77.1353C40.0226 76.9894 39.9807 76.8459 39.9286 76.706C39.6682 76.0414 39.2258 75.9684 38.4119 75.7842C38.365 75.7744 38.3214 75.7646 38.2779 75.757C37.4203 75.6077 37.1392 76.0065 36.6587 75.4879C36.2468 75.0455 34.9469 74.5497 34.4795 74.3808C34.4795 74.1389 34.1526 73.7946 33.9467 73.4492C33.7048 73.046 34.1515 71.635 34.1515 71.635L34.4065 65.7806C34.5036 65.7373 34.6063 65.708 34.7116 65.6934C34.7116 65.6934 35.8644 64.5929 35.604 63.4205C35.5509 63.0659 35.5232 62.7079 35.5212 62.3494C35.9003 61.9975 36.4223 61.4777 36.5704 61.1574C36.8123 60.6354 36.5704 58.1065 36.5704 58.1065V48.4362L38.499 48.6313L40.2489 48.8111L40.7818 48.8655L42.5317 49.042L46.5534 49.4485L50.1774 48.762L51.7454 48.4656L54.9695 47.8555V39.9667L58.307 39.4154ZM31.7631 13.2747L31.5386 13.2507C31.6127 13.254 31.6912 13.2681 31.7631 13.2747Z" fill="url(#paint0_linear)"/>
<path d="M50.4847 44.5376C49.3951 46.0968 45.4779 45.2709 45.4779 45.2709L42.4423 42.4303L42.0337 42.0457L42.7191 40.59C42.7191 40.59 42.937 40.6499 43.3107 40.7567C45.2731 41.3265 51.4043 43.2268 50.4847 44.5376Z" fill="#EFB7B9"/>
<path opacity="0.1" d="M43.3085 40.7567C43.1745 41.223 42.8073 41.9214 42.4423 42.4303L42.0337 42.0457L42.7191 40.59C42.7191 40.59 42.9392 40.6499 43.3085 40.7567Z" fill="black"/>
<path d="M32.8974 24.3407C32.8974 24.3407 30.0993 25.5818 30.2366 28.6294C30.3354 30.5928 30.5493 32.5487 30.8773 34.4871C30.8773 34.4871 30.3052 39.0732 32.6871 40.2555C35.069 41.4377 37.2732 42.4096 37.2732 42.4096C37.2732 42.4096 40.9997 42.8106 41.4628 42.9762C41.9259 43.1418 43.3729 40.6096 43.1059 40.2151C42.8389 39.8207 39.4187 38.9937 38.9828 38.3356C38.547 37.6775 37.5391 37.271 37.5391 37.271C37.5391 37.271 36.4985 36.6412 36.4277 36.0725C36.3569 35.5037 36.6315 35.0798 36.7012 34.8303C36.7709 34.5808 36.9475 32.1717 36.9475 32.1717C36.9475 32.1717 38.122 23.5965 32.8974 24.3407Z" fill="#DCE6F2"/>
<path opacity="0.1" d="M34.7442 34.3618C34.7442 34.3618 30.9055 35.0047 31.2771 36.3482C31.2771 36.3482 32.6707 34.8979 34.7442 34.3618Z" fill="black"/>
<path opacity="0.1" d="M34.7737 34.9055C34.7737 34.9055 32.6631 36.6282 33.0761 36.7165C33.489 36.8047 34.7737 34.9055 34.7737 34.9055Z" fill="black"/>
<path opacity="0.1" d="M35.788 35.5059C35.788 35.5059 35.2225 36.6641 35.5701 36.5857C35.9177 36.5072 35.788 35.5059 35.788 35.5059Z" fill="black"/>
<path opacity="0.1" d="M43.4501 40.8798L43.217 40.8133C43.2834 40.5954 43.302 40.4189 43.2475 40.3372C42.9805 39.9428 39.5624 39.1168 39.1277 38.4576C38.6929 37.7984 37.684 37.3931 37.684 37.3931C37.684 37.3931 36.6434 36.7633 36.5726 36.1945C36.5017 35.6257 36.7763 35.2019 36.8461 34.9524C36.9158 34.7028 37.0923 32.2926 37.0923 32.2926C37.0923 32.2926 38.2636 23.7185 33.039 24.4627C33.039 24.4627 30.2409 25.7049 30.3771 28.7525C30.4759 30.716 30.6902 32.6719 31.0188 34.6102C31.0188 34.6102 30.4468 39.1964 32.8287 40.3786C35.2106 41.5608 37.4148 42.5327 37.4148 42.5327C37.4148 42.5327 41.1402 42.9326 41.6044 43.0993C41.7798 43.1625 42.0969 42.8367 42.4074 42.3889L42.5839 42.5534L45.6195 45.393C45.6195 45.393 49.5367 46.22 50.6263 44.6607C51.547 43.3489 45.4169 41.4486 43.4501 40.8798Z" fill="black"/>
<path d="M31.2869 12.902C31.1803 12.9229 31.0781 12.9623 30.9851 13.0186C30.8761 13.109 30.8761 13.2638 30.8489 13.3989C30.8169 13.5868 30.7424 13.765 30.631 13.9197C30.755 13.9288 30.8793 13.9083 30.9938 13.8598C30.9752 14.0089 30.9386 14.1553 30.8849 14.2956C30.9528 14.2973 31.0197 14.2795 31.0777 14.2441C31.1357 14.2087 31.1822 14.1574 31.2117 14.0962C31.2694 13.9734 31.315 13.8454 31.3479 13.7138C31.3582 13.6744 31.3759 13.6374 31.4002 13.6048C31.5005 13.486 31.6868 13.5394 31.8415 13.5547C31.9703 13.5655 32.0996 13.5418 32.2161 13.4858C32.3326 13.4299 32.432 13.3438 32.504 13.2365C32.6686 12.987 32.6784 12.3485 32.2861 12.2809C31.8764 12.2134 31.6214 12.7778 31.2869 12.902Z" fill="#965D7B"/>
<g opacity="0.1">
<path opacity="0.1" d="M30.9742 13.1526C30.984 13.0993 30.9905 13.0437 31.0025 12.9903C30.899 13.0807 30.8935 13.2344 30.8663 13.3706C30.8526 13.4492 30.831 13.5262 30.802 13.6005C30.8878 13.4637 30.9463 13.3116 30.9742 13.1526V13.1526Z" fill="black"/>
<path opacity="0.1" d="M31.009 14.0527C31.0633 13.9125 31.0999 13.7661 31.118 13.6168C31.0089 13.6627 30.8908 13.6832 30.7726 13.6767C30.7382 13.7534 30.6962 13.8264 30.6473 13.8947C30.7708 13.9042 30.8949 13.8841 31.009 13.8358C30.9909 13.9851 30.9543 14.1315 30.9001 14.2717C30.9679 14.2733 31.0348 14.2553 31.0928 14.22C31.1507 14.1846 31.1973 14.1333 31.2269 14.0723C31.2541 14.0227 31.276 13.9705 31.2923 13.9165C31.2604 13.9611 31.2176 13.997 31.1681 14.0208C31.1186 14.0447 31.0639 14.0556 31.009 14.0527V14.0527Z" fill="black"/>
<path opacity="0.1" d="M31.9657 13.3117C31.8109 13.2965 31.6235 13.2431 31.5233 13.3618C31.4994 13.3947 31.4817 13.4316 31.471 13.4708C31.4612 13.4991 31.4525 13.5286 31.4448 13.558C31.5483 13.4763 31.7161 13.5198 31.8567 13.534C31.9854 13.5445 32.1146 13.5206 32.231 13.4647C32.3475 13.4088 32.4469 13.3229 32.5192 13.2158C32.5522 13.1629 32.5768 13.1052 32.5922 13.0448C32.5176 13.1371 32.4214 13.2098 32.3122 13.2563C32.2029 13.3029 32.084 13.3219 31.9657 13.3117Z" fill="black"/>
</g>
<path d="M34.5666 21.9011L36.2283 23.8994L36.0114 25.9163L34.0033 22.7728L34.5666 21.9011Z" fill="#DCE6F2"/>
<path opacity="0.1" d="M36.2272 23.8994L36.0234 25.7964L36.0103 25.9163L34.1983 23.0789L34.0033 22.7728L34.06 22.6845L34.5655 21.9011L34.6778 22.0362L36.2272 23.8994Z" fill="black"/>
<path d="M37.0901 19.1956C36.5279 19.3569 35.9907 19.9104 35.5233 20.5827C35.2073 21.0465 34.9248 21.5323 34.6777 22.0362C34.5241 22.3435 34.389 22.6387 34.2768 22.8959L34.1983 23.0789C34.0087 23.5268 33.903 23.8264 33.903 23.8264C33.903 23.8264 29.5991 20.5903 30.2801 20.3724C30.5089 20.2994 30.8096 19.809 31.1071 19.1912L31.1441 19.1128C31.3326 18.7162 31.5179 18.2738 31.6824 17.8576C32.0191 17.0022 32.2686 16.2591 32.2686 16.2591C32.2686 16.2591 38.8062 18.7053 37.0901 19.1956Z" fill="#EFB7B9"/>
<path d="M39.6649 16.0771C39.6649 16.0771 40.6586 17.875 41.9933 17.6298C43.3281 17.3847 42.7789 16.6644 42.7789 16.6644L39.6649 16.0771Z" fill="#444053"/>
<path d="M37.7396 78.3099C36.8592 78.7119 34.8685 78.3099 34.8685 78.3099L34.0295 78.2576C32.9399 78.1878 31.1159 78.0702 30.4708 78.0179C29.5294 77.9405 29.7604 77.5548 29.7604 77.5548V75.2241L34.328 74.067C34.328 74.067 36.1335 74.6848 36.6282 75.2241C37.0978 75.7384 37.3724 75.3429 38.2103 75.4911C38.2517 75.4987 38.2953 75.5074 38.341 75.5183C39.1364 75.7003 39.5679 75.7722 39.8229 76.4314C39.8741 76.5699 39.9153 76.7119 39.946 76.8563C40.1814 77.9176 38.6189 77.91 37.7396 78.3099Z" fill="#A36468"/>
<path opacity="0.1" d="M39.8229 76.4314C39.6592 76.5337 39.4872 76.6219 39.3086 76.6951C38.7093 76.9686 38.1395 77.302 37.5336 77.5603C36.9278 77.8185 36.2751 78.0027 35.6192 77.9536C35.276 77.9286 34.9251 77.8447 34.5971 77.9427C34.3943 78.021 34.2033 78.127 34.0295 78.2576C32.9399 78.1879 31.1159 78.0702 30.4708 78.0179C29.5294 77.9405 29.7604 77.5548 29.7604 77.5548V77.2824C29.7942 77.2824 29.8323 77.2726 29.8759 77.2693C30.1014 77.2657 30.3259 77.2992 30.5405 77.3685C31.0134 77.4971 31.4841 77.6235 31.957 77.7499C31.9959 77.6031 32.0643 77.4658 32.1579 77.3463C32.2516 77.2267 32.3686 77.1275 32.5018 77.0547C32.7717 76.9114 33.0747 76.8419 33.3801 76.8531C34.1134 76.8629 34.8074 77.2105 35.5397 77.2454C35.7444 77.2642 35.9505 77.2297 36.1378 77.1451C36.2381 77.095 36.3263 77.022 36.4244 76.9664C36.5814 76.8905 36.7472 76.8345 36.918 76.7997C37.3982 76.6802 37.8696 76.528 38.329 76.3443C38.4598 76.2931 38.6123 76.2004 38.5949 76.061C38.572 75.8757 38.2811 75.8539 38.2048 75.684C38.1914 75.6533 38.1852 75.62 38.1867 75.5865C38.1882 75.5531 38.1974 75.5204 38.2135 75.4911C38.2549 75.4987 38.2985 75.5074 38.3443 75.5183C39.1364 75.7003 39.5679 75.7722 39.8229 76.4314Z" fill="black"/>
<path d="M36.8091 83.4093C35.7739 83.8822 33.4313 83.4093 33.4313 83.4093L32.4452 83.3516C31.1682 83.2699 29.0173 83.1337 28.2578 83.0694C27.1497 82.9778 27.4221 82.5246 27.4221 82.5246V79.7777L32.7971 78.4157C32.7971 78.4157 34.9219 79.1424 35.5037 79.7777C36.0561 80.3824 36.3754 79.9171 37.3658 80.0915C37.4149 80.1002 37.4661 80.1111 37.5195 80.1231C38.4555 80.341 38.9632 80.4227 39.2628 81.1985C39.3235 81.3614 39.372 81.5286 39.4078 81.6986C39.678 82.9473 37.8442 82.9375 36.8091 83.4093Z" fill="#A36468"/>
<path opacity="0.1" d="M39.2607 81.1985C39.0681 81.3187 38.8659 81.4226 38.6559 81.509C37.951 81.8304 37.2798 82.2227 36.5672 82.5267C35.8546 82.8307 35.0864 83.0464 34.3139 82.9898C33.9107 82.9604 33.4977 82.859 33.1153 82.9767C32.8757 83.07 32.6501 83.1962 32.4452 83.3515C31.1682 83.2698 29.0173 83.1336 28.2578 83.0693C27.1497 82.9778 27.4221 82.5245 27.4221 82.5245V82.2042C27.4672 82.1968 27.5127 82.1917 27.5583 82.1889C27.8238 82.1841 28.0881 82.2235 28.3406 82.3055L30.0067 82.7544C30.0531 82.5813 30.1343 82.4194 30.2454 82.2787C30.3565 82.138 30.4951 82.0214 30.6528 81.9361C30.9704 81.7668 31.3272 81.6849 31.6868 81.6986C32.5498 81.7106 33.3659 82.1192 34.2278 82.1606C34.4678 82.1825 34.7094 82.1423 34.9295 82.044C35.0483 81.9841 35.1474 81.898 35.2673 81.8337C35.4515 81.7435 35.6468 81.6775 35.848 81.6376C36.4099 81.4958 36.9618 81.3167 37.4999 81.1015C37.6535 81.0405 37.8333 80.9315 37.8126 80.7681C37.7853 80.5501 37.4432 80.524 37.3528 80.3235C37.3375 80.2873 37.3306 80.2482 37.3325 80.2089C37.3344 80.1697 37.345 80.1314 37.3637 80.0969C37.4127 80.1056 37.4639 80.1165 37.5173 80.1285C38.4533 80.3377 38.961 80.4227 39.2607 81.1985Z" fill="black"/>
<path d="M34.4663 64.5602L34.1754 71.4062C34.1754 71.4062 33.7396 72.8041 33.976 73.204C34.2124 73.6039 34.6112 74.0027 34.4663 74.2392C34.3214 74.4756 32.578 77.0318 32.0147 76.0512C31.4514 75.0705 30.8957 70.8211 30.8957 70.8211L31.4154 65.5724L34.4663 64.5602Z" fill="#444053"/>
<path d="M35.7282 47.5035L36.5366 48.5844V57.9855C36.5366 57.9855 36.7731 60.4916 36.5366 61.0092C36.3002 61.5268 35.1016 62.5619 35.1016 62.5619L34.0938 57.3863L34.3117 51.911L35.7282 47.5035Z" fill="#444053"/>
<path opacity="0.1" d="M34.4663 64.5602L34.1754 71.4062C34.1754 71.4062 33.7396 72.8041 33.976 73.204C34.2124 73.6039 34.6112 74.0027 34.4663 74.2392C34.3214 74.4756 32.578 77.0318 32.0147 76.0512C31.4514 75.0705 30.8957 70.8211 30.8957 70.8211L31.4154 65.5724L34.4663 64.5602Z" fill="black"/>
<path opacity="0.1" d="M35.7282 47.5035L36.5366 48.5844V57.9855C36.5366 57.9855 36.7731 60.4916 36.5366 61.0092C36.3002 61.5268 35.1016 62.5619 35.1016 62.5619L34.0938 57.3863L34.3117 51.911L35.7282 47.5035Z" fill="black"/>
<path d="M36.5367 43.4937V48.5789L35.629 52.5375C35.629 52.5375 35.3381 62.09 35.592 63.2516C35.8459 64.4131 34.7203 65.5038 34.7203 65.5038C34.7203 65.5038 34.0665 65.5768 34.0665 66.0845C34.0665 66.5923 32.9769 68.0458 32.9769 68.0458L33.0129 70.8788C33.0129 70.8788 33.4858 76.1819 32.759 77.1985C32.0322 78.2151 33.0129 78.3611 33.0129 78.3611C32.1052 81.339 27.7468 80.6493 27.3535 80.3224C26.9601 79.9955 27.3535 73.5668 27.3535 73.5668C27.3535 73.5668 28.3276 63.7604 29.0903 63.3246C29.853 62.8887 29.1274 62.3439 29.3812 61.6902C29.6351 61.0364 29.1274 59.2571 29.1274 59.2571C29.1274 59.2571 28.9094 57.1498 28.3646 56.1332C27.8198 55.1166 27.8917 52.3195 27.8917 52.3195C27.8917 52.3195 26.3663 50.2853 25.913 49.4866C25.4597 48.6879 25.1677 46.6176 25.2767 45.0551C25.3508 43.9993 25.9054 42.4619 26.2573 41.5771C26.4262 41.1533 26.5483 40.8787 26.5483 40.8787L26.6518 40.9059L32.6032 42.4641L36.5367 43.4937Z" fill="#444053"/>
<path opacity="0.1" d="M37.0901 19.1955C36.5279 19.3568 35.9907 19.9103 35.5233 20.5826H35.4012C34.7161 20.5831 34.0429 20.4027 33.4498 20.0597C32.8567 19.7166 32.3647 19.2231 32.0235 18.629C31.8809 18.3828 31.7661 18.1215 31.6813 17.8499C32.018 16.9945 32.2675 16.2514 32.2675 16.2514C32.2675 16.2514 38.8063 18.7052 37.0901 19.1955Z" fill="black"/>
<path d="M39.2966 16.4716C39.2976 17.0677 39.1617 17.6562 38.8994 18.1916C38.6371 18.727 38.2554 19.195 37.7837 19.5597C37.3121 19.9243 36.763 20.1758 36.1788 20.2948C35.5946 20.4138 34.9909 20.3971 34.4141 20.2461C33.8374 20.095 33.3031 19.8135 32.8522 19.4234C32.4014 19.0333 32.0462 18.5449 31.8138 17.9958C31.5815 17.4467 31.4783 16.8517 31.5122 16.2564C31.5461 15.6612 31.7162 15.0817 32.0093 14.5626C32.1274 14.3516 32.2653 14.1524 32.4212 13.9676C32.6781 13.6615 32.9801 13.3963 33.3168 13.181C33.8856 12.8195 34.5383 12.6119 35.2113 12.5782C35.8843 12.5445 36.5545 12.6859 37.1565 12.9887C37.7585 13.2915 38.2716 13.7453 38.6458 14.3057C39.0199 14.8661 39.2423 15.514 39.2912 16.1861C39.2933 16.282 39.2966 16.3768 39.2966 16.4716Z" fill="#EFB7B9"/>
<path opacity="0.1" d="M36.0234 25.7964L36.0103 25.9163L34.1983 23.0833C34.0087 23.5311 33.903 23.8307 33.903 23.8307C33.903 23.8307 29.5991 20.5903 30.2801 20.3723C30.5089 20.2993 30.8096 19.809 31.1071 19.1912L31.1441 19.1127C31.4601 20.0542 33.2961 21.9359 34.0599 22.6899C34.1482 22.7771 34.2212 22.849 34.2778 22.9013L34.3944 23.0103L34.4554 23.0713C34.7333 23.3579 35.9057 24.6218 36.0234 25.7964Z" fill="black"/>
<path d="M37.3778 35.4089L37.1795 41.7907L37.1447 42.9272C37.1447 42.9272 34.7955 42.7093 32.6032 42.4696C30.838 42.2767 29.1742 42.0686 28.9182 41.9466C28.5913 41.7929 27.8907 41.6742 27.3382 41.599C26.9111 41.5412 26.5755 41.5107 26.5755 41.5107C26.5755 41.5107 26.4502 41.5478 26.2573 41.5826C25.8368 41.6589 25.098 41.721 24.6676 41.3473C24.1174 40.8689 25.5633 39.131 25.9239 38.7137L26.0035 38.6233L25.8673 37.3648L25.5131 34.1014C25.5131 34.1014 25.2952 32.2218 24.9683 31.2139C24.881 30.9274 24.8179 30.634 24.7798 30.3368C24.6584 29.4163 24.7206 28.4808 24.9629 27.5845C25.0664 27.2036 25.1321 26.8134 25.159 26.4197C25.2135 25.4118 28.2916 21.5164 29.0544 21.1623C29.3975 21.0023 29.6736 20.727 29.8345 20.3843C29.8877 20.2766 29.9275 20.1628 29.9533 20.0455C30.2802 18.629 31.1072 19.1912 31.1072 19.1912C31.3066 20.2994 34.3934 23.2326 34.3934 23.2326L34.4544 23.2936C34.7606 23.6074 36.1248 25.0805 36.0278 26.338C36.0084 26.8059 36.0783 27.2734 36.2338 27.7152C36.8616 29.6923 37.2226 31.7444 37.307 33.817L37.3778 35.4089Z" fill="#DCE6F2"/>
<path opacity="0.1" d="M33.0042 27.8307C33.0042 27.8307 32.2414 29.683 31.6694 29.9826C31.0973 30.2823 33.2766 30.6146 33.0042 27.8307Z" fill="black"/>
<path opacity="0.1" d="M33.5761 31.2902C33.5761 31.2902 31.8328 31.5081 31.8328 31.835C31.8328 32.1619 33.5761 31.2902 33.5761 31.2902Z" fill="black"/>
<path opacity="0.1" d="M35.4013 33.4149C35.4013 33.4149 32.868 38.8084 32.1597 38.9719C31.4515 39.1353 35.4013 33.4149 35.4013 33.4149Z" fill="black"/>
<path opacity="0.1" d="M34.3454 23.5061L32.2501 24.417L29.7211 20.5968C29.7743 20.4891 29.8141 20.3753 29.8399 20.2579C30.1668 18.8415 30.9938 19.4037 30.9938 19.4037C31.1932 20.5118 34.28 23.445 34.28 23.445L34.3454 23.5061Z" fill="black"/>
<path d="M34.4544 23.2881L32.3591 24.199L29.8301 20.3789C29.8832 20.2711 29.9231 20.1574 29.9488 20.04C30.2757 18.6235 31.1027 19.1858 31.1027 19.1858C31.3021 20.2939 34.389 23.2271 34.389 23.2271L34.4544 23.2881Z" fill="#DCE6F2"/>
<path opacity="0.1" d="M37.1446 42.9272C37.1446 42.9272 34.7954 42.7093 32.6032 42.4696L36.5366 43.4992V44.6978C36.3645 44.8536 36.2152 44.9343 36.1182 44.8928C35.6649 44.7022 31.9657 44.1029 31.9657 44.1029C31.9657 44.1029 29.817 43.0133 27.4984 41.7058C27.4421 41.6746 27.3875 41.6404 27.3349 41.6033C27.0646 41.4198 26.8316 41.1864 26.6485 40.9158C26.2203 40.2958 26.0111 39.4993 25.9206 38.7181C25.8698 38.2703 25.8508 37.8195 25.864 37.3691C25.8752 36.8584 25.9218 36.3491 26.0034 35.8448C25.7792 33.8916 25.67 31.9269 25.6765 29.9609C25.7038 26.91 28.564 25.8204 28.564 25.8204C33.8213 25.3573 32.1913 33.8562 32.1913 33.8562C32.1913 33.8562 31.8873 36.2534 31.8045 36.4985C31.7217 36.7437 31.4242 37.1523 31.4645 37.7243C31.5048 38.2964 32.5095 38.9806 32.5095 38.9806C32.5095 38.9806 33.4901 39.4405 33.8943 40.1215C34.1885 40.6238 36.0997 41.3048 37.1795 41.7907L37.1446 42.9272Z" fill="black"/>
<path opacity="0.1" d="M38.9055 14.0526C38.9075 14.2321 38.8703 14.4099 38.7965 14.5735C38.7406 14.707 38.6758 14.8366 38.6025 14.9614C38.4879 15.1909 38.3251 15.3931 38.1253 15.5541C37.8736 15.7339 37.5554 15.784 37.2536 15.857C36.9518 15.93 36.638 16.0466 36.4658 16.3038C36.3725 16.4691 36.3101 16.65 36.2817 16.8377C36.2528 17.0252 36.1779 17.2026 36.0638 17.3542C36.0043 17.4281 35.922 17.4803 35.8297 17.5023C35.7374 17.5244 35.6403 17.5152 35.5538 17.4762C35.4627 17.4148 35.3936 17.3258 35.3566 17.2223C35.2324 16.9423 35.2008 16.6317 35.1507 16.3299C35.1005 16.0281 35.0297 15.7176 34.8445 15.4746C34.6593 15.2316 34.3313 15.0714 34.0404 15.1662C33.943 15.2037 33.8542 15.2605 33.7793 15.3331C33.7044 15.4058 33.645 15.4928 33.6045 15.589C33.524 15.7816 33.4687 15.9837 33.44 16.1905C33.3049 16.9299 33.1454 17.6651 32.9617 18.3958C32.956 18.4258 32.9438 18.4541 32.9257 18.4786C32.8967 18.5075 32.8576 18.5239 32.8167 18.5244C32.5727 18.5571 32.3384 18.386 32.0921 18.4045C32.0668 18.4062 32.0416 18.4102 32.017 18.4165C31.6188 17.7246 31.443 16.927 31.5134 16.1318C31.5837 15.3366 31.8969 14.5822 32.4103 13.9709L32.4299 13.9655C32.5937 13.9073 32.7426 13.8135 32.8658 13.6909C33.0231 13.5335 33.1687 13.3649 33.3016 13.1864L33.3888 13.0774C33.6392 12.7757 33.9245 12.5047 34.2387 12.2701C34.3244 12.1998 34.4228 12.1465 34.5285 12.1131C34.619 12.0955 34.7117 12.0926 34.8031 12.1044C35.1794 12.1496 35.5587 12.1638 35.9374 12.1469C36.2012 12.1055 36.4671 12.0785 36.7339 12.0663C37.4236 12.0859 38.012 12.573 38.4478 13.1069C38.6821 13.3804 38.8913 13.6953 38.9055 14.0526Z" fill="black"/>
<path d="M31.5005 14.6661C31.349 14.9145 31.0756 15.0834 30.9731 15.3558C30.8228 15.7513 31.0766 16.2438 30.8435 16.5969C30.7661 16.7156 30.6386 16.8039 30.595 16.9401C30.5209 17.17 30.7236 17.4151 30.6713 17.6516C30.619 17.888 30.3074 18.0874 30.3902 18.3184C30.4391 18.4192 30.525 18.4972 30.6299 18.5364C30.795 18.6311 30.985 18.6732 31.1747 18.6573C31.4722 18.6083 31.6934 18.3163 31.9952 18.2945C32.2403 18.277 32.4746 18.447 32.7187 18.4154C32.7596 18.414 32.7985 18.3973 32.8276 18.3686C32.8462 18.3443 32.8585 18.3159 32.8636 18.2857C33.0467 17.5557 33.2065 16.8206 33.343 16.0804C33.3709 15.8736 33.4258 15.6714 33.5065 15.4789C33.5472 15.3829 33.6068 15.2961 33.6816 15.2235C33.7565 15.1509 33.8451 15.094 33.9423 15.0562C34.2332 14.9624 34.5601 15.1215 34.7464 15.3645C34.9328 15.6075 35.0036 15.918 35.0537 16.2199C35.1038 16.5217 35.1354 16.8322 35.2586 17.1122C35.296 17.2161 35.3654 17.3054 35.4569 17.3672C35.6203 17.462 35.8404 17.3868 35.9657 17.2452C36.0805 17.0936 36.1554 16.9156 36.1836 16.7276C36.2121 16.5403 36.2745 16.3597 36.3678 16.1948C36.5399 15.9376 36.8548 15.8211 37.1556 15.7481C37.4563 15.675 37.7734 15.6238 38.0272 15.4441C38.2268 15.2832 38.3895 15.0814 38.5045 14.8524C38.6657 14.5713 38.8161 14.2662 38.803 13.9426C38.7889 13.5895 38.5797 13.2746 38.3563 13.0001C37.9205 12.4662 37.331 11.9791 36.6413 11.9606C36.3744 11.9717 36.1084 11.9987 35.8448 12.0412C35.4661 12.0582 35.0867 12.0437 34.7105 11.9976C34.619 11.9867 34.5264 11.99 34.4359 12.0074C34.3301 12.0398 34.2319 12.0931 34.1472 12.1643C33.8327 12.3986 33.547 12.6693 33.2962 12.9706C33.1344 13.1851 32.959 13.3889 32.771 13.5808C32.6478 13.7037 32.4989 13.7978 32.3351 13.8565C32.2262 13.887 32.1172 13.8652 32.0137 13.899C31.6923 14.0003 31.6498 14.4198 31.5005 14.6661Z" fill="#965D7B"/>
<path opacity="0.1" d="M41.9933 17.6287C41.1217 17.7889 40.3992 17.0839 39.9994 16.5696C39.8765 16.4134 39.7648 16.2489 39.6649 16.0771L42.6569 16.6416L42.7778 16.6644C42.7778 16.6644 43.3281 17.3847 41.9933 17.6287Z" fill="black"/>
<g opacity="0.1">
<path opacity="0.1" d="M30.6712 17.34C30.6834 17.1975 30.6618 17.0541 30.608 16.9216C30.608 16.9325 30.5982 16.9434 30.5949 16.9543C30.5481 17.1003 30.6113 17.2517 30.6516 17.4032C30.6603 17.3828 30.6668 17.3617 30.6712 17.34V17.34Z" fill="black"/>
<path opacity="0.1" d="M30.9305 15.5563C30.9193 15.707 30.9222 15.8584 30.9392 16.0085C30.9504 15.8578 30.9475 15.7065 30.9305 15.5563Z" fill="black"/>
<path opacity="0.1" d="M38.4979 14.5375C38.3832 14.7671 38.2204 14.9693 38.0207 15.1303C37.769 15.3101 37.4519 15.3602 37.149 15.4332C36.8461 15.5062 36.5333 15.6228 36.3612 15.8799C36.268 16.0453 36.2056 16.2262 36.177 16.4138C36.1487 16.6018 36.0737 16.7797 35.9591 16.9314C35.8338 17.073 35.6137 17.1493 35.4503 17.0534C35.3588 16.9916 35.2894 16.9023 35.252 16.7985C35.1288 16.5184 35.0961 16.209 35.0471 15.9061C34.9981 15.6032 34.9251 15.2937 34.7398 15.0507C34.5546 14.8078 34.2266 14.6476 33.9357 14.7424C33.8384 14.78 33.7497 14.8369 33.6748 14.9095C33.6 14.9821 33.5405 15.0691 33.4999 15.1651C33.4192 15.3576 33.3643 15.5598 33.3364 15.7666C33.2006 16.5068 33.0408 17.2419 32.857 17.972C32.8519 18.0021 32.8396 18.0305 32.821 18.0548C32.7919 18.0835 32.753 18.1002 32.7121 18.1016C32.468 18.1332 32.2337 17.9633 31.9886 17.9807C31.6868 18.0025 31.4656 18.2945 31.1681 18.3424C30.9784 18.3595 30.788 18.3172 30.6233 18.2215C30.5476 18.1889 30.4796 18.1406 30.4239 18.0798C30.3984 18.1164 30.3815 18.1582 30.3746 18.2021C30.3676 18.2461 30.3707 18.2911 30.3836 18.3337C30.4316 18.4352 30.5178 18.5135 30.6233 18.5516C30.788 18.6473 30.9784 18.6896 31.1681 18.6726C31.4656 18.6246 31.6868 18.3326 31.9886 18.3108C32.2337 18.2934 32.468 18.4634 32.7121 18.4318C32.753 18.4304 32.7919 18.4136 32.821 18.3849C32.8396 18.3607 32.8519 18.3322 32.857 18.3021C33.0401 17.5757 33.1999 16.8406 33.3364 16.0968C33.3643 15.89 33.4192 15.6877 33.4999 15.4953C33.5405 15.3992 33.6 15.3123 33.6748 15.2396C33.7497 15.167 33.8384 15.1102 33.9357 15.0725C34.2266 14.9777 34.5535 15.1379 34.7398 15.3809C34.9262 15.6239 34.997 15.9344 35.0471 16.2362C35.0972 16.5381 35.1288 16.8486 35.252 17.1286C35.2894 17.2325 35.3588 17.3218 35.4503 17.3836C35.6137 17.4784 35.8338 17.4032 35.9591 17.2616C36.0737 17.1099 36.1487 16.932 36.177 16.744C36.2056 16.5564 36.268 16.3755 36.3612 16.2101C36.5333 15.9529 36.8482 15.8374 37.149 15.7633C37.4497 15.6892 37.7668 15.6402 38.0207 15.4604C38.2204 15.2994 38.3832 15.0972 38.4979 14.8677C38.6592 14.5877 38.8095 14.2826 38.7965 13.959C38.7943 13.9173 38.7899 13.8759 38.7834 13.8347C38.7308 14.0841 38.6341 14.3221 38.4979 14.5375V14.5375Z" fill="black"/>
</g>
<path opacity="0.1" d="M38.8008 14.5702C39.0802 15.067 39.2459 15.6197 39.2857 16.1883C38.3149 15.6435 37.4018 15.0453 36.9409 14.8372C36.1378 14.4743 33.1349 14.5288 32.006 14.5626C32.1241 14.3516 32.262 14.1524 32.4179 13.9677C32.6759 13.6613 32.979 13.396 33.3168 13.181C33.7643 12.897 34.2649 12.7073 34.7882 12.6234C35.3114 12.5394 35.8463 12.5631 36.3601 12.693C36.8739 12.8228 37.3558 13.056 37.7764 13.3784C38.197 13.7008 38.5474 14.1056 38.8063 14.568L38.8008 14.5702Z" fill="black"/>
<path opacity="0.1" d="M42.2657 17.1667C41.7416 17.328 40.8863 17.0164 39.9994 16.5696C39.8765 16.4134 39.7648 16.2489 39.6649 16.0771L42.6569 16.6416C42.8552 16.7767 42.9053 16.9695 42.2657 17.1667Z" fill="black"/>
<path d="M35.6333 10.7925C35.6333 10.7925 32.7731 10.6291 31.969 12.1818L31.8393 13.558L31.6214 13.534L31.5778 14.47C31.5778 14.47 35.9493 14.2793 36.9441 14.7282C37.9389 15.1771 41.0301 17.4391 42.269 17.0578C43.5079 16.6764 42.16 16.3223 42.16 16.3223C42.16 16.3223 40.4548 15.5999 40.4548 15.0333C40.4548 14.4667 40.0321 11.4735 35.6333 10.7925Z" fill="#444053"/>
<path opacity="0.1" d="M30.1166 61.8079C30.1166 61.8079 31.9417 63.5784 32.7317 63.4422C32.7317 63.4422 30.498 63.2516 30.1166 61.8079Z" fill="black"/>
<path opacity="0.1" d="M29.7353 62.6283C29.7353 62.6283 29.8987 63.5392 30.3346 63.4499C30.7704 63.3605 29.7353 62.6283 29.7353 62.6283Z" fill="black"/>
<path opacity="0.1" d="M32.5956 77.8523C32.5956 77.8523 30.0045 79.8681 30.4414 79.9225C30.8784 79.977 32.5956 77.8523 32.5956 77.8523Z" fill="black"/>
<path d="M36.0616 37.8453L44.4515 36.48V44.4232L36.48 44.0059L36.0616 37.8453Z" fill="#6C63FF"/>
<path opacity="0.05" d="M36.0616 37.8453L44.4515 36.48V44.4232L36.48 44.0059L36.0616 37.8453Z" fill="black"/>
<path d="M44.4515 36.48L54.513 37.2329L53.9562 44.1454L44.4515 44.4232V36.48Z" fill="#6C63FF"/>
<path opacity="0.1" d="M44.4515 36.48L54.513 37.2329L53.9562 44.1454L44.4515 44.4232V36.48Z" fill="black"/>
<path d="M47.5449 34.0556L44.4515 36.48L54.513 37.2329L56.1572 34.7519L47.5449 34.0556Z" fill="#6C63FF"/>
<path d="M33.0238 35.1975L40.5769 34.2779L44.4516 36.48L36.0616 37.8453L33.0238 35.1975Z" fill="#6C63FF"/>
<path d="M46.2908 38.5426V49.4027L42.3606 48.9996L40.651 48.8253L40.1302 48.7708L38.4217 48.5953L36.0616 48.3535V37.8453L44.4505 38.4162L46.2908 38.5426Z" fill="#6C63FF"/>
<path d="M54.513 37.2329V47.8239L51.3629 48.4286L49.831 48.7228L46.2908 49.4027V38.5426L54.513 37.2329Z" fill="#6C63FF"/>
<path opacity="0.05" d="M54.513 37.2329V47.8239L51.3629 48.4286L49.831 48.7228L46.2908 49.4027V38.5426L54.513 37.2329Z" fill="black"/>
<path d="M33.0238 40.1313L36.0616 37.8453L46.2908 38.5426L44.785 41.0792L33.0238 40.1313Z" fill="#6C63FF"/>
<path opacity="0.1" d="M33.0238 40.1313L36.0616 37.8453L46.2908 38.5426L44.785 41.0792L33.0238 40.1313Z" fill="white"/>
<path d="M54.513 37.2329L46.2908 38.5426L48.9669 40.9398L57.7742 39.4623L54.513 37.2329Z" fill="#6C63FF"/>
<path opacity="0.1" d="M54.513 37.2329L46.2908 38.5426L48.9669 40.9398L57.7742 39.4623L54.513 37.2329Z" fill="white"/>
<path opacity="0.1" d="M51.3629 48.4286L49.8309 48.7228V46.4597L51.2659 46.0979L51.3629 48.4286Z" fill="white"/>
<path opacity="0.1" d="M42.3606 47.5025V48.9996L40.651 48.8252V47.5025H42.3606Z" fill="white"/>
<path opacity="0.1" d="M40.1301 47.9742V48.7707L38.4216 48.5953V47.9742H40.1301Z" fill="white"/>
<path opacity="0.1" d="M45.2623 46.7081C44.0909 48.2063 40.2228 47.1712 40.2228 47.1712L37.3485 44.1726L36.9584 43.7662L37.7211 42.3497C37.7211 42.3497 37.939 42.4216 38.3029 42.548C40.2294 43.2213 46.2484 45.4474 45.2623 46.7081Z" fill="black"/>
<path d="M45.1533 46.4902C43.982 47.9884 40.1139 46.9532 40.1139 46.9532L37.2395 43.9547L36.8494 43.5482L37.6122 42.1317C37.6122 42.1317 37.8301 42.2037 38.194 42.33C40.1204 43.0034 46.1394 45.2295 45.1533 46.4902Z" fill="#EFB7B9"/>
<path opacity="0.1" d="M38.1895 42.3301C38.0305 42.7877 37.6262 43.4654 37.235 43.9547L36.845 43.5482L37.6077 42.1317C37.6077 42.1317 37.8267 42.2037 38.1895 42.3301Z" fill="black"/>
<path d="M28.6729 25.3845C28.6729 25.3845 25.8127 26.4741 25.7855 29.525C25.779 31.491 25.8881 33.4557 26.1124 35.4089C26.1124 35.4089 25.2952 39.958 27.6106 41.2655C29.926 42.5731 32.078 43.6627 32.078 43.6627C32.078 43.6627 35.7772 44.262 36.2315 44.4526C36.6859 44.6433 38.2647 42.1917 38.0196 41.7831C37.7744 41.3745 34.4064 40.3666 34.0066 39.6856C33.6067 39.0046 32.6217 38.5459 32.6217 38.5459C32.6217 38.5459 31.6171 37.8605 31.5767 37.2885C31.5364 36.7164 31.8328 36.3078 31.9167 36.0627C32.0006 35.8175 32.3046 33.4204 32.3046 33.4204C32.3046 33.4204 33.9303 24.916 28.6729 25.3845Z" fill="#DCE6F2"/>
<path opacity="0.1" d="M29.9805 35.4851C29.9805 35.4851 26.1124 35.921 26.4121 37.283C26.4121 37.283 27.8819 35.909 29.9805 35.4851Z" fill="black"/>
<path opacity="0.1" d="M29.9805 36.0299C29.9805 36.0299 27.7849 37.6371 28.1881 37.7461C28.5912 37.855 29.9805 36.0299 29.9805 36.0299Z" fill="black"/>
<path opacity="0.1" d="M30.9611 36.6837C30.9611 36.6837 30.3346 37.8104 30.6887 37.7515C31.0428 37.6927 30.9611 36.6837 30.9611 36.6837Z" fill="black"/>
<path d="M71.2352 12.2461C71.2352 12.2461 67.0947 11.9966 67.5784 14.9014C67.5784 14.9014 67.4815 15.4147 67.9467 15.6478C67.9467 15.6478 67.9544 15.4299 68.3717 15.5051C68.5203 15.5301 68.6713 15.5374 68.8217 15.5269C69.0254 15.5133 69.2191 15.4333 69.373 15.2992V15.2992C69.373 15.2992 70.5378 14.8186 70.9911 12.914C70.9911 12.914 71.3267 12.4978 71.318 12.391L70.6184 12.6906C70.6184 12.6906 70.8571 13.1951 70.6686 13.6146C70.6686 13.6146 70.6468 12.7092 70.5117 12.7299C70.4844 12.7299 70.1488 12.9053 70.1488 12.9053C70.1488 12.9053 70.5596 13.7835 70.2491 14.4231C70.2491 14.4231 70.3667 13.34 70.0202 12.9685L69.5277 13.2561C69.5277 13.2561 70.0083 14.1638 69.6825 14.9047C69.6825 14.9047 69.7664 13.7683 69.4242 13.3259L68.9775 13.6735C68.9775 13.6735 69.4297 14.5691 69.154 15.1837C69.154 15.1837 69.1181 13.8609 68.8805 13.7606C68.8805 13.7606 68.4904 14.1049 68.4316 14.2466C68.4316 14.2466 68.74 14.9004 68.5482 15.2392C68.5482 15.2392 68.4305 14.3577 68.3303 14.3534C68.3303 14.3534 67.9413 14.9374 67.901 15.334C67.9198 14.9643 68.0351 14.6059 68.2355 14.2945C68.0113 14.337 67.8044 14.4442 67.6405 14.6029C67.6405 14.6029 67.7005 14.1899 68.3314 14.154C68.3314 14.154 68.6582 13.7105 68.7389 13.6833C68.7389 13.6833 68.1113 13.631 67.731 13.7999C67.731 13.7999 68.0655 13.4109 68.8544 13.5819L69.2902 13.2224C69.2902 13.2224 68.4643 13.1134 68.1134 13.2344C68.1134 13.2344 68.5166 12.89 69.409 13.1406L69.8884 12.8541C69.8884 12.8541 69.1845 12.7015 68.765 12.7571C68.765 12.7571 69.2074 12.5185 70.029 12.7767L70.3722 12.6231C70.3722 12.6231 69.8557 12.5217 69.7054 12.5054C69.555 12.4891 69.5463 12.4477 69.5463 12.4477C69.873 12.3933 70.2084 12.431 70.5149 12.5566C70.5149 12.5566 71.2504 12.2918 71.2352 12.2461Z" fill="#6C63FF"/>
<path opacity="0.1" d="M83.8157 26.7749C83.8157 26.7749 79.6752 26.5253 80.159 29.4302C80.159 29.4302 80.062 29.9434 80.5273 30.1766C80.5273 30.1766 80.5349 29.9587 80.9533 30.0339C81.1019 30.0589 81.253 30.0662 81.4033 30.0557C81.6047 30.0411 81.7958 29.9615 81.9481 29.829V29.829C81.9481 29.829 83.114 29.3474 83.5673 27.4428C83.5673 27.4428 83.9018 27.0277 83.8887 26.9209L83.1892 27.2194C83.1892 27.2194 83.4278 27.7239 83.2404 28.1434C83.2404 28.1434 83.2175 27.238 83.0835 27.2587C83.0562 27.2587 82.7196 27.4341 82.7196 27.4341C82.7196 27.4341 83.1314 28.3134 82.8209 28.9519C82.8209 28.9519 82.9386 27.8688 82.591 27.4973L82.1039 27.7817C82.1039 27.7817 82.5844 28.6893 82.2587 29.4302C82.2587 29.4302 82.3426 28.2938 82.0004 27.8514L81.5548 28.2001C81.5548 28.2001 82.0059 29.0946 81.7313 29.7092C81.7313 29.7092 81.6953 28.3864 81.4578 28.2861C81.4578 28.2861 81.0677 28.6305 81.0078 28.7721C81.0078 28.7721 81.3172 29.4259 81.1255 29.7647C81.1255 29.7647 81.0078 28.8833 80.9076 28.8789C80.9076 28.8789 80.5186 29.4629 80.4783 29.8595C80.4977 29.4897 80.6134 29.1314 80.8138 28.8201C80.5894 28.8626 80.3822 28.9697 80.2178 29.1284C80.2178 29.1284 80.2789 28.7155 80.9097 28.6795C80.9097 28.6795 81.2312 28.236 81.3172 28.2088C81.3172 28.2088 80.6896 28.1565 80.3094 28.3254C80.3094 28.3254 80.6439 27.9364 81.4317 28.1129L81.8675 27.7533C81.8675 27.7533 81.0405 27.6444 80.6907 27.7653C80.6907 27.7653 81.0939 27.421 81.9863 27.6716L82.4657 27.385C82.4657 27.385 81.7607 27.2336 81.3412 27.2881C81.3412 27.2881 81.7847 27.0494 82.6062 27.3077L82.9495 27.154C82.9495 27.154 82.433 27.0527 82.2815 27.0364C82.1301 27.02 82.1225 26.9786 82.1225 26.9786C82.4496 26.9242 82.7853 26.9619 83.0922 27.0876C83.0922 27.0876 83.8288 26.8206 83.8157 26.7749Z" fill="#6C63FF"/>
<path opacity="0.1" d="M58.6622 24.1958C58.6622 24.1958 59.6156 20.1544 56.6693 20.1403C56.6693 20.1403 56.18 19.9572 55.8717 20.3756C55.8717 20.3756 56.082 20.4203 55.9392 20.8191C55.8899 20.9601 55.857 21.1064 55.8412 21.2549C55.8201 21.4575 55.8656 21.6614 55.9708 21.8357V21.8357C55.9708 21.8357 56.2465 23.067 58.0411 23.8384C58.0411 23.8384 58.3941 24.2394 58.5009 24.2437L58.3266 23.5039C58.3266 23.5039 57.7883 23.6532 57.4069 23.3949C57.4069 23.3949 58.3037 23.5268 58.3048 23.3949C58.3048 23.3677 58.1958 23.007 58.1958 23.007C58.1958 23.007 57.2598 23.262 56.6823 22.8469C56.6823 22.8469 57.7295 23.1476 58.1555 22.8697L57.9594 22.3337C57.9594 22.3337 56.9787 22.6529 56.3075 22.2051C56.3075 22.2051 57.4135 22.4818 57.9082 22.2203L57.6412 21.7213C57.6412 21.7213 56.6823 22.0133 56.1234 21.6374C56.1234 21.6374 57.4309 21.827 57.5726 21.6112C57.5726 21.6112 57.3002 21.1678 57.1705 21.085C57.1705 21.085 56.4775 21.2789 56.1724 21.0316C56.1724 21.0316 57.0604 21.0654 57.0811 20.9716C57.0811 20.9716 56.5723 20.489 56.1844 20.38C56.5459 20.4623 56.8797 20.6373 57.1531 20.8877C57.1491 20.6594 57.0786 20.4371 56.9504 20.2481C56.9504 20.2481 57.347 20.3789 57.2773 21.0109C57.2773 21.0109 57.6586 21.4031 57.6706 21.4925C57.6706 21.4925 57.8286 20.8834 57.7273 20.4791C57.7273 20.4791 58.0542 20.8758 57.7458 21.6221L58.0248 22.1179C58.0248 22.1179 58.2775 21.3225 58.2133 20.9564C58.2133 20.9564 58.4846 21.4118 58.0847 22.2487L58.2863 22.7706C58.2863 22.7706 58.5554 22.1016 58.5728 21.681C58.5728 21.681 58.733 22.1582 58.3375 22.9242L58.4312 23.2881C58.4312 23.2881 58.6186 22.7967 58.66 22.6507C58.7014 22.5047 58.7439 22.5036 58.7439 22.5036C58.7422 22.8351 58.6483 23.1596 58.4726 23.4407C58.4726 23.4407 58.6153 24.2012 58.6622 24.1958Z" fill="#6C63FF"/>
<path opacity="0.1" d="M49.5945 25.573C49.5945 25.573 46.2691 23.0855 45.0803 25.78C45.0803 25.78 44.7175 26.1559 44.9779 26.6059C44.9779 26.6059 45.1021 26.4305 45.4137 26.7214C45.5241 26.8241 45.6463 26.9134 45.7776 26.9873C45.9556 27.0864 46.1611 27.1247 46.3628 27.0963V27.0963C46.3628 27.0963 47.6006 27.3349 49.0258 25.9936C49.0258 25.9936 49.5346 25.8302 49.5826 25.7343L48.8318 25.6024C48.8318 25.6024 48.7534 26.1549 48.3665 26.4022C48.3665 26.4022 48.8449 25.6329 48.7207 25.5774C48.6956 25.5654 48.3208 25.5229 48.3208 25.5229C48.3208 25.5229 48.1813 26.4839 47.5711 26.8467C47.5711 26.8467 48.2652 26.0067 48.1791 25.5054L47.6093 25.4749C47.6093 25.4749 47.5123 26.4981 46.8324 26.9383C46.8324 26.9383 47.5265 26.035 47.4861 25.4771L46.9217 25.5229C46.9217 25.5229 46.8073 26.5177 46.2396 26.8794C46.2396 26.8794 46.9359 25.755 46.7932 25.5414C46.7932 25.5414 46.2778 25.6144 46.1503 25.6994C46.1503 25.6994 46.0511 26.412 45.7025 26.5929C45.7025 26.5929 46.0893 25.792 46.0108 25.7364C46.0108 25.7364 45.3647 26.0099 45.1108 26.3216C45.3304 26.0232 45.6241 25.7873 45.9629 25.6373C45.7521 25.5497 45.5204 25.5255 45.296 25.5676C45.296 25.5676 45.5728 25.2559 46.1198 25.573C46.1198 25.573 46.6319 25.3801 46.7191 25.4041C46.7191 25.4041 46.2233 25.0151 45.8125 24.9476C45.8125 24.9476 46.3072 24.8059 46.8683 25.3834L47.4338 25.3257C47.4338 25.3257 46.8051 24.7809 46.4445 24.6893C46.4445 24.6893 46.9708 24.6229 47.5777 25.3224L48.1356 25.3475C48.1356 25.3475 47.6311 24.8332 47.2508 24.6479C47.2508 24.6479 47.7509 24.6915 48.2957 25.3594L48.6673 25.4194C48.6673 25.4194 48.2914 25.0511 48.1737 24.9552C48.056 24.8593 48.0724 24.819 48.0724 24.819C48.3755 24.9532 48.6354 25.169 48.8231 25.4423C48.8231 25.4423 49.5804 25.6177 49.5945 25.573Z" fill="#6C63FF"/>
<path opacity="0.1" d="M60.6659 2.46141C60.6659 2.46141 57.3405 -0.0272454 56.1517 2.66844C56.1517 2.66844 55.7889 3.04435 56.0493 3.49436C56.0493 3.49436 56.1735 3.31893 56.4851 3.60986C56.5961 3.71201 56.7186 3.80087 56.8501 3.87463C57.0281 3.9738 57.2336 4.01206 57.4353 3.98359V3.98359C57.4353 3.98359 58.673 4.22221 60.0983 2.87982C60.0983 2.87982 60.6071 2.71747 60.654 2.62049L59.9032 2.49083C59.9032 2.49083 59.8259 3.04326 59.438 3.2906C59.438 3.2906 59.9174 2.52134 59.7932 2.46577C59.7681 2.45379 59.3933 2.41129 59.3933 2.41129C59.3933 2.41129 59.2495 3.3745 58.6393 3.73516C58.6393 3.73516 59.3323 2.89507 59.2473 2.39386L58.6774 2.36335C58.6774 2.36335 58.5793 3.38649 57.9005 3.8256C57.9005 3.8256 58.5946 2.92232 58.5543 2.36444L57.991 2.4102C57.991 2.4102 57.8755 3.4061 57.3078 3.76785C57.3078 3.76785 58.0051 2.64338 57.8624 2.42981C57.8624 2.42981 57.347 2.50282 57.2195 2.58781C57.2195 2.58781 57.1204 3.30041 56.7717 3.48128C56.7717 3.48128 57.1585 2.68042 57.08 2.62376C57.08 2.62376 56.4339 2.89834 56.18 3.20997C56.3993 2.91128 56.6931 2.67534 57.0321 2.5257C56.8211 2.43745 56.5888 2.4132 56.3642 2.45596C56.3642 2.45596 56.642 2.14434 57.189 2.46141C57.189 2.46141 57.7011 2.26746 57.7883 2.29252C57.7883 2.29252 57.2925 1.90353 56.8817 1.83489C56.8817 1.83489 57.3753 1.69433 57.9365 2.27073L58.502 2.21298C58.502 2.21298 57.8744 1.66818 57.5126 1.57556C57.5126 1.57556 58.0389 1.51019 58.6469 2.20971L59.2048 2.23368C59.2048 2.23368 58.7003 1.71939 58.3189 1.53525C58.3189 1.53525 58.8201 1.57883 59.365 2.24676L59.7354 2.30669C59.7354 2.30669 59.3584 1.94276 59.2407 1.84905C59.1231 1.75535 59.1394 1.71394 59.1394 1.71394C59.4426 1.84803 59.7026 2.06383 59.8901 2.3372C59.8901 2.3372 60.6474 2.50282 60.6659 2.46141Z" fill="#6C63FF"/>
<path opacity="0.1" d="M73.3729 5.61365C73.3729 5.61365 72.0435 1.67909 69.5364 3.22524C69.5364 3.22524 69.0243 3.3342 68.9839 3.8474C68.9839 3.8474 69.1855 3.77331 69.2749 4.18736C69.3081 4.33464 69.3582 4.4776 69.4241 4.61339C69.5142 4.79614 69.661 4.94484 69.8425 5.03725V5.03725C69.8425 5.03725 70.7273 5.93617 72.6624 5.63871C72.6624 5.63871 73.1735 5.79344 73.2672 5.74004L72.7224 5.20505C72.7224 5.20505 72.3454 5.61583 71.8856 5.59949C71.8856 5.59949 72.7169 5.23774 72.6483 5.12115C72.6341 5.09827 72.3497 4.85093 72.3497 4.85093C72.3497 4.85093 71.6894 5.56244 70.9812 5.51559C70.9812 5.51559 72.0283 5.21703 72.2419 4.75286L71.7908 4.40528C71.7908 4.40528 71.1305 5.19197 70.3209 5.168C70.3209 5.168 71.4105 4.81824 71.6862 4.33445L71.1958 4.05225C71.1958 4.05225 70.5421 4.80734 69.8643 4.78337C69.8643 4.78337 71.076 4.25273 71.0793 3.99559C71.0793 3.99559 70.614 3.7635 70.4604 3.76132C70.4604 3.76132 69.9744 4.29196 69.5887 4.24402C69.5887 4.24402 70.3601 3.80273 70.3274 3.71229C70.3274 3.71229 69.641 3.57173 69.2542 3.68505C69.604 3.56324 69.9797 3.53506 70.3438 3.60333C70.2194 3.41145 70.0418 3.25998 69.8327 3.16749C69.8327 3.16749 70.2381 3.06833 70.5094 3.63929C70.5094 3.63929 71.0411 3.77113 71.0978 3.83977C71.0978 3.83977 70.9104 3.2394 70.6107 2.94957C70.6107 2.94957 71.0978 3.1141 71.2307 3.9106L71.7297 4.183C71.7297 4.183 71.5238 3.3756 71.2754 3.09339C71.2754 3.09339 71.7472 3.33747 71.8496 4.25818L72.2963 4.59487C72.2963 4.59487 72.1721 3.88445 71.9629 3.51616C71.9629 3.51616 72.3508 3.8365 72.4206 4.6962L72.6919 4.95553C72.6919 4.95553 72.5916 4.43906 72.5502 4.29305C72.5088 4.14704 72.5426 4.13724 72.5426 4.13724C72.7158 4.41989 72.8074 4.74496 72.8074 5.07648C72.8074 5.07648 73.3347 5.64198 73.3729 5.61365Z" fill="#6C63FF"/>
<path opacity="0.1" d="M64.6975 5.8076C64.6975 5.8076 60.5679 5.34778 60.9089 8.27773C60.9089 8.27773 60.7858 8.78549 61.2358 9.04045C61.2358 9.04045 61.2543 8.82253 61.6717 8.9206C61.8191 8.95233 61.9697 8.96732 62.1206 8.96527C62.3243 8.96159 62.5213 8.89159 62.6817 8.76587V8.76587C62.6817 8.76587 63.8705 8.3442 64.4251 6.46463C64.4251 6.46463 64.7803 6.06692 64.7727 5.95905L64.059 6.22274C64.059 6.22274 64.2769 6.73812 64.059 7.14781C64.059 7.14781 64.0819 6.24235 63.95 6.25651C63.9228 6.25651 63.5785 6.41342 63.5785 6.41342C63.5785 6.41342 63.9446 7.31234 63.6025 7.93886C63.6025 7.93886 63.7746 6.86233 63.4466 6.47443L62.94 6.73594C62.94 6.73594 63.3758 7.66755 63.0108 8.39105C63.0108 8.39105 63.1524 7.26004 62.8332 6.80132L62.3701 7.1282C62.3701 7.1282 62.7754 8.04455 62.4693 8.64493C62.4693 8.64493 62.5009 7.32215 62.2688 7.20992C62.2688 7.20992 61.8613 7.5368 61.7948 7.67191C61.7948 7.67191 62.0705 8.33657 61.8623 8.6689C61.8623 8.6689 61.7893 7.78305 61.6935 7.77433C61.6935 7.77433 61.275 8.33766 61.214 8.73536C61.2518 8.36665 61.3856 8.01426 61.6019 7.71332C61.3758 7.74456 61.1638 7.84113 60.9917 7.99116C60.9917 7.99116 61.0724 7.58256 61.7044 7.5782C61.7044 7.5782 62.0476 7.15217 62.1402 7.12929C62.1402 7.12929 61.5158 7.04539 61.1269 7.19466C61.1269 7.19466 61.481 6.82202 62.259 7.03885L62.7177 6.70216C62.7177 6.70216 61.8885 6.53436 61.5376 6.64332C61.5376 6.64332 61.9582 6.31644 62.8365 6.61608L63.33 6.35349C63.33 6.35349 62.6338 6.16608 62.2121 6.19985C62.2121 6.19985 62.6665 5.98193 63.4739 6.28375L63.8247 6.14755C63.8247 6.14755 63.3137 6.02007 63.1633 5.9961C63.013 5.97213 63.0075 5.93072 63.0075 5.93072C63.3369 5.89293 63.6704 5.94724 63.9707 6.08762C63.9707 6.08762 64.7051 5.85336 64.6975 5.8076Z" fill="#6C63FF"/>
<path opacity="0.1" d="M100.829 37.8605C100.829 37.8605 96.7014 37.4007 97.0424 40.3274C97.0424 40.3274 96.9193 40.8351 97.3693 41.0901C97.3693 41.0901 97.3878 40.8722 97.8052 40.9692C97.9525 41.002 98.1032 41.017 98.2541 41.0138C98.4579 41.0107 98.6551 40.9406 98.8152 40.8144V40.8144C98.8152 40.8144 100.004 40.3928 100.553 38.5143C100.553 38.5143 100.908 38.1155 100.901 38.0087L100.187 38.2713C100.187 38.2713 100.405 38.7878 100.187 39.1975C100.187 39.1975 100.21 38.2909 100.078 38.3062C100.051 38.3062 99.7065 38.462 99.7065 38.462C99.7065 38.462 100.073 39.3609 99.7305 39.9874C99.7305 39.9874 99.9027 38.912 99.5747 38.523L99.068 38.7856C99.068 38.7856 99.5039 39.7172 99.1399 40.4407C99.1399 40.4407 99.2805 39.3097 98.9612 38.8499L98.4982 39.1768C98.4982 39.1768 98.9035 40.0931 98.5973 40.6924C98.5973 40.6924 98.6289 39.3696 98.3968 39.2585C98.3968 39.2585 97.9904 39.5854 97.9228 39.7205C97.9228 39.7205 98.1996 40.3851 97.9904 40.7175C97.9904 40.7175 97.9174 39.8316 97.8215 39.8229C97.8215 39.8229 97.4031 40.3862 97.3421 40.7839C97.3799 40.4152 97.5136 40.0628 97.73 39.7619C97.5037 39.7926 97.2915 39.8892 97.1198 40.0397C97.1198 40.0397 97.2004 39.63 97.8324 39.6257C97.8324 39.6257 98.1767 39.1996 98.2682 39.1778C98.2682 39.1778 97.6439 39.0929 97.2549 39.2421C97.2549 39.2421 97.609 38.8706 98.3881 39.0874L98.8457 38.7507C98.8457 38.7507 98.0264 38.596 97.67 38.7028C97.67 38.7028 98.0906 38.3759 98.9689 38.6744L99.4625 38.4129C99.4625 38.4129 98.7662 38.2255 98.3445 38.2593C98.3445 38.2593 98.7989 38.0414 99.6063 38.3432L99.9572 38.2059C99.9572 38.2059 99.4461 38.0784 99.2958 38.0556C99.1454 38.0327 99.1399 37.9902 99.1399 37.9902C99.4693 37.9517 99.8028 38.0056 100.103 38.146C100.103 38.146 100.84 37.9074 100.829 37.8605Z" fill="#6C63FF"/>
<path opacity="0.1" d="M107.139 41.7155C107.139 41.7155 103.011 41.2568 103.352 44.1824C103.352 44.1824 103.23 44.6901 103.679 44.9451C103.679 44.9451 103.698 44.7272 104.115 44.8252C104.262 44.8572 104.412 44.8719 104.563 44.8688C104.766 44.8647 104.962 44.7951 105.122 44.6705V44.6705C105.122 44.6705 106.309 44.2488 106.859 42.3693C106.859 42.3693 107.215 41.9716 107.206 41.8637L106.493 42.1263C106.493 42.1263 106.71 42.6428 106.493 43.0525C106.493 43.0525 106.515 42.147 106.384 42.1612C106.356 42.1612 106.012 42.317 106.012 42.317C106.012 42.317 106.378 43.2159 106.036 43.8424C106.036 43.8424 106.208 42.767 105.88 42.3791L105.374 42.6406C105.374 42.6406 105.809 43.5722 105.445 44.2957C105.445 44.2957 105.586 43.1647 105.267 42.706L104.804 43.0328C104.804 43.0328 105.209 43.9492 104.904 44.5496C104.904 44.5496 104.934 43.2257 104.702 43.1146C104.702 43.1146 104.296 43.4414 104.228 43.5765C104.228 43.5765 104.505 44.2412 104.296 44.5735C104.296 44.5735 104.223 43.6877 104.127 43.679C104.127 43.679 103.709 44.2423 103.649 44.64C103.686 44.2714 103.82 43.9191 104.035 43.618C103.809 43.6492 103.597 43.7458 103.425 43.8958C103.425 43.8958 103.507 43.4861 104.139 43.4828C104.139 43.4828 104.482 43.0568 104.575 43.0339C104.575 43.0339 103.95 42.95 103.562 43.0993C103.562 43.0993 103.916 42.7267 104.695 42.9435L105.152 42.6068C105.152 42.6068 104.333 42.4521 103.977 42.5589C103.977 42.5589 104.397 42.232 105.275 42.5316L105.769 42.269C105.769 42.269 105.073 42.0816 104.651 42.1154C104.651 42.1154 105.105 41.8975 105.913 42.1993L106.264 42.0631C106.264 42.0631 105.753 41.9356 105.603 41.9116C105.454 41.8877 105.447 41.8463 105.447 41.8463C105.776 41.8085 106.109 41.8628 106.41 42.0032C106.41 42.0032 107.15 41.7624 107.139 41.7155Z" fill="#6C63FF"/>
<path opacity="0.1" d="M93.1296 9.24421C93.1296 9.24421 89.8042 6.75664 88.6154 9.45123C88.6154 9.45123 88.2526 9.82715 88.513 10.2772C88.513 10.2772 88.6372 10.1017 88.9489 10.3927C89.0592 10.4953 89.1814 10.5846 89.3128 10.6585C89.4908 10.7575 89.6962 10.7958 89.8979 10.7675V10.7675C89.8979 10.7675 91.1357 11.0061 92.562 9.6648C92.562 9.6648 93.0697 9.50136 93.1176 9.40547L92.3691 9.27036C92.3691 9.27036 92.2906 9.82279 91.9038 10.0701C91.9038 10.0701 92.3822 9.30087 92.258 9.2453C92.2329 9.23331 91.8592 9.19082 91.8592 9.19082C91.8592 9.19082 91.7186 10.1519 91.1084 10.5147C91.1084 10.5147 91.8025 9.6746 91.7164 9.17338L91.1466 9.14288C91.1466 9.14288 91.0496 10.166 90.3697 10.6062C90.3697 10.6062 91.0648 9.70293 91.0234 9.14506L90.459 9.19082C90.459 9.19082 90.3501 10.1856 89.7769 10.5474C89.7769 10.5474 90.4743 9.4229 90.3305 9.20934C90.3305 9.20934 89.8151 9.28235 89.6876 9.36733C89.6876 9.36733 89.5895 10.0799 89.2409 10.2608C89.2409 10.2608 89.6266 9.45995 89.5481 9.40438C89.5481 9.40438 88.902 9.67787 88.6481 9.9895C88.8677 9.69113 89.1615 9.45526 89.5002 9.30523C89.2894 9.21763 89.0577 9.19339 88.8334 9.23549C88.8334 9.23549 89.1112 8.92386 89.6582 9.24094C89.6582 9.24094 90.1692 9.04808 90.2564 9.07205C90.2564 9.07205 89.7606 8.68306 89.3498 8.61551C89.3498 8.61551 89.8445 8.47386 90.4056 9.05135L90.9711 8.9936C90.9711 8.9936 90.3435 8.4488 89.9818 8.35727C89.9818 8.35727 90.5081 8.2908 91.115 8.99033L91.6739 9.01539C91.6739 9.01539 91.1684 8.5011 90.7881 8.31587C90.7881 8.31587 91.2893 8.35945 91.833 9.02738L92.2046 9.08731C92.2046 9.08731 91.8287 8.71902 91.711 8.62313C91.5933 8.52725 91.6107 8.49565 91.6107 8.49565C91.9134 8.6301 92.1729 8.84584 92.3604 9.1189C92.3604 9.1189 93.1155 9.28888 93.1296 9.24421Z" fill="#6C63FF"/>
<path opacity="0.1" d="M95.699 27.2031C95.699 27.2031 94.5527 23.2119 91.9747 24.6447C91.9747 24.6447 91.4582 24.7243 91.3939 25.2407C91.3939 25.2407 91.5988 25.1764 91.6696 25.5938C91.6959 25.7437 91.7397 25.89 91.8003 26.0296C91.8812 26.2174 92.0212 26.3735 92.1991 26.4742V26.4742C92.1991 26.4742 93.0425 27.4112 94.9885 27.202C94.9885 27.202 95.4919 27.3785 95.5878 27.3306L95.0724 26.7705C95.0724 26.7705 94.6769 27.165 94.2193 27.1279C94.2193 27.1279 95.0648 26.801 94.9994 26.6844C94.9863 26.6605 94.7139 26.4001 94.7139 26.4001C94.7139 26.4001 94.0231 27.0822 93.3171 27.0026C93.3171 27.0026 94.3773 26.752 94.6104 26.3009L94.1746 25.9326C94.1746 25.9326 93.4794 26.6888 92.672 26.63C92.672 26.63 93.7703 26.3282 94.0733 25.8585L93.596 25.5545C93.596 25.5545 92.9041 26.2791 92.2329 26.2246C92.2329 26.2246 93.4674 25.7485 93.4827 25.4924C93.4827 25.4924 93.0272 25.2396 92.8736 25.2309C92.8736 25.2309 92.3648 25.7387 91.9779 25.6733C91.9779 25.6733 92.769 25.2669 92.7407 25.1753C92.7407 25.1753 92.0608 25.0043 91.6696 25.0991C92.0239 24.994 92.3994 24.9831 92.7592 25.0675C92.644 24.8703 92.4735 24.7112 92.2689 24.6098C92.2689 24.6098 92.6786 24.5281 92.9226 25.1111C92.9226 25.1111 93.4467 25.2658 93.5012 25.3377C93.5012 25.3377 93.341 24.7286 93.0545 24.4268C93.0545 24.4268 93.5339 24.612 93.6309 25.414L94.1168 25.7093C94.1168 25.7093 93.9469 24.8921 93.7115 24.6044C93.7115 24.6044 94.1713 24.8692 94.2334 25.7932L94.6693 26.1495C94.6693 26.1495 94.5767 25.4347 94.3849 25.0598C94.3849 25.0598 94.7586 25.3976 94.7891 26.2584L95.0485 26.5308C95.0485 26.5308 94.9722 26.01 94.9395 25.8618C94.9068 25.7136 94.9395 25.6929 94.9395 25.6929C95.1007 25.9827 95.1781 26.3117 95.1629 26.643C95.1629 26.643 95.6597 27.2293 95.699 27.2031Z" fill="#6C63FF"/>
<path opacity="0.1" d="M70.1564 36.1967C70.1564 36.1967 67.9303 32.6903 65.8633 34.7889C65.8633 34.7889 65.3904 35.0068 65.4732 35.5244C65.4732 35.5244 65.653 35.4045 65.8383 35.7859C65.9048 35.921 65.9875 36.0476 66.0845 36.1629C66.2144 36.3202 66.3925 36.4305 66.5912 36.4767V36.4767C66.5912 36.4767 67.6644 37.1392 69.4732 36.3895C69.4732 36.3895 70.006 36.4179 70.0845 36.3449L69.4307 35.9526C69.4307 35.9526 69.1616 36.4429 68.7116 36.5355C68.7116 36.5355 69.4329 35.9907 69.3359 35.8905C69.3174 35.8709 68.9818 35.6987 68.9818 35.6987C68.9818 35.6987 68.51 36.5464 67.8105 36.6696C67.8105 36.6696 68.7573 36.1302 68.8554 35.6312L68.3335 35.4013C68.3335 35.4013 67.8791 36.322 67.088 36.4909C67.088 36.4909 68.0578 35.8927 68.2158 35.3566L67.671 35.1997C67.671 35.1997 67.2112 36.0899 66.552 36.2261C66.552 36.2261 67.6023 35.422 67.5446 35.1714C67.5446 35.1714 67.0368 35.057 66.8908 35.0918C66.8908 35.0918 66.5454 35.7227 66.1553 35.7685C66.1553 35.7685 66.8004 35.1561 66.747 35.0755C66.747 35.0755 66.0464 35.1027 65.6977 35.3043C66.0087 35.1028 66.3671 34.9863 66.7372 34.9665C66.5715 34.8097 66.3636 34.7048 66.139 34.6647C66.139 34.6647 66.5084 34.4718 66.9017 34.9622C66.9017 34.9622 67.4465 34.9622 67.5217 35.0166C67.5217 35.0166 67.1948 34.4718 66.8363 34.2681C66.8363 34.2681 67.3485 34.3117 67.6666 35.0537L68.2169 35.1997C68.2169 35.1997 67.8235 34.4642 67.5173 34.2539C67.5173 34.2539 68.0327 34.3781 68.352 35.2487L68.8663 35.4666C68.8663 35.4666 68.5765 34.8074 68.2855 34.4991C68.2855 34.4991 68.7388 34.717 69.0101 35.5353L69.337 35.7238C69.337 35.7238 69.1191 35.2455 69.0417 35.1136C68.9644 34.9818 68.9949 34.9513 68.9949 34.9513C69.2306 35.1842 69.397 35.478 69.4754 35.8001C69.4754 35.8001 70.127 36.2337 70.1564 36.1967Z" fill="#6C63FF"/>
<path d="M84.7865 18.2814C84.7865 18.2814 82.6694 14.7086 80.537 16.7418C80.537 16.7418 80.0576 16.9488 80.1252 17.4653C80.1252 17.4653 80.3071 17.3498 80.4815 17.7366C80.5438 17.8741 80.6225 18.0036 80.7157 18.1223C80.8409 18.283 81.0155 18.3979 81.2126 18.4492V18.4492C81.2126 18.4492 82.2641 19.1444 84.0957 18.4492C84.0957 18.4492 84.6274 18.4939 84.7081 18.4231L84.0685 18.0112C84.0685 18.0112 83.7852 18.4917 83.3319 18.5712C83.3319 18.5712 84.0695 18.045 83.9769 17.9458C83.9573 17.9251 83.6283 17.7421 83.6283 17.7421C83.6283 17.7421 83.1303 18.5756 82.4297 18.6769C82.4297 18.6769 83.3929 18.167 83.5051 17.6723L82.9908 17.4304C82.9908 17.4304 82.5081 18.3381 81.7116 18.483C81.7116 18.483 82.6999 17.9153 82.8742 17.3847L82.336 17.2103C82.336 17.2103 81.8478 18.082 81.1854 18.2019C81.1854 18.2019 82.2597 17.4304 82.2096 17.1787C82.2096 17.1787 81.7062 17.048 81.5558 17.0785C81.5558 17.0785 81.1908 17.6985 80.7996 17.7323C80.7996 17.7323 81.4632 17.1417 81.4131 17.0589C81.4131 17.0589 80.7114 17.0643 80.3573 17.255C80.6745 17.0637 81.0362 16.9585 81.4065 16.9499C81.2455 16.7879 81.0406 16.6766 80.8171 16.6296C80.8171 16.6296 81.193 16.4476 81.5798 16.9499C81.5798 16.9499 82.1246 16.9684 82.1976 17.024C82.1976 17.024 81.8892 16.4792 81.5362 16.2547C81.5362 16.2547 82.0461 16.3136 82.3414 17.0654L82.8862 17.2289C82.8862 17.2289 82.5169 16.4814 82.2161 16.2613C82.2161 16.2613 82.7282 16.4018 83.0203 17.2812L83.5269 17.5176C83.5269 17.5176 83.2578 16.8497 82.9821 16.537C82.9821 16.537 83.4278 16.769 83.6751 17.595L83.9944 17.7933C83.9944 17.7933 83.7895 17.3084 83.7176 17.1744C83.6457 17.0404 83.6762 17.0109 83.6762 17.0109C83.9046 17.251 84.0619 17.5497 84.1306 17.8739C84.1306 17.8739 84.7549 18.3174 84.7865 18.2814Z" fill="#6C63FF"/>
<path d="M71.392 25.7943C71.392 25.7943 71.501 21.6429 68.6168 22.228C68.6168 22.228 68.1003 22.1484 67.8824 22.6213C67.8824 22.6213 68.1003 22.6213 68.0393 23.0408C68.0193 23.1904 68.0171 23.3418 68.0328 23.4919C68.0524 23.6955 68.1386 23.887 68.2779 24.0367C68.2779 24.0367 68.7977 25.1852 70.7164 25.5752C70.7164 25.5752 71.1425 25.8967 71.2493 25.8792L70.9224 25.1906C70.9224 25.1906 70.4266 25.4456 70.0006 25.2723C70.0006 25.2723 70.9049 25.2189 70.8799 25.086C70.8799 25.0588 70.6925 24.7275 70.6925 24.7275C70.6925 24.7275 69.8273 25.1688 69.179 24.879C69.179 24.879 70.2686 24.9607 70.6249 24.6022L70.3209 24.1195C70.3209 24.1195 69.4296 24.6295 68.6778 24.3287C68.6778 24.3287 69.8164 24.3745 70.2479 24.0182L69.8851 23.5824C69.8851 23.5824 69.0058 24.064 68.3825 23.809C68.3825 23.809 69.7031 23.7295 69.799 23.4887C69.799 23.4887 69.4416 23.1106 69.2978 23.0528C69.2978 23.0528 68.6593 23.3797 68.3106 23.2032C68.3106 23.2032 69.1823 23.0572 69.1877 22.9602C69.1877 22.9602 68.5917 22.5908 68.1897 22.5636C68.5604 22.5702 68.9229 22.6739 69.2411 22.8643C69.1915 22.6416 69.0779 22.4382 68.9142 22.2792C68.9142 22.2792 69.3294 22.326 69.386 22.9547C69.386 22.9547 69.8404 23.262 69.8698 23.347C69.8698 23.347 69.9014 22.7183 69.7195 22.3435C69.7195 22.3435 70.1204 22.6649 69.9701 23.4581L70.3438 23.8874C70.3438 23.8874 70.4288 23.0572 70.2926 22.7118C70.2926 22.7118 70.65 23.1029 70.4299 24.0029L70.7317 24.4726C70.7317 24.4726 70.8603 23.7632 70.7916 23.3459C70.7916 23.3459 71.0444 23.7818 70.8134 24.6109L70.979 24.9487C70.979 24.9487 71.0629 24.429 71.0738 24.2775C71.0847 24.1261 71.1261 24.1163 71.1261 24.1163C71.1917 24.4413 71.1657 24.7782 71.051 25.0893C71.051 25.0893 71.3441 25.8084 71.392 25.7943Z" fill="#6C63FF"/>
<path opacity="0.1" d="M76.1601 78.5442C77.7806 78.5442 79.0944 78.3222 79.0944 78.0484C79.0944 77.7746 77.7806 77.5527 76.1601 77.5527C74.5395 77.5527 73.2258 77.7746 73.2258 78.0484C73.2258 78.3222 74.5395 78.5442 76.1601 78.5442Z" fill="#6C63FF"/>
<path opacity="0.1" d="M65.4635 86.0711C67.0841 86.0711 68.3978 85.8491 68.3978 85.5753C68.3978 85.3015 67.0841 85.0796 65.4635 85.0796C63.8429 85.0796 62.5292 85.3015 62.5292 85.5753C62.5292 85.8491 63.8429 86.0711 65.4635 86.0711Z" fill="#6C63FF"/>
<path opacity="0.1" d="M10.1486 82.2151C11.7692 82.2151 13.0829 81.9931 13.0829 81.7193C13.0829 81.4455 11.7692 81.2236 10.1486 81.2236C8.52803 81.2236 7.21429 81.4455 7.21429 81.7193C7.21429 81.9931 8.52803 82.2151 10.1486 82.2151Z" fill="#6C63FF"/>
<path opacity="0.1" d="M87.7198 85.5754C89.3403 85.5754 90.6541 85.3534 90.6541 85.0796C90.6541 84.8058 89.3403 84.5839 87.7198 84.5839C86.0992 84.5839 84.7855 84.8058 84.7855 85.0796C84.7855 85.3534 86.0992 85.5754 87.7198 85.5754Z" fill="#6C63FF"/>
<path d="M90.775 79.5302C93.1947 79.5302 95.1563 79.1985 95.1563 78.7893C95.1563 78.3801 93.1947 78.0484 90.775 78.0484C88.3552 78.0484 86.3937 78.3801 86.3937 78.7893C86.3937 79.1985 88.3552 79.5302 90.775 79.5302Z" fill="#6C63FF"/>
<path d="M92.5913 77.5766C92.7913 77.4141 92.9369 77.1943 93.0087 76.9468C93.0631 76.6962 92.9564 76.3965 92.7177 76.305C92.4497 76.2026 92.1631 76.3878 91.9452 76.5752C91.7273 76.7626 91.4799 76.9773 91.1955 76.9381C91.3415 76.8054 91.4508 76.6373 91.5126 76.45C91.5745 76.2628 91.5869 76.0627 91.5486 75.8692C91.5362 75.789 91.5023 75.7137 91.4505 75.6512C91.3012 75.4922 91.0321 75.5608 90.8534 75.6861C90.2868 76.0849 90.1288 76.8542 90.1255 77.5472C90.0689 77.2976 90.1168 77.0372 90.1157 76.7844C90.1147 76.5316 90.0438 76.2396 89.827 76.1067C89.6939 76.0325 89.5435 75.9949 89.3911 75.9977C89.1362 75.989 88.8518 76.0141 88.6785 76.2004C88.4606 76.4314 88.5184 76.8204 88.7058 77.0721C88.8932 77.3238 89.1798 77.4861 89.4434 77.6627C89.6545 77.7887 89.8347 77.9603 89.9708 78.165C89.9863 78.1935 89.9991 78.2234 90.009 78.2543H91.6063C91.9639 78.0742 92.2953 77.8462 92.5913 77.5766V77.5766Z" fill="#6C63FF"/>
<path d="M8.17859 79.4148C8.17859 79.4148 9.85114 79.3636 10.3578 79.004C10.8645 78.6444 12.9325 78.2162 13.0578 78.7926C13.1832 79.369 15.5727 81.6572 13.6833 81.6724C11.7939 81.6877 9.29326 81.3782 8.78986 81.071C8.28646 80.7637 8.17859 79.4148 8.17859 79.4148Z" fill="#A8A8A8"/>
<path opacity="0.2" d="M13.7149 81.472C11.8255 81.4872 9.32486 81.1778 8.82146 80.8705C8.43792 80.6373 8.28537 79.7994 8.23416 79.4126H8.17859C8.17859 79.4126 8.28755 80.7626 8.78768 81.0688C9.28781 81.375 11.7917 81.6855 13.6811 81.6703C14.2259 81.6703 14.4144 81.472 14.4046 81.1843C14.3283 81.3597 14.1202 81.4687 13.7149 81.472Z" fill="black"/>
</g>
<defs>
<linearGradient id="paint0_linear" x1="24.2971" y1="47.2257" x2="58.307" y2="47.2257" gradientUnits="userSpaceOnUse">
<stop stop-color="#808080" stop-opacity="0.25"/>
<stop offset="0.54" stop-color="#808080" stop-opacity="0.12"/>
<stop offset="1" stop-color="#808080" stop-opacity="0.1"/>
</linearGradient>
<clipPath id="clip0">
<rect width="110" height="86.0712" fill="white"/>
</clipPath>
</defs>
</svg>
