<svg width="190" height="165" viewBox="0 0 190 165" fill="none" xmlns="http://www.w3.org/2000/svg">
<g clip-path="url(#clip0)">
<path d="M46.2999 26.5795C41.022 26.5795 37.1796 30.5238 35.8843 36.1552L34.2786 44.6033H35.4211L37.8965 37.6872L37.3753 44.6033H38.6581L39.6102 41.0404L39.4098 44.6033H54.8435V35.9829C54.8435 30.7895 51.0184 26.5795 46.2999 26.5795H46.2999Z" fill="#2F2E41"/>
<path d="M39.3245 71.928C39.3245 71.928 31.5174 82.7817 31.8983 87.1613C32.2791 91.5409 37.2299 162.947 37.2299 162.947L48.8453 163.518L45.4178 112.106L48.2741 98.2055L55.3195 162.947L69.6007 163.328L56.8428 79.3543L54.3674 71.928L39.3245 71.928Z" fill="#2F2E41"/>
<path d="M41.9903 38.7956C41.9903 38.7956 44.4657 43.3656 41.2287 46.4122C37.9916 49.4589 36.4683 57.6468 36.4683 57.6468L54.7482 56.3139L53.2249 46.0314C53.2249 46.0314 49.2261 43.556 50.1782 39.1764L41.9903 38.7956Z" fill="#FFB8B8"/>
<path d="M38.9437 50.9822C38.9437 50.9822 40.0862 54.4097 45.037 54.0289C48.0512 53.7772 50.9435 52.7255 53.4153 50.9822V73.2609L38.182 72.6897V59.1701L38.9437 50.9822Z" fill="#6C63FF"/>
<path d="M39.8958 73.2609L41.0383 69.4526C41.0383 69.4526 40.6575 60.5031 39.1342 56.8851C39.1342 56.8851 42.0449 47.3484 42.4937 44.5953L41.0383 45.6506L32.2792 49.8397L35.3258 65.6443L37.4204 69.0718L35.2501 78.0769L39.8958 73.2609Z" fill="#3F3D56"/>
<path d="M47.322 72.4992L51.7016 48.6972L50.4997 42.7943L53.9866 46.2218L60.8416 48.3164L57.6045 66.2155L55.7003 70.0238L56.642 78.5686L47.322 72.4992Z" fill="#3F3D56"/>
<path d="M64.8403 88.4942C64.8403 88.4942 66.7445 96.6821 62.9361 97.6342C59.1278 98.5863 60.4607 88.4942 60.4607 88.4942H64.8403Z" fill="#FFB8B8"/>
<path d="M31.253 79.9957C31.253 79.9957 38.5853 84.1072 36.7221 87.5623C34.8588 91.0175 28.3014 83.2312 28.3014 83.2312L31.253 79.9957Z" fill="#FFB8B8"/>
<path d="M57.9853 48.6972L60.8416 48.3164C60.8416 48.3164 62.5553 50.6014 62.7457 52.3151C62.9362 54.0289 65.9828 82.9721 65.9828 82.9721C66.202 83.6039 65.9856 84.224 65.7924 89.4463L65.2211 91.7313C65.2211 91.7313 64.0786 87.3517 59.6991 89.6367L59.1278 86.9709C59.1278 86.9709 57.9853 76.8788 57.9853 72.1184C57.9853 67.358 57.6045 62.2168 57.6045 62.2168L57.9853 48.6972Z" fill="#3F3D56"/>
<path d="M44.1907 164.249C45.6861 164.249 46.8984 163.795 46.8984 163.234C46.8984 162.673 45.6861 162.218 44.1907 162.218C42.6953 162.218 41.483 162.673 41.483 163.234C41.483 163.795 42.6953 164.249 44.1907 164.249Z" fill="#2F2E41"/>
<path d="M62.4674 164.249C63.9629 164.249 65.1751 163.795 65.1751 163.234C65.1751 162.673 63.9629 162.218 62.4674 162.218C60.972 162.218 59.7598 162.673 59.7598 163.234C59.7598 163.795 60.972 164.249 62.4674 164.249Z" fill="#2F2E41"/>
<path d="M34.3737 49.6493L32.2792 49.8397L27.5187 68.3101C27.5187 68.3101 26.9404 92.2932 31.7079 87.7325C31.7079 87.7325 29.9942 82.7817 34.3737 81.068V70.9759L35.8971 62.2168L34.3737 49.6493Z" fill="#3F3D56"/>
<path d="M52.6537 37.9387C52.8114 37.9387 52.9393 37.5124 52.9393 36.9866C52.9393 36.4608 52.8114 36.0345 52.6537 36.0345C52.4959 36.0345 52.368 36.4608 52.368 36.9866C52.368 37.5124 52.4959 37.9387 52.6537 37.9387Z" fill="#FFB8B8"/>
<path d="M39.7054 37.9387C39.8632 37.9387 39.9911 37.5124 39.9911 36.9866C39.9911 36.4608 39.8632 36.0345 39.7054 36.0345C39.5477 36.0345 39.4198 36.4608 39.4198 36.9866C39.4198 37.5124 39.5477 37.9387 39.7054 37.9387Z" fill="#FFB8B8"/>
<path d="M46.1795 42.7943C49.6499 42.7943 52.4632 39.981 52.4632 36.5106C52.4632 33.0402 49.6499 30.2268 46.1795 30.2268C42.7091 30.2268 39.8958 33.0402 39.8958 36.5106C39.8958 39.981 42.7091 42.7943 46.1795 42.7943Z" fill="#FFB8B8"/>
<path d="M43.4185 33.1784L43.2579 34.7017H47.6076L48.179 33.559L48.0586 34.7017H53.3202L49.7023 28.9893L41.7049 29.1796L39.8005 34.7017H42.657L43.4185 33.1784Z" fill="#2F2E41"/>
<path d="M139.102 104.725C111.037 104.725 88.2039 81.892 88.2039 53.8267C88.2039 25.7614 111.037 2.92865 139.102 2.92865C167.167 2.92865 190 25.7614 190 53.8267C190 81.892 167.167 104.725 139.102 104.725ZM139.102 3.42042C111.308 3.42042 88.6956 26.0325 88.6956 53.8267C88.6956 81.6209 111.308 104.233 139.102 104.233C166.896 104.233 189.508 81.6209 189.508 53.8267C189.508 26.0325 166.896 3.42042 139.102 3.42042Z" fill="#E6E6E6"/>
<path d="M139.102 90.4636C118.9 90.4636 102.465 74.0284 102.465 53.8267C102.465 33.6252 118.9 17.1899 139.102 17.1899C159.303 17.1899 175.739 33.6252 175.739 53.8267C175.739 74.0284 159.303 90.4636 139.102 90.4636ZM139.102 17.6817C119.172 17.6817 102.957 33.8963 102.957 53.8267C102.957 73.7571 119.172 89.9718 139.102 89.9718C159.032 89.9718 175.247 73.7571 175.247 53.8267C175.247 33.8963 159.032 17.6817 139.102 17.6817Z" fill="#E6E6E6"/>
<path d="M139.102 76.0403C134.709 76.0403 130.414 74.7375 126.761 72.2966C123.108 69.8558 120.261 66.3865 118.579 62.3275C116.898 58.2685 116.458 53.8021 117.315 49.4931C118.172 45.1841 120.288 41.226 123.395 38.1194C126.501 35.0128 130.459 32.8971 134.768 32.04C139.077 31.1829 143.544 31.6228 147.603 33.3041C151.662 34.9854 155.131 37.8325 157.572 41.4855C160.013 45.1385 161.316 49.4333 161.316 53.8267C161.309 59.7161 158.966 65.3623 154.802 69.5267C150.638 73.6911 144.991 76.0336 139.102 76.0403V76.0403ZM139.102 32.1049C134.806 32.105 130.606 33.3789 127.034 35.7658C123.462 38.1526 120.678 41.5451 119.034 45.5142C117.39 49.4834 116.959 53.8509 117.798 58.0645C118.636 62.2781 120.705 66.1486 123.742 69.1864C126.78 72.2243 130.651 74.2931 134.864 75.1312C139.078 75.9693 143.446 75.5391 147.415 73.8951C151.384 72.251 154.776 69.4668 157.163 65.8947C159.55 62.3226 160.824 58.1229 160.824 53.8267C160.817 48.0677 158.527 42.5465 154.454 38.4743C150.382 34.4021 144.861 32.1114 139.102 32.1049V32.1049Z" fill="#E6E6E6"/>
<path d="M139.102 65.1063C145.331 65.1063 150.381 60.0563 150.381 53.8268C150.381 47.5972 145.331 42.5472 139.102 42.5472C132.872 42.5472 127.822 47.5972 127.822 53.8268C127.822 60.0563 132.872 65.1063 139.102 65.1063Z" fill="#6C63FF"/>
<path d="M147.171 7.15288C149.147 7.15288 150.748 5.55166 150.748 3.57644C150.748 1.60123 149.147 0 147.171 0C145.196 0 143.595 1.60123 143.595 3.57644C143.595 5.55166 145.196 7.15288 147.171 7.15288Z" fill="#6C63FF"/>
<path d="M102.328 92.1622C104.303 92.1622 105.905 90.5609 105.905 88.5857C105.905 86.6105 104.303 85.0093 102.328 85.0093C100.353 85.0093 98.7518 86.6105 98.7518 88.5857C98.7518 90.5609 100.353 92.1622 102.328 92.1622Z" fill="#6C63FF"/>
<path d="M102.82 61.4266C104.795 61.4266 106.397 59.8254 106.397 57.8502C106.397 55.8749 104.795 54.2737 102.82 54.2737C100.845 54.2737 99.2437 55.8749 99.2437 57.8502C99.2437 59.8254 100.845 61.4266 102.82 61.4266Z" fill="#E6E6E6"/>
<path d="M169.701 37.3299C171.676 37.3299 173.277 35.7287 173.277 33.7535C173.277 31.7783 171.676 30.1771 169.701 30.1771C167.725 30.1771 166.124 31.7783 166.124 33.7535C166.124 35.7287 167.725 37.3299 169.701 37.3299Z" fill="#E6E6E6"/>
<path d="M183.716 81.835C185.691 81.835 187.292 80.2338 187.292 78.2586C187.292 76.2834 185.691 74.6821 183.716 74.6821C181.741 74.6821 180.14 76.2834 180.14 78.2586C180.14 80.2338 181.741 81.835 183.716 81.835Z" fill="#E6E6E6"/>
<path d="M173.307 66.0266C175.282 66.0266 176.883 64.4254 176.883 62.4502C176.883 60.475 175.282 58.8737 173.307 58.8737C171.332 58.8737 169.73 60.475 169.73 62.4502C169.73 64.4254 171.332 66.0266 173.307 66.0266Z" fill="#6C63FF"/>
<path d="M94.9003 31.9128C96.8755 31.9128 98.4767 30.3116 98.4767 28.3364C98.4767 26.3612 96.8755 24.76 94.9003 24.76C92.9251 24.76 91.3239 26.3612 91.3239 28.3364C91.3239 30.3116 92.9251 31.9128 94.9003 31.9128Z" fill="#6C63FF"/>
<path d="M152.398 106.468C154.374 106.468 155.975 104.867 155.975 102.891C155.975 100.916 154.374 99.3151 152.398 99.3151C150.423 99.3151 148.822 100.916 148.822 102.891C148.822 104.867 150.423 106.468 152.398 106.468Z" fill="#6C63FF"/>
<path d="M2.29951 159.189C5.84507 163.938 13.205 164.437 13.205 164.437C13.205 164.437 14.8164 157.239 11.2708 152.49C7.72524 147.742 0.365347 147.242 0.365347 147.242C0.365347 147.242 -1.24606 154.441 2.29951 159.189Z" fill="#E6E6E6"/>
<path d="M20.3613 160.974C18.0217 164.108 13.1652 164.437 13.1652 164.437C13.1652 164.437 12.1018 159.687 14.4415 156.554C16.7811 153.421 21.6376 153.091 21.6376 153.091C21.6376 153.091 22.701 157.841 20.3613 160.974Z" fill="#E6E6E6"/>
<path d="M165.277 163.963H2.01025V164.514H165.277V163.963Z" fill="#3F3D56"/>
</g>
<defs>
<clipPath id="clip0">
<rect width="190" height="164.514" fill="white"/>
</clipPath>
</defs>
</svg>
